<svg width="20" height="20" viewBox="0 0 20 20" fill="none" xmlns="http://www.w3.org/2000/svg">
<g clip-path="url(#clip0)">
<path d="M1.00006 9H8.99994V0.999939C8.99994 0.448059 9.448 0 10.0001 0C10.5519 0 11 0.448059 11 0.999939V9H19.0001C19.5519 9 20 9.44806 20 9.99994C20 10.552 19.5519 11.0001 19.0001 11.0001H11V18.9999C11 19.552 10.5519 20.0001 10.0001 20.0001C9.448 20.0001 8.99994 19.552 8.99994 18.9999V11.0001H1.00006C0.447998 11.0001 -6.10352e-05 10.552 -6.10352e-05 9.99994C-6.10352e-05 9.44806 0.447998 9 1.00006 9V9Z" fill="black"/>
</g>
<defs>
<clipPath id="clip0">
<rect width="20" height="20" transform="matrix(-1 0 0 1 20 0)" fill="white"/>
</clipPath>
</defs>
</svg>
