<?xml version="1.0" encoding="utf-8"?>
<!-- Generator: Adobe Illustrator 24.0.0, SVG Export Plug-In . SVG Version: 6.00 Build 0)  -->
<svg version="1.1" id="_x31_" xmlns="http://www.w3.org/2000/svg" xmlns:xlink="http://www.w3.org/1999/xlink" x="0px" y="0px"
	 viewBox="0 0 500 500" style="enable-background:new 0 0 500 500;" xml:space="preserve">
<style type="text/css">
	.st0{fill:#00ABC5;}
	.st1{fill:#66C4A7;}
	.st2{fill:#EE3124;}
</style>
<g>
	<g>
		<g>
			<g>
				<g>
					<path class="st0" d="M324.9,156.4c7.6,2,144.3,39,24.7,76.3c0,0-37.6-92.2-81.7-143.5c0,0,93.4-88.1,52.2,59
						c1.1-3.1,69.6-199.2-69.8-78.8c0,0-132.5-127.9-72.3,73.1C171.1,118.6,143.4,11,231.5,88c0,0-71.6,97-82.9,144.8
						c0,0-125.3-41.6,24.6-76.4c-4.5,0.7-207.8,34.7-33.5,100.3c0,0-47.6,182.2,106,21c-9.8,10-107.4,107.2-81.3-14.6
						c0,0,76,12.9,167.8,2c0,0,30,129.7-78.3,12.2c3.9,4.9,134.4,166.9,103.3-17.9C357.3,259.4,535.4,205.7,324.9,156.4z
						 M172.1,237.6c30.7-82.1,78.2-129.4,78.2-129.4c42.3,41.2,74.6,131.4,74.6,131.4C248.9,254.6,172.1,237.6,172.1,237.6z"/>
					<path class="st1" d="M324.6,156.3c0.1,0,0.2,0,0.3,0.1C324.7,156.3,324.7,156.3,324.6,156.3"/>
					<path class="st1" d="M179.1,146.1c0,0.2,0.1,0.3,0.1,0.5C179.2,146.5,179.2,146.3,179.1,146.1"/>
					<path class="st1" d="M178.8,145.1c0.1,0.4,0.2,0.7,0.3,1C179,145.8,178.9,145.5,178.8,145.1"/>
				</g>
			</g>
		</g>
		<path d="M162,389.8v-12.2c0-6.2-0.7-10.8-13.1-10.8c-10.3,0-14.2,3.2-14.2,8.8h9.9c0.2-2.2,2.2-2.5,3.6-2.5c1.1,0,3.4,0.2,3.4,2.1
			c0,4.9-18.6-0.5-18.6,11.3c0,5.4,4.4,7.9,9.3,7.9c3.9,0,6.9-0.8,9.8-3.5l0.5,2.8h10.7v-0.5C162.1,392,162,391.3,162,389.8z
			 M147.1,388.5c-2,0-3.3-0.9-3.3-2.2c0-3.4,4.5-2.6,7.9-4.2C152,385.7,150.8,388.5,147.1,388.5z M189.7,364.2H200v-7.4h-10.3V364.2
			z M189.7,393.6H200v-26.1h-10.3V393.6z M262.2,366.8c-3.8,0-6.8,1.6-9,4.8c-1.2-2.8-3.8-4.8-8.5-4.8c-3.7,0-7,2.6-8.3,4.6v-3.9
			H227v26.1h10.3v-12.9c0-3.1,0.6-5.8,3.6-5.8c2.7,0,3.5,1.5,3.5,5.4v13.3h10.3v-12.9c0-3.1,0.6-5.8,3.6-5.8c2.7,0,3.5,1.5,3.5,5.4
			v13.3h10.3v-15.4C272.2,371.1,269.8,366.8,262.2,366.8z M308.3,374.3c0-1.3,1.1-1.8,2.9-1.8c0.8,0,1.5,0.2,2.1,0.6
			c0.5,0.4,0.9,1,1,1.9h9.4c-0.6-6.9-7.3-8.2-12.9-8.2c-5.4,0-12.3,1.9-12.3,8.6c0,10.1,16,6.8,16,10.9c0,1.8-1.7,2.3-3.3,2.3
			c-1,0-1.9-0.3-2.5-0.8c-0.7-0.5-1.1-1.3-1.1-2.4h-9.8c0.5,7,7.1,8.9,13.1,8.9c9.6,0,14-3.7,14-9.1
			C324.7,375.5,308.3,377.9,308.3,374.3z M367.6,373.5v-6h-5v-8.1l-10.2,4.1v4.1h-3.8v6h3.7v10.9c0,9,1.6,9.9,15.2,9.2v-7.4h-1.6
			c-2.9,0-3.2-0.8-3.2-3.2v-9.5H367.6z"/>
		<path class="st2" d="M289.2,191.8c0,21.1-17.1,38.2-38.2,38.2c-21.1,0-38.2-17.1-38.2-38.2c0-21.1,17.1-38.2,38.2-38.2
			C272.1,153.6,289.2,170.7,289.2,191.8z"/>
	</g>
	<path d="M45.2,421.5l-10,32.9h7.7l2.3-8.4h9.5l2.5,8.4h8L55,421.5H45.2z M46.3,440.4l2-7c0.5-1.9,1-4.4,1.5-6.3h0.1
		c0.5,1.9,1.1,4.4,1.6,6.3l2,7H46.3z M70.9,454.4h7.4v-32.9h-7.4V454.4z M110,421.5l-3.5,10.9c-1.1,3.7-2.2,8-3.1,11.8h-0.2
		c-0.7-3.9-1.7-8-2.8-11.7l-3.2-11h-9.9l-2.1,32.9h6.9l0.6-12.5c0.2-4.1,0.4-9.2,0.5-13.6h0.1c0.8,4.3,1.9,9,3,12.9l3.5,12.7h5.8
		l4-12.8c1.3-3.9,2.6-8.5,3.7-12.7h0.1c0,4.8,0.1,9.6,0.3,13.5l0.5,12.6h7.2l-1.8-32.9H110z M141.2,434.8c-4.3-1.7-6.1-2.6-6.1-4.7
		c0-1.7,1.6-3.2,4.8-3.2c3.2,0,5.6,0.9,6.8,1.6l1.7-6c-2-0.9-4.6-1.7-8.4-1.7c-7.7,0-12.4,4.2-12.4,9.9c0,4.8,3.6,7.9,9.1,9.8
		c4,1.4,5.5,2.6,5.5,4.6c0,2.2-1.8,3.6-5.2,3.6c-3.2,0-6.3-1-8.2-2l-1.5,6.1c1.9,1,5.6,2,9.3,2c9,0,13.2-4.7,13.2-10.2
		C149.7,440,147,437,141.2,434.8z M153.5,427.7h8.9v26.6h7.4v-26.6h9v-6.2h-25.3V427.7z M208.1,454.9c8.6,0,13.7-4.8,13.7-15v-18.4
		h-7.4v18.9c0,5.9-2.1,8.6-6,8.6c-3.8,0-6-2.9-6-8.6v-18.9H195v18.3C195,450.3,199.8,454.9,208.1,454.9z M236.3,444.4
		c0-5.4-0.1-10-0.3-14.4h0.2c1.6,3.9,3.8,8,5.7,11.6l7,12.7h7.8v-32.9h-6.8v9.6c0,5,0.1,9.4,0.6,13.8h-0.1
		c-1.5-3.7-3.4-7.8-5.4-11.3l-6.8-12h-8.7v32.9h6.8V444.4z M271.9,421.5h-7.4v32.9h7.4V421.5z M307,421.5h-7.9l-4.2,14
		c-1.1,3.8-2.1,7.7-3,11.6h-0.1c-0.8-4.1-1.8-7.8-2.9-11.8l-4-13.9h-8.1l10.5,32.9h8.7L307,421.5z M319.2,440.4h12.1v-6h-12.1v-6.8
		h12.8v-6.1h-20.2v32.9h20.9v-6.1h-13.5V440.4z M356.8,438.9v-0.1c2.8-1,5.8-3.9,5.8-8c0-3-1.1-5.3-3.1-6.9
		c-2.3-1.9-5.8-2.6-10.6-2.6c-4,0-7.5,0.3-9.9,0.7v32.4h7.4v-12.9h2.2c3.1,0,4.5,1.1,5.4,5.3c0.9,4,1.8,6.7,2.2,7.7h7.6
		c-0.6-1.3-1.6-5.6-2.6-9.3C360.4,442,359.1,439.9,356.8,438.9z M349.3,436.1h-2.9v-9c0.5-0.1,1.6-0.2,3.4-0.2
		c3.4,0,5.5,1.6,5.5,4.5C355.2,434.2,353,436.1,349.3,436.1z M382,434.8c-4.3-1.7-6.1-2.6-6.1-4.7c0-1.7,1.6-3.2,4.8-3.2
		c3.2,0,5.6,0.9,6.8,1.6l1.7-6c-2-0.9-4.6-1.7-8.4-1.7c-7.7,0-12.4,4.2-12.4,9.9c0,4.8,3.6,7.9,9.1,9.8c4,1.4,5.5,2.6,5.5,4.6
		c0,2.2-1.8,3.6-5.2,3.6c-3.2,0-6.3-1-8.2-2l-1.5,6.1c1.9,1,5.6,2,9.3,2c9,0,13.2-4.7,13.2-10.2C390.5,440,387.8,437,382,434.8z
		 M396.8,454.4h7.4v-32.9h-7.4V454.4z M409.4,427.7h8.9v26.6h7.4v-26.6h9v-6.2h-25.3V427.7z M458.9,421.5l-3.3,7.9
		c-1,2.3-1.8,4.2-2.5,6.3h-0.1c-0.8-2.1-1.5-3.9-2.5-6.3l-3.3-7.9h-8.5l10.4,19.4v13.5h7.4v-13.7l10.8-19.2H458.9z M197.2,467
		c-1.6,2.1-3.2,5.3-3.3,10.2c0,4.9,1.7,8,3.3,10.1h1.7c-1.7-2.5-3.1-5.6-3.1-10.1c0-4.5,1.3-7.7,3.1-10.2H197.2z M210,468h-2.4
		l-7.2,10.4v1.4h7.5v4.4h2.1v-4.4h2.3v-1.7H210V468z M207.9,472.7v5.4h-5.3v-0.1l4-5.5c0.4-0.8,0.8-1.5,1.3-2.4h0.1
		C207.9,471,207.9,471.9,207.9,472.7z M220,467.8c-3.3,0-5.5,2.7-5.5,5.7c0,2.8,1.9,5,4.8,5c1.6,0,2.9-0.6,3.8-1.7h0.1
		c-0.3,1.9-1.1,3.3-2.1,4.3c-0.9,0.9-2.1,1.4-3.4,1.6c-0.7,0.1-1.3,0.1-1.8,0.1v1.8c0.5,0,1.2,0,2-0.1c1.7-0.2,3.5-1,4.7-2.2
		c1.6-1.6,2.8-4.1,2.8-7.6C225.3,470.4,223.3,467.8,220,467.8z M222.9,475.1c-0.6,1-1.7,1.7-3.2,1.7c-1.9,0-3.1-1.4-3.1-3.4
		c0-2.3,1.3-3.9,3.2-3.9h0c2.3,0,3.3,2.1,3.3,4.9C223.1,474.7,223,474.9,222.9,475.1z M233.9,473.5c-1.8,0-3.2,0.8-3.9,1.9h-0.1
		c0.4-2.7,2.2-5.2,5.6-5.7c0.6-0.1,1.2-0.1,1.6-0.1v-1.8c-0.4,0-0.9,0-1.6,0.1c-2,0.2-3.8,1.1-5.2,2.4c-1.6,1.6-2.7,4.1-2.7,7.3
		c0,4.2,2.3,6.9,5.7,6.9c3.4,0,5.4-2.7,5.4-5.7C238.8,475.6,236.7,473.5,233.9,473.5z M233.4,482.8L233.4,482.8
		c-2.3,0-3.6-2-3.6-4.7c0-0.4,0.1-0.7,0.2-0.9c0.6-1.2,1.8-2,3.2-2c2,0,3.3,1.4,3.3,3.7C236.5,481.2,235.3,482.8,233.4,482.8z
		 M241.6,469.9h7.9v0.1l-7,14.3h2.2l7-14.7V468h-10.2V469.9z M263.5,468h-2.4l-7.2,10.4v1.4h7.5v4.4h2.1v-4.4h2.3v-1.7h-2.3V468z
		 M261.5,472.7v5.4h-5.3v-0.1l4-5.5c0.4-0.8,0.8-1.5,1.3-2.4h0.1C261.5,471,261.5,471.9,261.5,472.7z M269.6,469.9l0.4,1.7l2.8-1.5
		h0v14.1h2.1V468h-1.9L269.6,469.9z M281.1,478.3h6.1v-1.6h-6.1V478.3z M294.7,467.3c-1.7,0-3.1,0.1-4.2,0.3v16.5h2.2v-6.7
		c0.5,0.1,1.1,0.1,1.7,0.1c2.1,0,4-0.6,5.1-1.8c0.9-0.9,1.3-2.1,1.3-3.6c0-1.5-0.6-2.7-1.5-3.5C298.4,467.8,296.8,467.3,294.7,467.3
		z M294.5,475.9c-0.7,0-1.3-0.1-1.8-0.2v-6.5c0.4-0.1,1.1-0.2,2-0.2c2.4,0,4,1.1,4,3.3C298.7,474.6,297.1,475.9,294.5,475.9z
		 M303,467c1.8,2.5,3.1,5.6,3.1,10.1c0,4.5-1.4,7.7-3.1,10.2h1.7c1.6-2.1,3.2-5.3,3.3-10.2c0-4.9-1.7-8.1-3.3-10.1H303z"/>
</g>
</svg>
