<svg width="180" height="433" viewBox="0 0 180 433" fill="none" xmlns="http://www.w3.org/2000/svg">
<g clip-path="url(#clip0)">
<path d="M42.14 3.85C42.14 4.61146 41.9142 5.35582 41.4912 5.98895C41.0681 6.62207 40.4668 7.11554 39.7633 7.40694C39.0598 7.69833 38.2857 7.77458 37.5389 7.62602C36.7921 7.47747 36.1061 7.11079 35.5676 6.57236C35.0292 6.03393 34.6625 5.34792 34.514 4.6011C34.3654 3.85427 34.4417 3.08016 34.7331 2.37667C35.0245 1.67317 35.5179 1.07189 36.1511 0.648842C36.7842 0.225798 37.5285 0 38.29 0C39.3111 0 40.2903 0.405625 41.0124 1.12764C41.7344 1.84965 42.14 2.82892 42.14 3.85V3.85Z" fill="#001B7A"/>
<path d="M111.03 3.85C111.03 4.61146 110.804 5.35582 110.381 5.98895C109.958 6.62207 109.357 7.11554 108.653 7.40694C107.95 7.69833 107.176 7.77458 106.429 7.62602C105.682 7.47747 104.996 7.11079 104.458 6.57236C103.919 6.03393 103.553 5.34792 103.404 4.6011C103.255 3.85427 103.332 3.08016 103.623 2.37667C103.914 1.67317 104.408 1.07189 105.041 0.648842C105.674 0.225798 106.419 0 107.18 0C108.201 0 109.18 0.405625 109.902 1.12764C110.624 1.84965 111.03 2.82892 111.03 3.85Z" fill="#001B7A"/>
<path d="M179.92 3.85C179.92 4.61146 179.694 5.35582 179.271 5.98895C178.848 6.62207 178.247 7.11554 177.543 7.40694C176.84 7.69833 176.066 7.77458 175.319 7.62602C174.572 7.47747 173.886 7.11079 173.348 6.57236C172.809 6.03393 172.443 5.34792 172.294 4.6011C172.145 3.85427 172.222 3.08016 172.513 2.37667C172.804 1.67317 173.298 1.07189 173.931 0.648842C174.564 0.225798 175.309 0 176.07 0C176.576 0 177.076 0.0995835 177.543 0.293064C178.01 0.486545 178.435 0.770134 178.792 1.12764C179.15 1.48515 179.433 1.90957 179.627 2.37667C179.82 2.84377 179.92 3.34441 179.92 3.85Z" fill="#001B7A"/>
<path d="M7.7 3.84996C7.69996 4.60971 7.47514 5.35246 7.05383 5.98469C6.63253 6.61693 6.03359 7.11038 5.33243 7.40291C4.63126 7.69545 3.85921 7.77399 3.1135 7.62865C2.36778 7.48331 1.68174 7.12059 1.14175 6.58615C0.601755 6.05171 0.231959 5.36945 0.0789193 4.62528C-0.0741202 3.88111 -0.0035609 3.10829 0.281712 2.40414C0.566986 1.69998 1.05422 1.09597 1.68206 0.668161C2.30991 0.240348 3.0503 0.00785714 3.81 -3.63275e-05C4.31895 -0.00532436 4.82389 0.0903556 5.29562 0.281467C5.76735 0.472579 6.19651 0.75533 6.55826 1.11336C6.92001 1.4714 7.20718 1.8976 7.40316 2.36733C7.59914 2.83706 7.70003 3.34099 7.7 3.84996Z" fill="#001B7A"/>
<path d="M76.59 3.85C76.59 4.61146 76.3642 5.35582 75.9412 5.98895C75.5181 6.62207 74.9168 7.11554 74.2133 7.40694C73.5098 7.69833 72.7357 7.77458 71.9889 7.62602C71.2421 7.47747 70.5561 7.11079 70.0177 6.57236C69.4792 6.03393 69.1125 5.34792 68.964 4.6011C68.8154 3.85427 68.8917 3.08016 69.1831 2.37667C69.4745 1.67317 69.9679 1.07189 70.6011 0.648842C71.2342 0.225798 71.9786 0 72.74 0C73.7611 0 74.7404 0.405625 75.4624 1.12764C76.1844 1.84965 76.59 2.82892 76.59 3.85V3.85Z" fill="#001B7A"/>
<path d="M145.48 3.85001C145.482 4.6143 145.257 5.36197 144.834 5.99827C144.41 6.63457 143.808 7.13087 143.102 7.42426C142.396 7.71765 141.619 7.79494 140.869 7.64632C140.12 7.4977 139.431 7.12986 138.891 6.58943C138.35 6.049 137.982 5.3603 137.834 4.6106C137.685 3.8609 137.762 3.08396 138.056 2.37823C138.349 1.6725 138.845 1.06975 139.482 0.646371C140.118 0.222991 140.866 -0.00196453 141.63 1.29258e-05C142.651 1.29258e-05 143.63 0.405638 144.352 1.12765C145.074 1.84967 145.48 2.82893 145.48 3.85001Z" fill="#001B7A"/>
<path d="M38.3 40.3801C40.4263 40.3801 42.15 38.6563 42.15 36.5301C42.15 34.4038 40.4263 32.6801 38.3 32.6801C36.1737 32.6801 34.45 34.4038 34.45 36.5301C34.45 38.6563 36.1737 40.3801 38.3 40.3801Z" fill="#001B7A"/>
<path d="M111.03 36.5301C111.03 37.2915 110.804 38.0359 110.381 38.669C109.958 39.3021 109.357 39.7956 108.653 40.087C107.95 40.3784 107.176 40.4546 106.429 40.3061C105.682 40.1575 104.996 39.7908 104.458 39.2524C103.919 38.714 103.553 38.028 103.404 37.2812C103.255 36.5343 103.332 35.7602 103.623 35.0567C103.914 34.3532 104.408 33.7519 105.041 33.3289C105.674 32.9059 106.419 32.6801 107.18 32.6801C107.686 32.6801 108.186 32.7796 108.653 32.9731C109.12 33.1666 109.545 33.4502 109.902 33.8077C110.26 34.1652 110.543 34.5896 110.737 35.0567C110.93 35.5238 111.03 36.0245 111.03 36.5301V36.5301Z" fill="#001B7A"/>
<path d="M179.92 36.5301C179.92 37.2915 179.694 38.0359 179.271 38.669C178.848 39.3021 178.247 39.7956 177.543 40.087C176.84 40.3784 176.066 40.4546 175.319 40.3061C174.572 40.1575 173.886 39.7908 173.348 39.2524C172.809 38.714 172.443 38.028 172.294 37.2812C172.145 36.5343 172.222 35.7602 172.513 35.0567C172.804 34.3532 173.298 33.7519 173.931 33.3289C174.564 32.9059 175.309 32.6801 176.07 32.6801C176.576 32.6801 177.076 32.7796 177.543 32.9731C178.01 33.1666 178.435 33.4502 178.792 33.8077C179.15 34.1652 179.433 34.5896 179.627 35.0567C179.82 35.5238 179.92 36.0245 179.92 36.5301V36.5301Z" fill="#001B7A"/>
<path d="M7.7 36.53C7.69996 37.2898 7.47514 38.0325 7.05383 38.6647C6.63253 39.297 6.03359 39.7904 5.33243 40.083C4.63126 40.3755 3.85921 40.454 3.1135 40.3087C2.36778 40.1634 1.68174 39.8006 1.14175 39.2662C0.601755 38.7318 0.231959 38.0495 0.0789193 37.3053C-0.0741202 36.5612 -0.0035609 35.7883 0.281712 35.0842C0.566986 34.38 1.05422 33.776 1.68206 33.3482C2.30991 32.9204 3.0503 32.6879 3.81 32.68C4.31895 32.6747 4.82389 32.7704 5.29562 32.9615C5.76735 33.1526 6.19651 33.4354 6.55826 33.7934C6.92001 34.1515 7.20718 34.5777 7.40316 35.0474C7.59914 35.5171 7.70003 36.021 7.7 36.53Z" fill="#001B7A"/>
<path d="M76.59 36.5301C76.59 37.2915 76.3642 38.0359 75.9412 38.669C75.5181 39.3021 74.9168 39.7956 74.2133 40.087C73.5098 40.3784 72.7357 40.4546 71.9889 40.3061C71.2421 40.1575 70.5561 39.7908 70.0177 39.2524C69.4792 38.714 69.1125 38.028 68.964 37.2812C68.8154 36.5343 68.8917 35.7602 69.1831 35.0567C69.4745 34.3532 69.9679 33.7519 70.6011 33.3289C71.2342 32.9059 71.9786 32.6801 72.74 32.6801C73.2456 32.6801 73.7462 32.7796 74.2133 32.9731C74.6804 33.1666 75.1049 33.4502 75.4624 33.8077C75.8199 34.1652 76.1035 34.5896 76.297 35.0567C76.4904 35.5238 76.59 36.0245 76.59 36.5301V36.5301Z" fill="#001B7A"/>
<path d="M145.48 36.5299C145.482 37.2942 145.257 38.0419 144.834 38.6782C144.41 39.3145 143.808 39.8108 143.102 40.1042C142.396 40.3976 141.619 40.4749 140.869 40.3262C140.12 40.1776 139.431 39.8098 138.891 39.2694C138.35 38.7289 137.982 38.0402 137.834 37.2905C137.685 36.5408 137.762 35.7639 138.056 35.0582C138.349 34.3524 138.845 33.7497 139.482 33.3263C140.118 32.9029 140.866 32.678 141.63 32.6799C142.136 32.6799 142.636 32.7795 143.103 32.973C143.57 33.1665 143.995 33.4501 144.352 33.8076C144.71 34.1651 144.993 34.5895 145.187 35.0566C145.38 35.5237 145.48 36.0244 145.48 36.5299V36.5299Z" fill="#001B7A"/>
<path d="M42.14 69.21C42.14 69.9714 41.9142 70.7158 41.4912 71.3489C41.0681 71.9821 40.4668 72.4755 39.7633 72.7669C39.0598 73.0583 38.2857 73.1346 37.5389 72.986C36.7921 72.8375 36.1061 72.4708 35.5676 71.9323C35.0292 71.3939 34.6625 70.7079 34.514 69.9611C34.3654 69.2143 34.4417 68.4402 34.7331 67.7367C35.0245 67.0332 35.5179 66.4319 36.1511 66.0088C36.7842 65.5858 37.5285 65.36 38.29 65.36C39.3111 65.36 40.2903 65.7656 41.0124 66.4876C41.7344 67.2096 42.14 68.1889 42.14 69.21V69.21Z" fill="#001B7A"/>
<path d="M111.03 69.21C111.03 69.9714 110.804 70.7158 110.381 71.3489C109.958 71.9821 109.357 72.4755 108.653 72.7669C107.95 73.0583 107.176 73.1346 106.429 72.986C105.682 72.8375 104.996 72.4708 104.458 71.9323C103.919 71.3939 103.553 70.7079 103.404 69.9611C103.255 69.2143 103.332 68.4402 103.623 67.7367C103.914 67.0332 104.408 66.4319 105.041 66.0088C105.674 65.5858 106.419 65.36 107.18 65.36C108.201 65.36 109.18 65.7656 109.902 66.4876C110.624 67.2096 111.03 68.1889 111.03 69.21Z" fill="#001B7A"/>
<path d="M178.803 71.9268C180.306 70.4233 180.306 67.9856 178.803 66.4821C177.299 64.9786 174.861 64.9786 173.358 66.4821C171.854 67.9856 171.854 70.4233 173.358 71.9268C174.861 73.4303 177.299 73.4304 178.803 71.9268Z" fill="#001B7A"/>
<path d="M6.57458 71.9248C8.0781 70.4212 8.0781 67.9835 6.57458 66.48C5.07106 64.9765 2.63338 64.9765 1.12986 66.48C-0.373656 67.9835 -0.373657 70.4212 1.12986 71.9248C2.63338 73.4283 5.07106 73.4283 6.57458 71.9248Z" fill="#001B7A"/>
<path d="M76.59 69.21C76.59 69.9714 76.3642 70.7158 75.9412 71.3489C75.5181 71.9821 74.9168 72.4755 74.2133 72.7669C73.5098 73.0583 72.7357 73.1346 71.9889 72.986C71.2421 72.8375 70.5561 72.4708 70.0177 71.9323C69.4792 71.3939 69.1125 70.7079 68.964 69.9611C68.8154 69.2143 68.8917 68.4402 69.1831 67.7367C69.4745 67.0332 69.9679 66.4319 70.6011 66.0088C71.2342 65.5858 71.9786 65.36 72.74 65.36C73.7603 65.3626 74.738 65.7691 75.4595 66.4905C76.1809 67.212 76.5874 68.1897 76.59 69.21Z" fill="#001B7A"/>
<path d="M145.48 69.21C145.482 69.9743 145.257 70.7219 144.834 71.3583C144.41 71.9946 143.808 72.4909 143.102 72.7842C142.396 73.0776 141.619 73.1549 140.869 73.0063C140.12 72.8577 139.431 72.4898 138.891 71.9494C138.35 71.409 137.982 70.7203 137.834 69.9706C137.685 69.2209 137.762 68.4439 138.056 67.7382C138.349 67.0325 138.845 66.4297 139.482 66.0064C140.118 65.583 140.866 65.358 141.63 65.36C142.65 65.3626 143.628 65.7691 144.349 66.4906C145.071 67.212 145.477 68.1897 145.48 69.21Z" fill="#001B7A"/>
<path d="M42.14 101.88C42.1341 102.64 41.9033 103.382 41.4766 104.011C41.05 104.64 40.4467 105.129 39.7427 105.415C39.0387 105.702 38.2655 105.774 37.5207 105.622C36.7758 105.47 36.0927 105.101 35.5572 104.562C35.0218 104.022 34.6581 103.336 34.5119 102.59C34.3658 101.844 34.4438 101.072 34.736 100.37C35.0283 99.6681 35.5218 99.0686 36.1542 98.6468C36.7867 98.2251 37.5298 98 38.29 98C38.7981 98 39.3012 98.1006 39.7703 98.2959C40.2394 98.4913 40.6651 98.7775 41.023 99.1382C41.3809 99.4989 41.6639 99.9269 41.8556 100.397C42.0473 100.868 42.144 101.372 42.14 101.88Z" fill="#001B7A"/>
<path d="M111.03 101.88C111.03 102.641 110.804 103.386 110.381 104.019C109.958 104.652 109.357 105.146 108.653 105.437C107.95 105.728 107.176 105.805 106.429 105.656C105.682 105.507 104.996 105.141 104.458 104.602C103.919 104.064 103.553 103.378 103.404 102.631C103.255 101.884 103.332 101.11 103.623 100.407C103.914 99.7032 104.408 99.1019 105.041 98.6789C105.674 98.2558 106.419 98.03 107.18 98.03C108.201 98.03 109.18 98.4357 109.902 99.1577C110.624 99.8797 111.03 100.859 111.03 101.88Z" fill="#001B7A"/>
<path d="M179.92 101.88C179.92 102.641 179.694 103.386 179.271 104.019C178.848 104.652 178.247 105.146 177.543 105.437C176.84 105.728 176.066 105.805 175.319 105.656C174.572 105.507 173.886 105.141 173.348 104.602C172.809 104.064 172.443 103.378 172.294 102.631C172.145 101.884 172.222 101.11 172.513 100.407C172.804 99.7032 173.298 99.1019 173.931 98.6789C174.564 98.2558 175.309 98.03 176.07 98.03C177.091 98.03 178.07 98.4357 178.792 99.1577C179.514 99.8797 179.92 100.859 179.92 101.88Z" fill="#001B7A"/>
<path d="M7.7 101.88C7.69405 102.638 7.46421 103.378 7.03933 104.007C6.61445 104.635 6.01346 105.124 5.31178 105.412C4.6101 105.699 3.83901 105.774 3.09526 105.625C2.35152 105.476 1.66827 105.111 1.13127 104.576C0.594264 104.04 0.22743 103.358 0.0768063 102.614C-0.0738176 101.871 -0.00152117 101.1 0.284623 100.397C0.570768 99.6949 1.05801 99.0926 1.6852 98.6661C2.31239 98.2396 3.05158 98.0079 3.81 98C4.32111 97.996 4.82792 98.0936 5.30102 98.287C5.77412 98.4805 6.20409 98.766 6.56597 99.1269C6.92786 99.4879 7.21445 99.9171 7.40913 100.39C7.6038 100.862 7.70267 101.369 7.7 101.88V101.88Z" fill="#001B7A"/>
<path d="M76.59 101.88C76.59 102.641 76.3642 103.386 75.9412 104.019C75.5181 104.652 74.9168 105.146 74.2133 105.437C73.5098 105.728 72.7357 105.805 71.9889 105.656C71.2421 105.507 70.5561 105.141 70.0177 104.602C69.4792 104.064 69.1125 103.378 68.964 102.631C68.8154 101.884 68.8917 101.11 69.1831 100.407C69.4745 99.7032 69.9679 99.1019 70.6011 98.6789C71.2342 98.2558 71.9786 98.03 72.74 98.03C73.7603 98.0327 74.738 98.4391 75.4595 99.1606C76.1809 99.882 76.5874 100.86 76.59 101.88Z" fill="#001B7A"/>
<path d="M145.48 101.88C145.482 102.644 145.257 103.392 144.834 104.028C144.41 104.665 143.808 105.161 143.102 105.454C142.396 105.748 141.619 105.825 140.869 105.676C140.12 105.528 139.431 105.16 138.891 104.619C138.35 104.079 137.982 103.39 137.834 102.641C137.685 101.891 137.762 101.114 138.056 100.408C138.349 99.7025 138.845 99.0998 139.482 98.6764C140.118 98.253 140.866 98.0281 141.63 98.03C142.65 98.0327 143.628 98.4392 144.349 99.1606C145.071 99.882 145.477 100.86 145.48 101.88Z" fill="#001B7A"/>
<path d="M42.14 134.56C42.14 135.321 41.9142 136.066 41.4912 136.699C41.0681 137.332 40.4668 137.826 39.7633 138.117C39.0598 138.408 38.2857 138.485 37.5389 138.336C36.7921 138.187 36.1061 137.821 35.5676 137.282C35.0292 136.744 34.6625 136.058 34.514 135.311C34.3654 134.564 34.4417 133.79 34.7331 133.087C35.0245 132.383 35.5179 131.782 36.1511 131.359C36.7842 130.936 37.5285 130.71 38.29 130.71C39.3111 130.71 40.2903 131.116 41.0124 131.838C41.7344 132.56 42.14 133.539 42.14 134.56V134.56Z" fill="#001B7A"/>
<path d="M111.03 134.56C111.03 135.321 110.804 136.066 110.381 136.699C109.958 137.332 109.357 137.826 108.653 138.117C107.95 138.408 107.176 138.485 106.429 138.336C105.682 138.187 104.996 137.821 104.458 137.282C103.919 136.744 103.553 136.058 103.404 135.311C103.255 134.564 103.332 133.79 103.623 133.087C103.914 132.383 104.408 131.782 105.041 131.359C105.674 130.936 106.419 130.71 107.18 130.71C108.201 130.71 109.18 131.116 109.902 131.838C110.624 132.56 111.03 133.539 111.03 134.56Z" fill="#001B7A"/>
<path d="M178.792 137.286C180.295 135.783 180.295 133.345 178.792 131.842C177.288 130.338 174.851 130.338 173.347 131.842C171.844 133.345 171.844 135.783 173.347 137.286C174.851 138.79 177.288 138.79 178.792 137.286Z" fill="#001B7A"/>
<path d="M7.7 134.56C7.69996 135.32 7.47514 136.063 7.05383 136.695C6.63253 137.327 6.03359 137.82 5.33243 138.113C4.63126 138.406 3.85921 138.484 3.1135 138.339C2.36778 138.193 1.68174 137.831 1.14175 137.296C0.601755 136.762 0.231959 136.08 0.0789193 135.335C-0.0741202 134.591 -0.0035609 133.818 0.281712 133.114C0.566986 132.41 1.05422 131.806 1.68206 131.378C2.30991 130.95 3.0503 130.718 3.81 130.71C4.31895 130.705 4.82389 130.8 5.29562 130.992C5.76735 131.183 6.19651 131.465 6.55826 131.823C6.92001 132.181 7.20718 132.608 7.40316 133.077C7.59914 133.547 7.70003 134.051 7.7 134.56V134.56Z" fill="#001B7A"/>
<path d="M76.59 134.56C76.59 135.321 76.3642 136.066 75.9412 136.699C75.5181 137.332 74.9168 137.826 74.2133 138.117C73.5098 138.408 72.7357 138.485 71.9889 138.336C71.2421 138.187 70.5561 137.821 70.0177 137.282C69.4792 136.744 69.1125 136.058 68.964 135.311C68.8154 134.564 68.8917 133.79 69.1831 133.087C69.4745 132.383 69.9679 131.782 70.6011 131.359C71.2342 130.936 71.9786 130.71 72.74 130.71C73.7611 130.71 74.7404 131.116 75.4624 131.838C76.1844 132.56 76.59 133.539 76.59 134.56V134.56Z" fill="#001B7A"/>
<path d="M145.48 134.56C145.482 135.324 145.257 136.072 144.834 136.708C144.41 137.345 143.808 137.841 143.102 138.134C142.396 138.428 141.619 138.505 140.869 138.356C140.12 138.208 139.431 137.84 138.891 137.299C138.35 136.759 137.982 136.07 137.834 135.321C137.685 134.571 137.762 133.794 138.056 133.088C138.349 132.382 138.845 131.78 139.482 131.356C140.118 130.933 140.866 130.708 141.63 130.71C142.651 130.71 143.63 131.116 144.352 131.838C145.074 132.56 145.48 133.539 145.48 134.56Z" fill="#001B7A"/>
<path d="M42.14 167.24C42.14 168.001 41.9142 168.746 41.4912 169.379C41.0681 170.012 40.4668 170.506 39.7633 170.797C39.0598 171.088 38.2857 171.165 37.5389 171.016C36.7921 170.867 36.1061 170.501 35.5676 169.962C35.0292 169.424 34.6625 168.738 34.514 167.991C34.3654 167.244 34.4417 166.47 34.7331 165.767C35.0245 165.063 35.5179 164.462 36.1511 164.039C36.7842 163.616 37.5285 163.39 38.29 163.39C39.3111 163.39 40.2903 163.796 41.0124 164.518C41.7344 165.24 42.14 166.219 42.14 167.24V167.24Z" fill="#001B7A"/>
<path d="M111.03 167.24C111.03 168.001 110.804 168.746 110.381 169.379C109.958 170.012 109.357 170.506 108.653 170.797C107.95 171.088 107.176 171.165 106.429 171.016C105.682 170.867 104.996 170.501 104.458 169.962C103.919 169.424 103.553 168.738 103.404 167.991C103.255 167.244 103.332 166.47 103.623 165.767C103.914 165.063 104.408 164.462 105.041 164.039C105.674 163.616 106.419 163.39 107.18 163.39C108.201 163.39 109.18 163.796 109.902 164.518C110.624 165.24 111.03 166.219 111.03 167.24Z" fill="#001B7A"/>
<path d="M179.92 167.24C179.92 168.001 179.694 168.746 179.271 169.379C178.848 170.012 178.247 170.506 177.543 170.797C176.84 171.088 176.066 171.165 175.319 171.016C174.572 170.867 173.886 170.501 173.348 169.962C172.809 169.424 172.443 168.738 172.294 167.991C172.145 167.244 172.222 166.47 172.513 165.767C172.804 165.063 173.298 164.462 173.931 164.039C174.564 163.616 175.309 163.39 176.07 163.39C177.091 163.39 178.07 163.796 178.792 164.518C179.514 165.24 179.92 166.219 179.92 167.24Z" fill="#001B7A"/>
<path d="M6.54579 169.985C8.07119 168.504 8.10693 166.066 6.62561 164.541C5.1443 163.016 2.70687 162.98 1.18147 164.461C-0.343925 165.942 -0.379658 168.38 1.10166 169.905C2.58297 171.431 5.02039 171.466 6.54579 169.985Z" fill="#001B7A"/>
<path d="M72.74 171.09C74.8663 171.09 76.59 169.366 76.59 167.24C76.59 165.114 74.8663 163.39 72.74 163.39C70.6137 163.39 68.89 165.114 68.89 167.24C68.89 169.366 70.6137 171.09 72.74 171.09Z" fill="#001B7A"/>
<path d="M145.48 167.24C145.482 168.004 145.257 168.752 144.834 169.388C144.41 170.025 143.808 170.521 143.102 170.814C142.396 171.108 141.619 171.185 140.869 171.036C140.12 170.888 139.431 170.52 138.891 169.979C138.35 169.439 137.982 168.75 137.834 168.001C137.685 167.251 137.762 166.474 138.056 165.768C138.349 165.063 138.845 164.46 139.482 164.036C140.118 163.613 140.866 163.388 141.63 163.39C142.651 163.39 143.63 163.796 144.352 164.518C145.074 165.24 145.48 166.219 145.48 167.24Z" fill="#001B7A"/>
<path d="M38.3 203.77C40.4263 203.77 42.15 202.046 42.15 199.92C42.15 197.794 40.4263 196.07 38.3 196.07C36.1737 196.07 34.45 197.794 34.45 199.92C34.45 202.046 36.1737 203.77 38.3 203.77Z" fill="#001B7A"/>
<path d="M111.03 199.92C111.03 200.682 110.804 201.426 110.381 202.059C109.958 202.692 109.357 203.186 108.653 203.477C107.95 203.768 107.176 203.845 106.429 203.696C105.682 203.548 104.996 203.181 104.458 202.642C103.919 202.104 103.553 201.418 103.404 200.671C103.255 199.924 103.332 199.15 103.623 198.447C103.914 197.743 104.408 197.142 105.041 196.719C105.674 196.296 106.419 196.07 107.18 196.07C108.201 196.07 109.18 196.476 109.902 197.198C110.624 197.92 111.03 198.899 111.03 199.92Z" fill="#001B7A"/>
<path d="M179.92 199.92C179.92 200.682 179.694 201.426 179.271 202.059C178.848 202.692 178.247 203.186 177.543 203.477C176.84 203.768 176.066 203.845 175.319 203.696C174.572 203.548 173.886 203.181 173.348 202.642C172.809 202.104 172.443 201.418 172.294 200.671C172.145 199.924 172.222 199.15 172.513 198.447C172.804 197.743 173.298 197.142 173.931 196.719C174.564 196.296 175.309 196.07 176.07 196.07C177.091 196.07 178.07 196.476 178.792 197.198C179.514 197.92 179.92 198.899 179.92 199.92Z" fill="#001B7A"/>
<path d="M7.7 199.92C7.69996 200.68 7.47514 201.422 7.05383 202.055C6.63253 202.687 6.03359 203.18 5.33243 203.473C4.63126 203.765 3.85921 203.844 3.1135 203.699C2.36778 203.553 1.68174 203.191 1.14175 202.656C0.601755 202.122 0.231959 201.439 0.0789193 200.695C-0.0741202 199.951 -0.0035609 199.178 0.281712 198.474C0.566986 197.77 1.05422 197.166 1.68206 196.738C2.30991 196.31 3.0503 196.078 3.81 196.07C4.31858 196.066 4.82293 196.163 5.29406 196.354C5.7652 196.546 6.19382 196.829 6.55531 197.186C6.91679 197.544 7.20401 197.97 7.40046 198.439C7.5969 198.908 7.6987 199.411 7.7 199.92V199.92Z" fill="#001B7A"/>
<path d="M72.74 203.77C74.8663 203.77 76.59 202.046 76.59 199.92C76.59 197.794 74.8663 196.07 72.74 196.07C70.6137 196.07 68.89 197.794 68.89 199.92C68.89 202.046 70.6137 203.77 72.74 203.77Z" fill="#001B7A"/>
<path d="M145.48 199.92C145.482 200.684 145.257 201.432 144.834 202.068C144.41 202.705 143.808 203.201 143.102 203.494C142.396 203.788 141.619 203.865 140.869 203.716C140.12 203.568 139.431 203.2 138.891 202.659C138.35 202.119 137.982 201.43 137.834 200.681C137.685 199.931 137.762 199.154 138.056 198.448C138.349 197.742 138.845 197.14 139.482 196.716C140.118 196.293 140.866 196.068 141.63 196.07C142.65 196.073 143.628 196.479 144.349 197.201C145.071 197.922 145.477 198.9 145.48 199.92Z" fill="#001B7A"/>
<path d="M42.14 232.59C42.14 233.351 41.9142 234.096 41.4912 234.729C41.0681 235.362 40.4668 235.856 39.7633 236.147C39.0598 236.438 38.2857 236.515 37.5389 236.366C36.7921 236.217 36.1061 235.851 35.5676 235.312C35.0292 234.774 34.6625 234.088 34.514 233.341C34.3654 232.594 34.4417 231.82 34.7331 231.117C35.0245 230.413 35.5179 229.812 36.1511 229.389C36.7842 228.966 37.5285 228.74 38.29 228.74C39.3111 228.74 40.2903 229.146 41.0124 229.868C41.7344 230.59 42.14 231.569 42.14 232.59V232.59Z" fill="#001B7A"/>
<path d="M111.03 232.59C111.03 233.351 110.804 234.096 110.381 234.729C109.958 235.362 109.357 235.856 108.653 236.147C107.95 236.438 107.176 236.515 106.429 236.366C105.682 236.217 104.996 235.851 104.458 235.312C103.919 234.774 103.553 234.088 103.404 233.341C103.255 232.594 103.332 231.82 103.623 231.117C103.914 230.413 104.408 229.812 105.041 229.389C105.674 228.966 106.419 228.74 107.18 228.74C108.201 228.74 109.18 229.146 109.902 229.868C110.624 230.59 111.03 231.569 111.03 232.59Z" fill="#001B7A"/>
<path d="M179.92 232.59C179.92 233.351 179.694 234.096 179.271 234.729C178.848 235.362 178.247 235.856 177.543 236.147C176.84 236.438 176.066 236.515 175.319 236.366C174.572 236.217 173.886 235.851 173.348 235.312C172.809 234.774 172.443 234.088 172.294 233.341C172.145 232.594 172.222 231.82 172.513 231.117C172.804 230.413 173.298 229.812 173.931 229.389C174.564 228.966 175.309 228.74 176.07 228.74C177.091 228.74 178.07 229.146 178.792 229.868C179.514 230.59 179.92 231.569 179.92 232.59Z" fill="#001B7A"/>
<path d="M7.7 232.59C7.69996 233.35 7.47514 234.092 7.05383 234.725C6.63253 235.357 6.03359 235.85 5.33243 236.143C4.63126 236.435 3.85921 236.514 3.1135 236.369C2.36778 236.223 1.68174 235.861 1.14175 235.326C0.601755 234.792 0.231959 234.109 0.0789193 233.365C-0.0741202 232.621 -0.0035609 231.848 0.281712 231.144C0.566986 230.44 1.05422 229.836 1.68206 229.408C2.30991 228.98 3.0503 228.748 3.81 228.74C4.31858 228.736 4.82293 228.833 5.29406 229.024C5.7652 229.216 6.19382 229.499 6.55531 229.856C6.91679 230.214 7.20401 230.64 7.40046 231.109C7.5969 231.578 7.6987 232.081 7.7 232.59V232.59Z" fill="#001B7A"/>
<path d="M76.59 232.59C76.59 233.351 76.3642 234.096 75.9412 234.729C75.5181 235.362 74.9168 235.856 74.2133 236.147C73.5098 236.438 72.7357 236.515 71.9889 236.366C71.2421 236.217 70.5561 235.851 70.0177 235.312C69.4792 234.774 69.1125 234.088 68.964 233.341C68.8154 232.594 68.8917 231.82 69.1831 231.117C69.4745 230.413 69.9679 229.812 70.6011 229.389C71.2342 228.966 71.9786 228.74 72.74 228.74C73.7603 228.743 74.738 229.149 75.4595 229.871C76.1809 230.592 76.5874 231.57 76.59 232.59Z" fill="#001B7A"/>
<path d="M145.48 232.59C145.482 233.354 145.257 234.102 144.834 234.738C144.41 235.375 143.808 235.871 143.102 236.164C142.396 236.458 141.619 236.535 140.869 236.386C140.12 236.238 139.431 235.87 138.891 235.329C138.35 234.789 137.982 234.1 137.834 233.351C137.685 232.601 137.762 231.824 138.056 231.118C138.349 230.412 138.845 229.81 139.482 229.386C140.118 228.963 140.866 228.738 141.63 228.74C142.65 228.743 143.628 229.149 144.349 229.871C145.071 230.592 145.477 231.57 145.48 232.59Z" fill="#001B7A"/>
<path d="M42.14 265.27C42.14 266.031 41.9142 266.776 41.4912 267.409C41.0681 268.042 40.4668 268.536 39.7633 268.827C39.0598 269.118 38.2857 269.195 37.5389 269.046C36.7921 268.897 36.1061 268.531 35.5676 267.992C35.0292 267.454 34.6625 266.768 34.514 266.021C34.3654 265.274 34.4417 264.5 34.7331 263.797C35.0245 263.093 35.5179 262.492 36.1511 262.069C36.7842 261.646 37.5285 261.42 38.29 261.42C39.3111 261.42 40.2903 261.826 41.0124 262.548C41.7344 263.27 42.14 264.249 42.14 265.27V265.27Z" fill="#001B7A"/>
<path d="M111.03 265.27C111.03 266.031 110.804 266.776 110.381 267.409C109.958 268.042 109.357 268.536 108.653 268.827C107.95 269.118 107.176 269.195 106.429 269.046C105.682 268.897 104.996 268.531 104.458 267.992C103.919 267.454 103.553 266.768 103.404 266.021C103.255 265.274 103.332 264.5 103.623 263.797C103.914 263.093 104.408 262.492 105.041 262.069C105.674 261.646 106.419 261.42 107.18 261.42C108.201 261.42 109.18 261.826 109.902 262.548C110.624 263.27 111.03 264.249 111.03 265.27Z" fill="#001B7A"/>
<path d="M179.92 265.27C179.92 266.031 179.694 266.776 179.271 267.409C178.848 268.042 178.247 268.536 177.543 268.827C176.84 269.118 176.066 269.195 175.319 269.046C174.572 268.897 173.886 268.531 173.348 267.992C172.809 267.454 172.443 266.768 172.294 266.021C172.145 265.274 172.222 264.5 172.513 263.797C172.804 263.093 173.298 262.492 173.931 262.069C174.564 261.646 175.309 261.42 176.07 261.42C177.091 261.42 178.07 261.826 178.792 262.548C179.514 263.27 179.92 264.249 179.92 265.27Z" fill="#001B7A"/>
<path d="M7.7 265.27C7.69996 266.03 7.47514 266.772 7.05383 267.405C6.63253 268.037 6.03359 268.53 5.33243 268.823C4.63126 269.115 3.85921 269.194 3.1135 269.049C2.36778 268.903 1.68174 268.541 1.14175 268.006C0.601755 267.472 0.231959 266.789 0.0789193 266.045C-0.0741202 265.301 -0.0035609 264.528 0.281712 263.824C0.566986 263.12 1.05422 262.516 1.68206 262.088C2.30991 261.66 3.0503 261.428 3.81 261.42C4.31895 261.415 4.82389 261.51 5.29562 261.702C5.76735 261.893 6.19651 262.175 6.55826 262.533C6.92001 262.891 7.20718 263.318 7.40316 263.787C7.59914 264.257 7.70003 264.761 7.7 265.27Z" fill="#001B7A"/>
<path d="M76.59 265.27C76.59 266.031 76.3642 266.776 75.9412 267.409C75.5181 268.042 74.9168 268.536 74.2133 268.827C73.5098 269.118 72.7357 269.195 71.9889 269.046C71.2421 268.897 70.5561 268.531 70.0177 267.992C69.4792 267.454 69.1125 266.768 68.964 266.021C68.8154 265.274 68.8917 264.5 69.1831 263.797C69.4745 263.093 69.9679 262.492 70.6011 262.069C71.2342 261.646 71.9786 261.42 72.74 261.42C73.7611 261.42 74.7404 261.826 75.4624 262.548C76.1844 263.27 76.59 264.249 76.59 265.27V265.27Z" fill="#001B7A"/>
<path d="M145.48 265.27C145.482 266.034 145.257 266.782 144.834 267.418C144.41 268.055 143.808 268.551 143.102 268.844C142.396 269.138 141.619 269.215 140.869 269.066C140.12 268.918 139.431 268.55 138.891 268.009C138.35 267.469 137.982 266.78 137.834 266.031C137.685 265.281 137.762 264.504 138.056 263.798C138.349 263.093 138.845 262.49 139.482 262.066C140.118 261.643 140.866 261.418 141.63 261.42C142.651 261.42 143.63 261.826 144.352 262.548C145.074 263.27 145.48 264.249 145.48 265.27Z" fill="#001B7A"/>
<path d="M38.3 301.8C40.4263 301.8 42.15 300.076 42.15 297.95C42.15 295.824 40.4263 294.1 38.3 294.1C36.1737 294.1 34.45 295.824 34.45 297.95C34.45 300.076 36.1737 301.8 38.3 301.8Z" fill="#001B7A"/>
<path d="M111.03 298C111.03 298.761 110.804 299.506 110.381 300.139C109.958 300.772 109.357 301.266 108.653 301.557C107.95 301.848 107.176 301.925 106.429 301.776C105.682 301.628 104.996 301.261 104.458 300.722C103.919 300.184 103.553 299.498 103.404 298.751C103.255 298.004 103.332 297.23 103.623 296.527C103.914 295.823 104.408 295.222 105.041 294.799C105.674 294.376 106.419 294.15 107.18 294.15C108.201 294.15 109.18 294.556 109.902 295.278C110.624 296 111.03 296.979 111.03 298Z" fill="#001B7A"/>
<path d="M179.92 298C179.92 298.761 179.694 299.506 179.271 300.139C178.848 300.772 178.247 301.266 177.543 301.557C176.84 301.848 176.066 301.925 175.319 301.776C174.572 301.628 173.886 301.261 173.348 300.722C172.809 300.184 172.443 299.498 172.294 298.751C172.145 298.004 172.222 297.23 172.513 296.527C172.804 295.823 173.298 295.222 173.931 294.799C174.564 294.376 175.309 294.15 176.07 294.15C177.091 294.15 178.07 294.556 178.792 295.278C179.514 296 179.92 296.979 179.92 298Z" fill="#001B7A"/>
<path d="M6.5782 300.668C8.08172 299.165 8.08174 296.727 6.57822 295.224C5.0747 293.72 2.63701 293.72 1.13349 295.224C-0.370024 296.727 -0.37002 299.165 1.1335 300.668C2.63702 302.172 5.07468 302.172 6.5782 300.668Z" fill="#001B7A"/>
<path d="M76.59 298C76.59 298.761 76.3642 299.506 75.9412 300.139C75.5181 300.772 74.9168 301.266 74.2133 301.557C73.5098 301.848 72.7357 301.925 71.9889 301.776C71.2421 301.628 70.5561 301.261 70.0177 300.722C69.4792 300.184 69.1125 299.498 68.964 298.751C68.8154 298.004 68.8917 297.23 69.1831 296.527C69.4745 295.823 69.9679 295.222 70.6011 294.799C71.2342 294.376 71.9786 294.15 72.74 294.15C73.7611 294.15 74.7404 294.556 75.4624 295.278C76.1844 296 76.59 296.979 76.59 298V298Z" fill="#001B7A"/>
<path d="M145.48 298C145.482 298.764 145.257 299.512 144.834 300.148C144.41 300.785 143.808 301.281 143.102 301.574C142.396 301.868 141.619 301.945 140.869 301.796C140.12 301.648 139.431 301.28 138.891 300.739C138.35 300.199 137.982 299.51 137.834 298.761C137.685 298.011 137.762 297.234 138.056 296.528C138.349 295.823 138.845 295.22 139.482 294.796C140.118 294.373 140.866 294.148 141.63 294.15C142.651 294.15 143.63 294.556 144.352 295.278C145.074 296 145.48 296.979 145.48 298Z" fill="#001B7A"/>
<path d="M42.14 330.63C42.14 331.391 41.9142 332.136 41.4912 332.769C41.0681 333.402 40.4668 333.896 39.7633 334.187C39.0598 334.478 38.2857 334.555 37.5389 334.406C36.7921 334.258 36.1061 333.891 35.5676 333.352C35.0292 332.814 34.6625 332.128 34.514 331.381C34.3654 330.634 34.4417 329.86 34.7331 329.157C35.0245 328.453 35.5179 327.852 36.1511 327.429C36.7842 327.006 37.5285 326.78 38.29 326.78C39.3111 326.78 40.2903 327.186 41.0124 327.908C41.7344 328.63 42.14 329.609 42.14 330.63V330.63Z" fill="#001B7A"/>
<path d="M107.18 334.48C109.306 334.48 111.03 332.756 111.03 330.63C111.03 328.504 109.306 326.78 107.18 326.78C105.054 326.78 103.33 328.504 103.33 330.63C103.33 332.756 105.054 334.48 107.18 334.48Z" fill="#001B7A"/>
<path d="M179.92 330.63C179.92 331.391 179.694 332.136 179.271 332.769C178.848 333.402 178.247 333.896 177.543 334.187C176.84 334.478 176.066 334.555 175.319 334.406C174.572 334.258 173.886 333.891 173.348 333.352C172.809 332.814 172.443 332.128 172.294 331.381C172.145 330.634 172.222 329.86 172.513 329.157C172.804 328.453 173.298 327.852 173.931 327.429C174.564 327.006 175.309 326.78 176.07 326.78C177.091 326.78 178.07 327.186 178.792 327.908C179.514 328.63 179.92 329.609 179.92 330.63Z" fill="#001B7A"/>
<path d="M7.7 330.63C7.69996 331.39 7.47514 332.133 7.05383 332.765C6.63253 333.397 6.03359 333.89 5.33243 334.183C4.63126 334.476 3.85921 334.554 3.1135 334.409C2.36778 334.263 1.68174 333.901 1.14175 333.366C0.601755 332.832 0.231959 332.15 0.0789193 331.405C-0.0741202 330.661 -0.0035609 329.888 0.281712 329.184C0.566986 328.48 1.05422 327.876 1.68206 327.448C2.30991 327.02 3.0503 326.788 3.81 326.78C4.31858 326.776 4.82293 326.873 5.29406 327.064C5.7652 327.256 6.19382 327.539 6.55531 327.896C6.91679 328.254 7.20401 328.68 7.40046 329.149C7.5969 329.618 7.6987 330.121 7.7 330.63V330.63Z" fill="#001B7A"/>
<path d="M76.59 330.63C76.59 331.391 76.3642 332.136 75.9412 332.769C75.5181 333.402 74.9168 333.896 74.2133 334.187C73.5098 334.478 72.7357 334.555 71.9889 334.406C71.2421 334.258 70.5561 333.891 70.0177 333.352C69.4792 332.814 69.1125 332.128 68.964 331.381C68.8154 330.634 68.8917 329.86 69.1831 329.157C69.4745 328.453 69.9679 327.852 70.6011 327.429C71.2342 327.006 71.9786 326.78 72.74 326.78C73.7603 326.783 74.738 327.189 75.4595 327.911C76.1809 328.632 76.5874 329.61 76.59 330.63V330.63Z" fill="#001B7A"/>
<path d="M145.48 330.63C145.482 331.394 145.257 332.142 144.834 332.778C144.41 333.415 143.808 333.911 143.102 334.204C142.396 334.498 141.619 334.575 140.869 334.426C140.12 334.278 139.431 333.91 138.891 333.369C138.35 332.829 137.982 332.14 137.834 331.391C137.685 330.641 137.762 329.864 138.056 329.158C138.349 328.453 138.845 327.85 139.482 327.426C140.118 327.003 140.866 326.778 141.63 326.78C142.65 326.783 143.628 327.189 144.349 327.911C145.071 328.632 145.477 329.61 145.48 330.63V330.63Z" fill="#001B7A"/>
<path d="M40.97 366.058C42.5034 364.585 42.5524 362.148 41.0793 360.614C39.6063 359.081 37.1691 359.032 35.6357 360.505C34.1023 361.978 34.0534 364.415 35.5264 365.949C36.9995 367.482 39.4367 367.531 40.97 366.058Z" fill="#001B7A"/>
<path d="M111.03 363.3C111.03 364.061 110.804 364.806 110.381 365.439C109.958 366.072 109.357 366.565 108.653 366.857C107.95 367.148 107.176 367.225 106.429 367.076C105.682 366.927 104.996 366.561 104.458 366.022C103.919 365.484 103.553 364.798 103.404 364.051C103.255 363.304 103.332 362.53 103.623 361.827C103.914 361.123 104.408 360.522 105.041 360.099C105.674 359.676 106.419 359.45 107.18 359.45C107.686 359.45 108.186 359.55 108.653 359.743C109.12 359.936 109.545 360.22 109.902 360.578C110.26 360.935 110.543 361.359 110.737 361.827C110.93 362.294 111.03 362.794 111.03 363.3V363.3Z" fill="#001B7A"/>
<path d="M179.92 363.3C179.92 364.061 179.694 364.806 179.271 365.439C178.848 366.072 178.247 366.565 177.543 366.857C176.84 367.148 176.066 367.225 175.319 367.076C174.572 366.927 173.886 366.561 173.348 366.022C172.809 365.484 172.443 364.798 172.294 364.051C172.145 363.304 172.222 362.53 172.513 361.827C172.804 361.123 173.298 360.522 173.931 360.099C174.564 359.676 175.309 359.45 176.07 359.45C176.576 359.45 177.076 359.55 177.543 359.743C178.01 359.936 178.435 360.22 178.792 360.578C179.15 360.935 179.433 361.359 179.627 361.827C179.82 362.294 179.92 362.794 179.92 363.3V363.3Z" fill="#001B7A"/>
<path d="M6.53343 366.057C8.06682 364.584 8.11574 362.147 6.6427 360.613C5.16966 359.08 2.73248 359.031 1.19909 360.504C-0.334303 361.977 -0.383244 364.414 1.0898 365.948C2.56284 367.481 5.00003 367.53 6.53343 366.057Z" fill="#001B7A"/>
<path d="M76.59 363.3C76.59 364.061 76.3642 364.806 75.9412 365.439C75.5181 366.072 74.9168 366.565 74.2133 366.857C73.5098 367.148 72.7357 367.225 71.9889 367.076C71.2421 366.927 70.5561 366.561 70.0177 366.022C69.4792 365.484 69.1125 364.798 68.964 364.051C68.8154 363.304 68.8917 362.53 69.1831 361.827C69.4745 361.123 69.9679 360.522 70.6011 360.099C71.2342 359.676 71.9786 359.45 72.74 359.45C73.7603 359.453 74.738 359.859 75.4595 360.581C76.1809 361.302 76.5874 362.28 76.59 363.3V363.3Z" fill="#001B7A"/>
<path d="M145.48 363.3C145.482 364.064 145.257 364.812 144.834 365.448C144.41 366.084 143.808 366.581 143.102 366.874C142.396 367.168 141.619 367.245 140.869 367.096C140.12 366.948 139.431 366.58 138.891 366.039C138.35 365.499 137.982 364.81 137.834 364.061C137.685 363.311 137.762 362.534 138.056 361.828C138.349 361.122 138.845 360.52 139.482 360.096C140.118 359.673 140.866 359.448 141.63 359.45C142.65 359.453 143.628 359.859 144.349 360.581C145.071 361.302 145.477 362.28 145.48 363.3V363.3Z" fill="#001B7A"/>
<path d="M42.14 396C42.14 396.761 41.9142 397.506 41.4912 398.139C41.0681 398.772 40.4668 399.266 39.7633 399.557C39.0598 399.848 38.2857 399.925 37.5389 399.776C36.7921 399.628 36.1061 399.261 35.5676 398.722C35.0292 398.184 34.6625 397.498 34.514 396.751C34.3654 396.004 34.4417 395.23 34.7331 394.527C35.0245 393.823 35.5179 393.222 36.1511 392.799C36.7842 392.376 37.5285 392.15 38.29 392.15C38.7956 392.15 39.2962 392.25 39.7633 392.443C40.2304 392.637 40.6549 392.92 41.0124 393.278C41.3699 393.635 41.6535 394.06 41.8469 394.527C42.0404 394.994 42.14 395.494 42.14 396V396Z" fill="#001B7A"/>
<path d="M111.03 396C111.03 396.761 110.804 397.506 110.381 398.139C109.958 398.772 109.357 399.266 108.653 399.557C107.95 399.848 107.176 399.925 106.429 399.776C105.682 399.628 104.996 399.261 104.458 398.722C103.919 398.184 103.553 397.498 103.404 396.751C103.255 396.004 103.332 395.23 103.623 394.527C103.914 393.823 104.408 393.222 105.041 392.799C105.674 392.376 106.419 392.15 107.18 392.15C107.686 392.15 108.186 392.25 108.653 392.443C109.12 392.637 109.545 392.92 109.902 393.278C110.26 393.635 110.543 394.06 110.737 394.527C110.93 394.994 111.03 395.494 111.03 396V396Z" fill="#001B7A"/>
<path d="M179.92 396C179.92 396.761 179.694 397.506 179.271 398.139C178.848 398.772 178.247 399.266 177.543 399.557C176.84 399.848 176.066 399.925 175.319 399.776C174.572 399.628 173.886 399.261 173.348 398.722C172.809 398.184 172.443 397.498 172.294 396.751C172.145 396.004 172.222 395.23 172.513 394.527C172.804 393.823 173.298 393.222 173.931 392.799C174.564 392.376 175.309 392.15 176.07 392.15C176.576 392.15 177.076 392.25 177.543 392.443C178.01 392.637 178.435 392.92 178.792 393.278C179.15 393.635 179.433 394.06 179.627 394.527C179.82 394.994 179.92 395.494 179.92 396V396Z" fill="#001B7A"/>
<path d="M6.61652 398.659C8.08527 397.121 8.02956 394.684 6.49206 393.215C4.95456 391.747 2.51751 391.802 1.04875 393.34C-0.419997 394.877 -0.364263 397.314 1.17324 398.783C2.71073 400.252 5.14776 400.196 6.61652 398.659Z" fill="#001B7A"/>
<path d="M72.74 399.83C74.8663 399.83 76.59 398.106 76.59 395.98C76.59 393.854 74.8663 392.13 72.74 392.13C70.6137 392.13 68.89 393.854 68.89 395.98C68.89 398.106 70.6137 399.83 72.74 399.83Z" fill="#001B7A"/>
<path d="M145.48 396C145.482 396.764 145.257 397.512 144.834 398.148C144.41 398.785 143.808 399.281 143.102 399.574C142.396 399.868 141.619 399.945 140.869 399.796C140.12 399.648 139.431 399.28 138.891 398.739C138.35 398.199 137.982 397.51 137.834 396.761C137.685 396.011 137.762 395.234 138.056 394.528C138.349 393.823 138.845 393.22 139.482 392.796C140.118 392.373 140.866 392.148 141.63 392.15C142.136 392.15 142.636 392.25 143.103 392.443C143.57 392.637 143.995 392.92 144.352 393.278C144.71 393.635 144.993 394.06 145.187 394.527C145.38 394.994 145.48 395.494 145.48 396V396Z" fill="#001B7A"/>
<path d="M42.14 428.66C42.14 429.421 41.9142 430.166 41.4912 430.799C41.0681 431.432 40.4668 431.926 39.7633 432.217C39.0598 432.508 38.2857 432.585 37.5389 432.436C36.7921 432.287 36.1061 431.921 35.5676 431.382C35.0292 430.844 34.6625 430.158 34.514 429.411C34.3654 428.664 34.4417 427.89 34.7331 427.187C35.0245 426.483 35.5179 425.882 36.1511 425.459C36.7842 425.036 37.5285 424.81 38.29 424.81C39.3111 424.81 40.2903 425.216 41.0124 425.938C41.7344 426.66 42.14 427.639 42.14 428.66V428.66Z" fill="#001B7A"/>
<path d="M111.03 428.66C111.03 429.421 110.804 430.166 110.381 430.799C109.958 431.432 109.357 431.926 108.653 432.217C107.95 432.508 107.176 432.585 106.429 432.436C105.682 432.287 104.996 431.921 104.458 431.382C103.919 430.844 103.553 430.158 103.404 429.411C103.255 428.664 103.332 427.89 103.623 427.187C103.914 426.483 104.408 425.882 105.041 425.459C105.674 425.036 106.419 424.81 107.18 424.81C108.201 424.81 109.18 425.216 109.902 425.938C110.624 426.66 111.03 427.639 111.03 428.66V428.66Z" fill="#001B7A"/>
<path d="M179.92 428.66C179.92 429.421 179.694 430.166 179.271 430.799C178.848 431.432 178.247 431.926 177.543 432.217C176.84 432.508 176.066 432.585 175.319 432.436C174.572 432.287 173.886 431.921 173.348 431.382C172.809 430.844 172.443 430.158 172.294 429.411C172.145 428.664 172.222 427.89 172.513 427.187C172.804 426.483 173.298 425.882 173.931 425.459C174.564 425.036 175.309 424.81 176.07 424.81C177.091 424.81 178.07 425.216 178.792 425.938C179.514 426.66 179.92 427.639 179.92 428.66V428.66Z" fill="#001B7A"/>
<path d="M6.62668 431.325C8.11225 429.804 8.08332 427.366 6.56206 425.881C5.0408 424.395 2.60329 424.424 1.11772 425.945C-0.367852 427.467 -0.338917 429.904 1.18234 431.39C2.7036 432.875 5.14111 432.846 6.62668 431.325Z" fill="#001B7A"/>
<path d="M76.59 428.66C76.59 429.421 76.3642 430.166 75.9412 430.799C75.5181 431.432 74.9168 431.926 74.2133 432.217C73.5098 432.508 72.7357 432.585 71.9889 432.436C71.2421 432.287 70.5561 431.921 70.0177 431.382C69.4792 430.844 69.1125 430.158 68.964 429.411C68.8154 428.664 68.8917 427.89 69.1831 427.187C69.4745 426.483 69.9679 425.882 70.6011 425.459C71.2342 425.036 71.9786 424.81 72.74 424.81C73.7611 424.81 74.7404 425.216 75.4624 425.938C76.1844 426.66 76.59 427.639 76.59 428.66V428.66Z" fill="#001B7A"/>
<path d="M145.48 428.66C145.482 429.424 145.257 430.172 144.834 430.808C144.41 431.445 143.808 431.941 143.102 432.234C142.396 432.528 141.619 432.605 140.869 432.456C140.12 432.308 139.431 431.94 138.891 431.399C138.35 430.859 137.982 430.17 137.834 429.421C137.685 428.671 137.762 427.894 138.056 427.188C138.349 426.482 138.845 425.88 139.482 425.456C140.118 425.033 140.866 424.808 141.63 424.81C142.651 424.81 143.63 425.216 144.352 425.938C145.074 426.66 145.48 427.639 145.48 428.66V428.66Z" fill="#001B7A"/>
</g>
<defs>
<clipPath id="clip0">
<rect width="179.93" height="432.51" fill="white"/>
</clipPath>
</defs>
</svg>
