<svg width="30" height="30" viewBox="0 0 30 30" fill="none" xmlns="http://www.w3.org/2000/svg">
<path d="M16.6575 15.0002L29.6571 2.0006C30.1147 1.54292 30.1147 0.80088 29.6571 0.343259C29.1994 -0.114361 28.4573 -0.11442 27.9997 0.343259L15.0001 13.3429L2.0006 0.343259C1.54292 -0.11442 0.80088 -0.11442 0.343259 0.343259C-0.114361 0.800939 -0.11442 1.54298 0.343259 2.0006L13.3428 15.0001L0.343259 27.9997C-0.11442 28.4574 -0.11442 29.1994 0.343259 29.6571C0.57207 29.8859 0.872013 30.0002 1.17196 30.0002C1.4719 30.0002 1.77179 29.8859 2.00066 29.6571L15.0001 16.6575L27.9997 29.6571C28.2285 29.8859 28.5284 30.0002 28.8284 30.0002C29.1283 30.0002 29.4282 29.8859 29.6571 29.6571C30.1147 29.1994 30.1147 28.4573 29.6571 27.9997L16.6575 15.0002Z" fill="black"/>
</svg>
