<svg id="Layer_1" data-name="Layer 1" xmlns="http://www.w3.org/2000/svg" viewBox="0 0 179.93 432.51"><defs><style>.cls-1{fill:#3f3943;}</style></defs><title>dot</title><path class="cls-1" d="M72.33,26.85A3.85,3.85,0,1,1,68.48,23,3.85,3.85,0,0,1,72.33,26.85Z" transform="translate(-30.19 -23)"/><path class="cls-1" d="M141.22,26.85A3.85,3.85,0,1,1,137.37,23,3.85,3.85,0,0,1,141.22,26.85Z" transform="translate(-30.19 -23)"/><path class="cls-1" d="M210.11,26.85A3.85,3.85,0,1,1,206.26,23,3.85,3.85,0,0,1,210.11,26.85Z" transform="translate(-30.19 -23)"/><path class="cls-1" d="M37.89,26.85A3.85,3.85,0,1,1,34,23,3.85,3.85,0,0,1,37.89,26.85Z" transform="translate(-30.19 -23)"/><path class="cls-1" d="M106.78,26.85A3.85,3.85,0,1,1,102.93,23,3.85,3.85,0,0,1,106.78,26.85Z" transform="translate(-30.19 -23)"/><path class="cls-1" d="M175.67,26.85A3.86,3.86,0,1,1,171.82,23,3.85,3.85,0,0,1,175.67,26.85Z" transform="translate(-30.19 -23)"/><circle class="cls-1" cx="38.3" cy="36.53" r="3.85"/><path class="cls-1" d="M141.22,59.53a3.85,3.85,0,1,1-3.85-3.85A3.85,3.85,0,0,1,141.22,59.53Z" transform="translate(-30.19 -23)"/><path class="cls-1" d="M210.11,59.53a3.85,3.85,0,1,1-3.85-3.85A3.85,3.85,0,0,1,210.11,59.53Z" transform="translate(-30.19 -23)"/><path class="cls-1" d="M37.89,59.53A3.85,3.85,0,1,1,34,55.68,3.85,3.85,0,0,1,37.89,59.53Z" transform="translate(-30.19 -23)"/><path class="cls-1" d="M106.78,59.53a3.85,3.85,0,1,1-3.85-3.85A3.85,3.85,0,0,1,106.78,59.53Z" transform="translate(-30.19 -23)"/><path class="cls-1" d="M175.67,59.53a3.86,3.86,0,1,1-3.85-3.85A3.85,3.85,0,0,1,175.67,59.53Z" transform="translate(-30.19 -23)"/><path class="cls-1" d="M72.33,92.21a3.85,3.85,0,1,1-3.85-3.85A3.85,3.85,0,0,1,72.33,92.21Z" transform="translate(-30.19 -23)"/><path class="cls-1" d="M141.22,92.21a3.85,3.85,0,1,1-3.85-3.85A3.85,3.85,0,0,1,141.22,92.21Z" transform="translate(-30.19 -23)"/><circle class="cls-1" cx="206.26" cy="92.21" r="3.85" transform="translate(-34.97 149.85) rotate(-45)"/><circle class="cls-1" cx="34.04" cy="92.21" r="3.85" transform="translate(-85.42 28.07) rotate(-45)"/><path class="cls-1" d="M106.78,92.21a3.85,3.85,0,1,1-3.85-3.85A3.86,3.86,0,0,1,106.78,92.21Z" transform="translate(-30.19 -23)"/><path class="cls-1" d="M175.67,92.21a3.86,3.86,0,1,1-3.85-3.85A3.86,3.86,0,0,1,175.67,92.21Z" transform="translate(-30.19 -23)"/><path class="cls-1" d="M72.33,124.88A3.85,3.85,0,1,1,68.48,121,3.85,3.85,0,0,1,72.33,124.88Z" transform="translate(-30.19 -23)"/><path class="cls-1" d="M141.22,124.88a3.85,3.85,0,1,1-3.85-3.85A3.85,3.85,0,0,1,141.22,124.88Z" transform="translate(-30.19 -23)"/><path class="cls-1" d="M210.11,124.88a3.85,3.85,0,1,1-3.85-3.85A3.85,3.85,0,0,1,210.11,124.88Z" transform="translate(-30.19 -23)"/><path class="cls-1" d="M37.89,124.88A3.85,3.85,0,1,1,34,121,3.86,3.86,0,0,1,37.89,124.88Z" transform="translate(-30.19 -23)"/><path class="cls-1" d="M106.78,124.88a3.85,3.85,0,1,1-3.85-3.85A3.86,3.86,0,0,1,106.78,124.88Z" transform="translate(-30.19 -23)"/><path class="cls-1" d="M175.67,124.88a3.86,3.86,0,1,1-3.85-3.85A3.86,3.86,0,0,1,175.67,124.88Z" transform="translate(-30.19 -23)"/><path class="cls-1" d="M72.33,157.56a3.85,3.85,0,1,1-3.85-3.85A3.85,3.85,0,0,1,72.33,157.56Z" transform="translate(-30.19 -23)"/><path class="cls-1" d="M141.22,157.56a3.85,3.85,0,1,1-3.85-3.85A3.85,3.85,0,0,1,141.22,157.56Z" transform="translate(-30.19 -23)"/><circle class="cls-1" cx="206.26" cy="157.56" r="3.85" transform="translate(-81.19 169) rotate(-45)"/><path class="cls-1" d="M37.89,157.56A3.85,3.85,0,1,1,34,153.71,3.85,3.85,0,0,1,37.89,157.56Z" transform="translate(-30.19 -23)"/><path class="cls-1" d="M106.78,157.56a3.85,3.85,0,1,1-3.85-3.85A3.85,3.85,0,0,1,106.78,157.56Z" transform="translate(-30.19 -23)"/><path class="cls-1" d="M175.67,157.56a3.86,3.86,0,1,1-3.85-3.85A3.85,3.85,0,0,1,175.67,157.56Z" transform="translate(-30.19 -23)"/><path class="cls-1" d="M72.33,190.24a3.85,3.85,0,1,1-3.85-3.85A3.85,3.85,0,0,1,72.33,190.24Z" transform="translate(-30.19 -23)"/><path class="cls-1" d="M141.22,190.24a3.85,3.85,0,1,1-3.85-3.85A3.85,3.85,0,0,1,141.22,190.24Z" transform="translate(-30.19 -23)"/><path class="cls-1" d="M210.11,190.24a3.85,3.85,0,1,1-3.85-3.85A3.85,3.85,0,0,1,210.11,190.24Z" transform="translate(-30.19 -23)"/><circle class="cls-1" cx="34.04" cy="190.24" r="3.85" transform="translate(-153.09 54.46) rotate(-44.16)"/><circle class="cls-1" cx="72.74" cy="167.24" r="3.85"/><path class="cls-1" d="M175.67,190.24a3.86,3.86,0,1,1-3.85-3.85A3.85,3.85,0,0,1,175.67,190.24Z" transform="translate(-30.19 -23)"/><circle class="cls-1" cx="38.3" cy="199.92" r="3.85"/><path class="cls-1" d="M141.22,222.92a3.85,3.85,0,1,1-3.85-3.85A3.85,3.85,0,0,1,141.22,222.92Z" transform="translate(-30.19 -23)"/><path class="cls-1" d="M210.11,222.92a3.85,3.85,0,1,1-3.85-3.85A3.85,3.85,0,0,1,210.11,222.92Z" transform="translate(-30.19 -23)"/><path class="cls-1" d="M37.89,222.92A3.85,3.85,0,1,1,34,219.07,3.86,3.86,0,0,1,37.89,222.92Z" transform="translate(-30.19 -23)"/><circle class="cls-1" cx="72.74" cy="199.92" r="3.85"/><path class="cls-1" d="M175.67,222.92a3.86,3.86,0,1,1-3.85-3.85A3.86,3.86,0,0,1,175.67,222.92Z" transform="translate(-30.19 -23)"/><path class="cls-1" d="M72.33,255.59a3.85,3.85,0,1,1-3.85-3.85A3.85,3.85,0,0,1,72.33,255.59Z" transform="translate(-30.19 -23)"/><path class="cls-1" d="M141.22,255.59a3.85,3.85,0,1,1-3.85-3.85A3.85,3.85,0,0,1,141.22,255.59Z" transform="translate(-30.19 -23)"/><path class="cls-1" d="M210.11,255.59a3.85,3.85,0,1,1-3.85-3.85A3.85,3.85,0,0,1,210.11,255.59Z" transform="translate(-30.19 -23)"/><path class="cls-1" d="M37.89,255.59A3.85,3.85,0,1,1,34,251.74,3.86,3.86,0,0,1,37.89,255.59Z" transform="translate(-30.19 -23)"/><path class="cls-1" d="M106.78,255.59a3.85,3.85,0,1,1-3.85-3.85A3.86,3.86,0,0,1,106.78,255.59Z" transform="translate(-30.19 -23)"/><path class="cls-1" d="M175.67,255.59a3.86,3.86,0,1,1-3.85-3.85A3.86,3.86,0,0,1,175.67,255.59Z" transform="translate(-30.19 -23)"/><path class="cls-1" d="M72.33,288.27a3.85,3.85,0,1,1-3.85-3.85A3.85,3.85,0,0,1,72.33,288.27Z" transform="translate(-30.19 -23)"/><path class="cls-1" d="M141.22,288.27a3.85,3.85,0,1,1-3.85-3.85A3.85,3.85,0,0,1,141.22,288.27Z" transform="translate(-30.19 -23)"/><path class="cls-1" d="M210.11,288.27a3.85,3.85,0,1,1-3.85-3.85A3.85,3.85,0,0,1,210.11,288.27Z" transform="translate(-30.19 -23)"/><path class="cls-1" d="M37.89,288.27A3.85,3.85,0,1,1,34,284.42,3.85,3.85,0,0,1,37.89,288.27Z" transform="translate(-30.19 -23)"/><path class="cls-1" d="M106.78,288.27a3.85,3.85,0,1,1-3.85-3.85A3.85,3.85,0,0,1,106.78,288.27Z" transform="translate(-30.19 -23)"/><path class="cls-1" d="M175.67,288.27a3.86,3.86,0,1,1-3.85-3.85A3.85,3.85,0,0,1,175.67,288.27Z" transform="translate(-30.19 -23)"/><circle class="cls-1" cx="38.3" cy="297.95" r="3.85"/><path class="cls-1" d="M141.22,321a3.85,3.85,0,1,1-3.85-3.85A3.85,3.85,0,0,1,141.22,321Z" transform="translate(-30.19 -23)"/><path class="cls-1" d="M210.11,321a3.85,3.85,0,1,1-3.85-3.85A3.85,3.85,0,0,1,210.11,321Z" transform="translate(-30.19 -23)"/><circle class="cls-1" cx="34.04" cy="320.95" r="3.85" transform="translate(-247.16 95.07) rotate(-45)"/><path class="cls-1" d="M106.78,321a3.85,3.85,0,1,1-3.85-3.85A3.85,3.85,0,0,1,106.78,321Z" transform="translate(-30.19 -23)"/><path class="cls-1" d="M175.67,321a3.86,3.86,0,1,1-3.85-3.85A3.85,3.85,0,0,1,175.67,321Z" transform="translate(-30.19 -23)"/><path class="cls-1" d="M72.33,353.63a3.85,3.85,0,1,1-3.85-3.85A3.85,3.85,0,0,1,72.33,353.63Z" transform="translate(-30.19 -23)"/><circle class="cls-1" cx="107.18" cy="330.63" r="3.85"/><path class="cls-1" d="M210.11,353.63a3.85,3.85,0,1,1-3.85-3.85A3.85,3.85,0,0,1,210.11,353.63Z" transform="translate(-30.19 -23)"/><path class="cls-1" d="M37.89,353.63A3.85,3.85,0,1,1,34,349.78,3.86,3.86,0,0,1,37.89,353.63Z" transform="translate(-30.19 -23)"/><path class="cls-1" d="M106.78,353.63a3.85,3.85,0,1,1-3.85-3.85A3.86,3.86,0,0,1,106.78,353.63Z" transform="translate(-30.19 -23)"/><path class="cls-1" d="M175.67,353.63a3.86,3.86,0,1,1-3.85-3.85A3.86,3.86,0,0,1,175.67,353.63Z" transform="translate(-30.19 -23)"/><circle class="cls-1" cx="68.48" cy="386.3" r="3.85" transform="translate(-278.7 132.14) rotate(-43.85)"/><path class="cls-1" d="M141.22,386.3a3.85,3.85,0,1,1-3.85-3.85A3.85,3.85,0,0,1,141.22,386.3Z" transform="translate(-30.19 -23)"/><path class="cls-1" d="M210.11,386.3a3.85,3.85,0,1,1-3.85-3.85A3.85,3.85,0,0,1,210.11,386.3Z" transform="translate(-30.19 -23)"/><circle class="cls-1" cx="34.04" cy="386.3" r="3.85" transform="translate(-288.3 108.28) rotate(-43.85)"/><path class="cls-1" d="M106.78,386.3a3.85,3.85,0,1,1-3.85-3.85A3.86,3.86,0,0,1,106.78,386.3Z" transform="translate(-30.19 -23)"/><path class="cls-1" d="M175.67,386.3a3.86,3.86,0,1,1-3.85-3.85A3.86,3.86,0,0,1,175.67,386.3Z" transform="translate(-30.19 -23)"/><path class="cls-1" d="M72.33,419a3.85,3.85,0,1,1-3.85-3.85A3.85,3.85,0,0,1,72.33,419Z" transform="translate(-30.19 -23)"/><path class="cls-1" d="M141.22,419a3.85,3.85,0,1,1-3.85-3.85A3.85,3.85,0,0,1,141.22,419Z" transform="translate(-30.19 -23)"/><path class="cls-1" d="M210.11,419a3.85,3.85,0,1,1-3.85-3.85A3.85,3.85,0,0,1,210.11,419Z" transform="translate(-30.19 -23)"/><circle class="cls-1" cx="34.04" cy="418.98" r="3.85" transform="translate(-322.64 131.2) rotate(-46.31)"/><circle class="cls-1" cx="72.74" cy="395.98" r="3.85"/><path class="cls-1" d="M175.67,419a3.86,3.86,0,1,1-3.85-3.85A3.85,3.85,0,0,1,175.67,419Z" transform="translate(-30.19 -23)"/><path class="cls-1" d="M72.33,451.66a3.85,3.85,0,1,1-3.85-3.85A3.85,3.85,0,0,1,72.33,451.66Z" transform="translate(-30.19 -23)"/><path class="cls-1" d="M141.22,451.66a3.85,3.85,0,1,1-3.85-3.85A3.85,3.85,0,0,1,141.22,451.66Z" transform="translate(-30.19 -23)"/><path class="cls-1" d="M210.11,451.66a3.85,3.85,0,1,1-3.85-3.85A3.85,3.85,0,0,1,210.11,451.66Z" transform="translate(-30.19 -23)"/><circle class="cls-1" cx="34.04" cy="451.66" r="3.85" transform="translate(-343.05 137.43) rotate(-45.68)"/><path class="cls-1" d="M106.78,451.66a3.85,3.85,0,1,1-3.85-3.85A3.85,3.85,0,0,1,106.78,451.66Z" transform="translate(-30.19 -23)"/><path class="cls-1" d="M175.67,451.66a3.86,3.86,0,1,1-3.85-3.85A3.85,3.85,0,0,1,175.67,451.66Z" transform="translate(-30.19 -23)"/></svg>