<?xml version="1.0" encoding="utf-8"?>
<!-- Generator: Adobe Illustrator 24.0.0, SVG Export Plug-In . SVG Version: 6.00 Build 0)  -->
<svg version="1.1" id="_x31_" xmlns="http://www.w3.org/2000/svg" xmlns:xlink="http://www.w3.org/1999/xlink" x="0px" y="0px"
	 viewBox="0 0 500 344" style="enable-background:new 0 0 500 344;" xml:space="preserve">
<style type="text/css">
	.st0{fill:#ED1C24;}
</style>
<g>
	<g>
		<path class="st0" d="M96.4,196.6c1.2,0,2.2-1.1,2.2-2.4v-43.8c0-1.4-1-2.4-2.2-2.4l0,0c-1.2,0-2.2,1.1-2.2,2.4v43.8
			C94.2,195.5,95.2,196.6,96.4,196.6L96.4,196.6z"/>
		<path class="st0" d="M83.8,196.6c1.2,0,2.2-1.1,2.2-2.5v-43.8c0-1.4-1-2.4-2.2-2.4l0,0c-1.2,0-2.2,1.1-2.2,2.4v43.8
			C81.6,195.5,82.6,196.6,83.8,196.6L83.8,196.6z"/>
		<path class="st0" d="M70.9,196.6c1.2,0,2.2-1.1,2.2-2.4v-43.8c0-1.4-1-2.4-2.2-2.4l0,0c-1.2,0-2.2,1.1-2.2,2.4v43.8
			C68.7,195.5,69.7,196.6,70.9,196.6L70.9,196.6z"/>
		<path class="st0" d="M85.9,106.2H17.4v126.5l38.5-60.8v22.2c0,1.4,1,2.4,2.2,2.4s2.2-1.1,2.2-2.4v-43.8c0-0.1,0-0.2,0-0.3
			L85.9,106.2z"/>
		<path class="st0" d="M111.3,170.7v-20.3c0-1.4-1-2.5-2.2-2.5s-2.2,1.1-2.2,2.5v41.8l-26.2,45.6h67.9V111.4L111.3,170.7z"/>
	</g>
	<g>
		<path d="M187,157.3v41.5h-19.1v-92.6H187v35.1h35.7v-35.1h19.1v92.6h-19.1v-41.5H187L187,157.3z"/>
		<path d="M324.2,122.7h-48.6v19.5h44.7v16.4h-44.7v24h50.8V199h-69.6v-92.6h67.4L324.2,122.7L324.2,122.7z"/>
		<path d="M357.3,182.1h45.6v16.8h-64.7v-92.6h19.1L357.3,182.1L357.3,182.1z"/>
		<path d="M431.5,198.9h-19.1v-92.6h41.9c17.7,0,28.5,11.5,28.5,29.6c0,8.4-4.6,29.5-29.2,29.5h-22L431.5,198.9L431.5,198.9z
			 M449.2,149.5c14.3,0,14.3-10.3,14.3-14.4c0-9-5-12.8-16.9-12.8h-15.2v27.2H449.2z"/>
	</g>
	<g>
		<path d="M187.6,221.9c0,6.4-3.9,9.1-10,9.1c-2.2,0-5.5-0.5-7.7-2.9c-1.3-1.5-1.8-3.4-1.9-5.9v-16.1h5.2v15.8c0,3.4,2,4.9,4.3,4.9
			c3.5,0,4.9-1.7,4.9-4.6v-16h5.2V221.9z"/>
		<path d="M209.7,230.4H205v-10.9c0-1.3-0.1-3.5-3.1-3.5c-2.1,0-3.7,1.4-3.7,4.2v10.3h-4.7v-18h4.5v2.6h0.1c0.6-1.1,2-3.1,5.4-3.1
			c3.5,0,6.3,2.1,6.3,6v12.4H209.7z"/>
		<path d="M220.3,210.3h-4.7v-4.4h4.7V210.3z M220.3,212.4v18h-4.7v-18H220.3z"/>
		<path d="M235.7,230.4h-5l-6.5-18h5.3l3.7,13.2h0.1l3.8-13.2h5L235.7,230.4z"/>
		<path d="M261.6,225.1c-1.3,4.3-4.8,5.7-7.9,5.7c-5.1,0-9-2.4-9-9.8c0-2.2,0.7-9.1,8.6-9.1c3.5,0,8.5,1.7,8.5,9.9v0.8h-12.3
			c0.1,1.4,0.4,4.4,4.2,4.4c1.3,0,2.7-0.7,3-2h4.9V225.1z M256.9,219.6c-0.3-2.9-2.1-3.8-3.7-3.8c-2.2,0-3.4,1.4-3.7,3.8H256.9z"/>
		<path d="M266.2,212.4h4.5v3.1h0.1c1-1.8,2.1-3.6,4.9-3.6c0.3,0,0.6,0,0.9,0.1v4.8c-0.4-0.1-0.9-0.1-1.4-0.1
			c-3.7,0-4.4,2.3-4.4,4.3v9.4h-4.7v-18H266.2z"/>
		<path d="M290.3,217.9c-0.2-1.1-0.6-2.4-3.2-2.4s-2.9,1-2.9,1.8c0,2.8,11.3,0.8,11.3,7.4c0,5.2-5.1,6.2-7.9,6.2
			c-4.1,0-8.5-1.4-8.7-6.2h4.9c0,1.5,0.9,2.6,3.9,2.6c2.4,0,3-1.2,3-1.9c0-3-11.2-0.7-11.2-7.5c0-2.6,1.7-6,7.3-6
			c3.5,0,7.7,0.9,8.1,5.9L290.3,217.9L290.3,217.9L290.3,217.9z"/>
		<path d="M305.1,210.3h-4.7v-4.4h4.7V210.3z M305.1,212.4v18h-4.7v-18H305.1z"/>
		<path d="M316.2,212.4h2.9v3.4h-2.9v9.8c0,1,0,1.5,2,1.5c0.3,0,0.6,0,1-0.1v3.6c-0.7,0-1.5,0.1-2.2,0.1h-0.6
			c-4.1,0-4.8-1.6-4.8-3.9v-10.9h-2.4v-3.4h2.4v-4.9h4.7v4.8L316.2,212.4L316.2,212.4z"/>
		<path d="M333.3,230.1c-2.2,6.7-2.8,7.5-7,7.5c-0.6,0-1.5,0-2.1-0.1v-3.8c0.2,0,0.5,0.1,0.9,0.1c1.7,0,2.7-0.2,3.1-2.7l-6.6-18.7
			h5.3l3.9,13.2h0.1l3.7-13.2h5L333.3,230.1z"/>
		<path d="M370.1,214.1c-0.4-1.5-1.2-4.2-5.4-4.2c-2.4,0-6,1.6-6,8.5c0,4.4,1.7,8.3,6,8.3c2.8,0,4.8-1.6,5.4-4.6h5.1
			c-1,5.3-4.5,9-10.5,9c-6.5,0-11.1-4.4-11.1-12.7c0-8.5,4.9-12.8,11.2-12.8c7.3,0,10.2,5,10.5,8.6L370.1,214.1L370.1,214.1z"/>
		<path d="M388,230.9c-4.8,0-9.2-3-9.2-9.5s4.4-9.5,9.2-9.5c4.8,0,9.2,3,9.2,9.5S392.9,230.9,388,230.9z M388,216
			c-3.7,0-4.3,3.2-4.3,5.5s0.7,5.5,4.3,5.5c3.7,0,4.3-3.2,4.3-5.5C392.4,219.1,391.7,216,388,216z"/>
		<path d="M406.7,230.4H402v-24.3h4.7V230.4z"/>
		<path d="M417.4,230.4h-4.7v-24.3h4.7V230.4z"/>
		<path d="M438.6,225.1c-1.3,4.3-4.8,5.7-7.9,5.7c-5.1,0-9-2.4-9-9.8c0-2.2,0.7-9.1,8.6-9.1c3.5,0,8.5,1.7,8.5,9.9v0.8h-12.3
			c0.1,1.4,0.4,4.4,4.2,4.4c1.3,0,2.7-0.7,3-2h4.9L438.6,225.1L438.6,225.1z M434,219.6c-0.3-2.9-2.1-3.8-3.7-3.8
			c-2.2,0-3.4,1.4-3.7,3.8H434z"/>
		<path d="M459.8,212.4v17c0,3.1-0.2,8.3-9.1,8.3c-3.7,0-7.6-1.6-7.8-5.4h5.1c0.2,0.9,0.6,1.8,3.3,1.8c2.5,0,3.8-1.2,3.8-4.1v-2.2
			l-0.1-0.1c-0.8,1.4-2,2.7-4.8,2.7c-4.3,0-7.7-3-7.7-9.3c0-6.2,3.5-9.3,7.5-9.3c3.3,0,4.7,2,5.3,3.1h0.1v-2.7h4.4L459.8,212.4
			L459.8,212.4z M451,226.5c3.2,0,4-2.7,4-5.2c0-2.9-1.4-5.3-4.1-5.3c-1.8,0-3.7,1.3-3.7,5.5C447.3,223.8,448.2,226.5,451,226.5z"/>
		<path d="M481,225.1c-1.2,4.3-4.8,5.7-7.9,5.7c-5.1,0-9-2.4-9-9.8c0-2.2,0.7-9.1,8.6-9.1c3.5,0,8.5,1.7,8.5,9.9v0.8h-12.3
			c0.1,1.4,0.4,4.4,4.2,4.4c1.3,0,2.7-0.7,3-2h4.9L481,225.1L481,225.1z M476.3,219.6c-0.3-2.9-2.1-3.8-3.7-3.8
			c-2.2,0-3.4,1.4-3.7,3.8H476.3z"/>
	</g>
</g>
</svg>
