<?xml version="1.0" encoding="utf-8"?>
<!-- Generator: Adobe Illustrator 24.0.0, SVG Export Plug-In . SVG Version: 6.00 Build 0)  -->
<svg version="1.1" id="Capa_1" xmlns="http://www.w3.org/2000/svg" xmlns:xlink="http://www.w3.org/1999/xlink" x="0px" y="0px"
	 viewBox="0 0 20 20" style="enable-background:new 0 0 20 20;" xml:space="preserve">
<g>
	<g>
		<g>
			<path d="M18,2.6H2c-0.3,0-0.5,0.1-0.7,0.2l8.7,8.7l2-1.9c0,0,0,0,0,0c0,0,0,0,0,0l6.8-6.8C18.5,2.7,18.3,2.6,18,2.6z"/>
		</g>
	</g>
	<g>
		<g>
			<path d="M19.5,3.6L13.1,10l6.4,6.4c0.1-0.2,0.2-0.5,0.2-0.7V4.3C19.7,4,19.7,3.8,19.5,3.6z"/>
		</g>
	</g>
	<g>
		<g>
			<path d="M0.5,3.6C0.3,3.8,0.3,4,0.3,4.3v11.4c0,0.3,0.1,0.5,0.2,0.7L6.9,10L0.5,3.6z"/>
		</g>
	</g>
	<g>
		<g>
			<path d="M12.3,10.8l-2,1.9c-0.1,0.1-0.3,0.2-0.4,0.2s-0.3-0.1-0.4-0.2l-1.9-1.9l-6.4,6.4c0.2,0.1,0.5,0.2,0.7,0.2h16
				c0.3,0,0.5-0.1,0.7-0.2L12.3,10.8z"/>
		</g>
	</g>
</g>
</svg>
