<?xml version="1.0" encoding="utf-8"?>
<!-- Generator: Adobe Illustrator 24.0.0, SVG Export Plug-In . SVG Version: 6.00 Build 0)  -->
<svg version="1.1" id="_x31_" xmlns="http://www.w3.org/2000/svg" xmlns:xlink="http://www.w3.org/1999/xlink" x="0px" y="0px"
	 viewBox="0 0 500 500" style="enable-background:new 0 0 500 500;" xml:space="preserve">
<style type="text/css">
	.st0{fill:#ED1C24;}
	.st1{fill:#FFFFFF;}
</style>
<g>
	<path d="M305.8,306.9c-2.9,0-5.2,0.8-6.8,2.4c-1.7,1.6-2.5,3.7-2.5,6.4c0,2.7,0.9,4.8,2.6,6.3c1.7,1.5,4.3,2.2,7.6,2.2
		c1.3,0,2.4-0.1,3.5-0.3c1.1-0.2,2.2-0.6,3.4-1v-4.2h-0.6c-0.6,0.5-1.4,0.9-2.5,1.3c-1,0.4-2.1,0.6-3.2,0.6c-1.7,0-3.1-0.3-4-1
		c-0.9-0.7-1.4-1.7-1.5-2.9h12v-1.8c0-2.5-0.7-4.5-2-5.8C310.5,307.6,308.4,306.9,305.8,306.9z M301.8,313.5c0.1-1.2,0.4-2,1.1-2.5
		c0.7-0.5,1.5-0.8,2.5-0.8c1.1,0,1.9,0.3,2.4,0.8c0.5,0.6,0.8,1.4,0.8,2.5H301.8z M271.1,307c-1.1,0-2,0.2-2.9,0.6
		c-0.9,0.4-1.8,0.9-2.7,1.7v-1.8h-5.3v16.4h5.3v-11.6c0.6-0.3,1.1-0.6,1.6-0.7c0.5-0.2,1-0.2,1.5-0.2c0.7,0,1.2,0.1,1.6,0.2
		c0.4,0.2,0.7,0.4,0.9,0.8c0.2,0.3,0.3,0.8,0.3,1.5c0.1,0.7,0.1,1.3,0.1,2v8.1h5.3v-10.7c0-2.1-0.5-3.6-1.5-4.6
		C274.3,307.5,272.9,307,271.1,307z M293.3,282.4c-1.3-0.9-3.5-1.4-6.5-1.4c-1.3,0-2.5,0.1-3.8,0.3c-1.2,0.2-2.2,0.4-2.7,0.5v4h0.5
		c0.4-0.2,1.1-0.4,2.1-0.7c1-0.3,1.9-0.5,2.8-0.5c1.4,0,2.5,0.2,3.3,0.5c0.7,0.3,1.1,1,1.1,1.9v0.1c-1.5,0.1-3,0.2-4.5,0.4
		c-1.4,0.2-2.6,0.5-3.6,0.9c-1,0.4-1.7,1-2.3,1.8c-0.5,0.8-0.8,1.7-0.8,2.9c0,1.5,0.5,2.7,1.6,3.7c1.1,1,2.4,1.4,3.9,1.4
		c0.7,0,1.3-0.1,1.8-0.2c0.6-0.1,1.1-0.3,1.6-0.5c0.4-0.2,0.8-0.4,1.2-0.7c0.4-0.3,0.8-0.6,1.1-0.8v1.7h5.2v-11.1
		C295.2,284.7,294.6,283.3,293.3,282.4z M290,293.6c-0.4,0.3-0.9,0.6-1.4,0.8c-0.5,0.2-1.1,0.3-1.6,0.3c-0.7,0-1.1,0-1.5-0.1
		c-0.3-0.1-0.6-0.2-0.8-0.4c-0.2-0.2-0.4-0.4-0.4-0.6c-0.1-0.2-0.1-0.5-0.1-0.8c0-0.5,0.1-0.9,0.4-1.2c0.3-0.3,0.7-0.6,1.2-0.7
		c0.4-0.1,1.1-0.3,1.9-0.4c0.8-0.1,1.6-0.2,2.3-0.2V293.6z M289.2,307c-1.2,0-2.4,0.2-3.6,0.5c-1.2,0.3-2.2,0.8-3.1,1.5
		c-0.9,0.7-1.6,1.6-2.1,2.8c-0.5,1.1-0.8,2.4-0.8,4c0,1.4,0.2,2.7,0.7,3.8c0.5,1.1,1.1,2,2,2.7c0.9,0.7,1.9,1.2,3.1,1.6
		c1.2,0.3,2.5,0.5,3.9,0.5c1.1,0,2.1-0.1,3-0.3c0.9-0.2,1.8-0.5,2.6-0.9v-4.5h-0.7c-0.2,0.2-0.4,0.4-0.7,0.6
		c-0.3,0.2-0.5,0.4-0.9,0.6c-0.3,0.2-0.8,0.4-1.3,0.5c-0.5,0.2-1.1,0.2-1.8,0.2c-1.4,0-2.5-0.4-3.3-1.2c-0.8-0.8-1.2-2-1.2-3.6
		c0-1.5,0.4-2.7,1.1-3.6c0.8-0.9,1.8-1.3,3.2-1.3c0.6,0,1.2,0.1,1.7,0.2c0.5,0.1,0.9,0.3,1.3,0.5c0.4,0.2,0.8,0.5,1.1,0.7
		c0.3,0.2,0.5,0.4,0.7,0.6h0.7v-4.5c-0.8-0.4-1.7-0.7-2.6-0.9C291.4,307.1,290.3,307,289.2,307z M272.3,297.8v-10.7
		c0-2.1-0.5-3.6-1.5-4.6c-1-1-2.4-1.5-4.1-1.5c-1.1,0-2,0.2-2.9,0.6c-0.9,0.4-1.8,0.9-2.7,1.7v-1.8h-5.3v16.4h5.3v-11.6
		c0.6-0.3,1.1-0.6,1.6-0.7c0.5-0.2,1-0.2,1.5-0.2c0.7,0,1.2,0.1,1.6,0.2c0.4,0.2,0.7,0.4,0.9,0.8c0.2,0.3,0.3,0.8,0.4,1.5
		c0.1,0.7,0.1,1.3,0.1,2v8.1H272.3z M223.3,307c-1.2,0-2.4,0.2-3.6,0.5c-1.2,0.3-2.2,0.8-3.1,1.5c-0.9,0.7-1.6,1.6-2.1,2.8
		c-0.5,1.1-0.8,2.4-0.8,4c0,1.4,0.2,2.7,0.7,3.8c0.5,1.1,1.1,2,2,2.7c0.9,0.7,1.9,1.2,3.1,1.6c1.2,0.3,2.5,0.5,3.9,0.5
		c1.1,0,2.1-0.1,3-0.3c0.9-0.2,1.8-0.5,2.6-0.9v-4.5h-0.7c-0.2,0.2-0.4,0.4-0.7,0.6c-0.3,0.2-0.5,0.4-0.9,0.6
		c-0.4,0.2-0.8,0.4-1.3,0.5c-0.5,0.2-1.1,0.2-1.8,0.2c-1.4,0-2.5-0.4-3.3-1.2c-0.8-0.8-1.2-2-1.2-3.6c0-1.5,0.4-2.7,1.1-3.6
		c0.8-0.9,1.8-1.3,3.2-1.3c0.6,0,1.2,0.1,1.7,0.2c0.5,0.1,0.9,0.3,1.3,0.5c0.4,0.2,0.8,0.5,1.1,0.7c0.3,0.2,0.5,0.4,0.7,0.6h0.7
		v-4.5c-0.8-0.4-1.7-0.7-2.6-0.9C225.4,307.1,224.4,307,223.3,307z M225,297.8v-10.7c0-2-0.5-3.5-1.4-4.6c-0.9-1.1-2.3-1.6-4-1.6
		c-1,0-1.9,0.3-2.9,0.8c-1,0.5-2,1.2-3.1,2.1c-0.5-0.9-1.1-1.6-1.9-2.1c-0.8-0.5-1.8-0.7-2.9-0.7c-1,0-1.9,0.2-2.7,0.6
		c-0.8,0.4-1.7,1-2.6,1.7v-1.8h-5.3v16.4h5.3v-11.6c0.4-0.2,0.8-0.5,1.3-0.7c0.5-0.2,1-0.3,1.5-0.3c0.6,0,1.1,0.1,1.5,0.2
		c0.4,0.2,0.6,0.4,0.8,0.8c0.2,0.4,0.3,0.8,0.3,1.4c0,0.6,0.1,1.2,0.1,2v8.2h5.3v-11.6c0.6-0.4,1.1-0.6,1.5-0.8
		c0.4-0.2,0.8-0.2,1.3-0.2c0.7,0,1.2,0.1,1.5,0.2c0.4,0.2,0.6,0.4,0.8,0.8c0.2,0.4,0.3,0.8,0.3,1.4c0,0.6,0.1,1.2,0.1,2v8.2H225z
		 M208.1,314c-0.6-0.2-1.2-0.3-1.9-0.4c-0.6-0.1-1.2-0.2-1.7-0.3c-1-0.2-1.6-0.4-1.9-0.6c-0.3-0.2-0.4-0.5-0.4-0.9
		c0-0.4,0.3-0.8,0.9-1c0.6-0.2,1.3-0.4,2.1-0.4c1,0,2,0.2,3,0.5c1,0.3,1.9,0.8,2.7,1.3h0.5v-4.1c-0.6-0.3-1.5-0.5-2.6-0.8
		c-1.1-0.2-2.3-0.4-3.5-0.4c-2.6,0-4.6,0.5-6.1,1.6c-1.5,1-2.2,2.4-2.2,3.9c0,1.2,0.4,2.2,1.1,3.1c0.7,0.8,1.8,1.4,3.3,1.8
		c0.5,0.1,1.1,0.3,1.8,0.4c0.7,0.1,1.2,0.2,1.6,0.3c0.8,0.2,1.4,0.3,1.7,0.5c0.3,0.2,0.4,0.5,0.4,0.9c0,0.4-0.2,0.8-0.7,1
		c-0.5,0.2-1.3,0.3-2.3,0.3c-0.8,0-1.5-0.1-2.2-0.2c-0.7-0.2-1.3-0.4-1.9-0.6c-0.6-0.3-1.1-0.5-1.5-0.7c-0.3-0.2-0.6-0.4-0.9-0.6
		h-0.5v4.3c0.7,0.3,1.7,0.6,2.9,0.9c1.2,0.3,2.5,0.4,4,0.4c2.6,0,4.7-0.5,6.2-1.6c1.5-1,2.3-2.4,2.3-4.1c0-1.2-0.3-2.1-1-2.9
		C210.5,315,209.5,314.4,208.1,314z M442,285v-3.6h-4.9v-4.7h-5.3v4.7h-2.2v3.6h2.2v7.7c0,2,0.5,3.4,1.5,4.2c1,0.8,2.5,1.2,4.6,1.2
		c0.9,0,1.7,0,2.3-0.1c0.6-0.1,1.2-0.2,1.8-0.3v-3.6h-0.4c-0.2,0.1-0.5,0.2-0.9,0.3c-0.4,0.1-0.8,0.2-1.1,0.2
		c-0.7,0-1.2-0.1-1.5-0.3c-0.3-0.2-0.6-0.5-0.7-0.8c-0.1-0.3-0.2-0.7-0.2-1.2c0-0.4,0-0.9,0-1.5V285H442z M249.3,306.9
		c-2.9,0-5.2,0.8-6.8,2.4c-1.7,1.6-2.5,3.7-2.5,6.4c0,2.7,0.9,4.8,2.6,6.3c1.8,1.5,4.3,2.2,7.6,2.2c1.3,0,2.4-0.1,3.5-0.3
		c1.1-0.2,2.2-0.6,3.4-1v-4.2h-0.6c-0.6,0.5-1.4,0.9-2.5,1.3c-1,0.4-2.1,0.6-3.2,0.6c-1.8,0-3.1-0.3-4-1c-0.9-0.7-1.4-1.7-1.5-2.9
		h12v-1.8c0-2.5-0.7-4.5-2-5.8C254,307.6,252,306.9,249.3,306.9z M245.3,313.5c0.1-1.2,0.4-2,1.1-2.5c0.7-0.5,1.5-0.8,2.5-0.8
		c1.1,0,1.9,0.3,2.4,0.8c0.5,0.6,0.8,1.4,0.8,2.5H245.3z M231.7,323.8h5.3v-16.4h-5.3V323.8z M241.8,296.9c0.4-0.3,0.8-0.6,1.1-0.8
		v1.7h5.2v-11.1c0-2-0.7-3.4-2-4.3c-1.3-0.9-3.5-1.4-6.5-1.4c-1.3,0-2.5,0.1-3.8,0.3c-1.2,0.2-2.2,0.4-2.7,0.5v4h0.5
		c0.4-0.2,1.1-0.4,2.1-0.7c1-0.3,1.9-0.5,2.8-0.5c1.4,0,2.5,0.2,3.3,0.5c0.7,0.3,1.1,1,1.1,1.9v0.1c-1.5,0.1-3,0.2-4.5,0.4
		c-1.4,0.2-2.6,0.5-3.6,0.9c-1,0.4-1.7,1-2.3,1.8c-0.5,0.8-0.8,1.7-0.8,2.9c0,1.5,0.5,2.7,1.6,3.7c1.1,1,2.4,1.4,3.9,1.4
		c0.7,0,1.3-0.1,1.8-0.2c0.6-0.1,1.1-0.3,1.6-0.5C240.9,297.4,241.3,297.2,241.8,296.9z M238.3,294.6c-0.3-0.1-0.6-0.2-0.8-0.4
		c-0.2-0.2-0.4-0.4-0.4-0.6c-0.1-0.2-0.1-0.5-0.1-0.8c0-0.5,0.1-0.9,0.4-1.2c0.3-0.3,0.7-0.6,1.2-0.7c0.4-0.1,1.1-0.3,1.9-0.4
		c0.8-0.1,1.6-0.2,2.3-0.2v3.4c-0.4,0.3-0.9,0.6-1.4,0.8c-0.5,0.2-1.1,0.3-1.6,0.3C239.1,294.7,238.6,294.7,238.3,294.6z
		 M231.6,305.1h5.6v-4h-5.6V305.1z M367.2,305.1h5.6v-4h-5.6V305.1z M438.8,314c-0.6-0.2-1.2-0.3-1.9-0.4c-0.6-0.1-1.2-0.2-1.7-0.3
		c-1-0.2-1.6-0.4-1.9-0.6c-0.3-0.2-0.4-0.5-0.4-0.9c0-0.4,0.3-0.8,0.9-1c0.6-0.2,1.3-0.4,2.1-0.4c1,0,2,0.2,3,0.5
		c1,0.3,1.9,0.8,2.7,1.3h0.5v-4.1c-0.6-0.3-1.5-0.5-2.6-0.8c-1.1-0.2-2.3-0.4-3.5-0.4c-2.6,0-4.6,0.5-6.1,1.6
		c-1.5,1-2.2,2.4-2.2,3.9c0,1.2,0.4,2.2,1.1,3.1c0.7,0.8,1.8,1.4,3.3,1.8c0.5,0.1,1.2,0.3,1.8,0.4c0.7,0.1,1.2,0.2,1.6,0.3
		c0.8,0.2,1.4,0.3,1.7,0.5c0.3,0.2,0.4,0.5,0.4,0.9c0,0.4-0.2,0.8-0.7,1c-0.5,0.2-1.3,0.3-2.3,0.3c-0.8,0-1.5-0.1-2.2-0.2
		c-0.7-0.2-1.3-0.4-1.9-0.6c-0.6-0.3-1.1-0.5-1.5-0.7c-0.3-0.2-0.7-0.4-0.9-0.6h-0.5v4.3c0.7,0.3,1.7,0.6,2.9,0.9
		c1.2,0.3,2.5,0.4,4,0.4c2.6,0,4.7-0.5,6.2-1.6c1.5-1,2.3-2.4,2.3-4.1c0-1.2-0.3-2.1-1-2.9C441.2,315,440.2,314.4,438.8,314z
		 M425.2,307.4c-0.7,0-1.5,0.2-2.4,0.5c-0.9,0.3-1.9,1-3,2v-2.4h-5.3v16.4h5.3v-11c0.7-0.2,1.3-0.4,1.8-0.5c0.6-0.1,1.2-0.1,2-0.1
		c0.3,0,0.7,0,1.2,0.1c0.5,0,0.9,0.1,1.1,0.2h0.5v-5c-0.2,0-0.4,0-0.6,0C425.6,307.4,425.4,307.4,425.2,307.4z M417.1,285.5
		c0.4,0.2,0.7,0.4,0.9,0.8c0.2,0.3,0.3,0.8,0.3,1.5c0.1,0.7,0.1,1.3,0.1,2v8.1h5.3v-10.7c0-2.1-0.5-3.6-1.5-4.6
		c-1-1-2.4-1.5-4.1-1.5c-1,0-2,0.2-2.9,0.6c-0.9,0.4-1.8,0.9-2.7,1.7v-1.8h-5.3v16.4h5.3v-11.6c0.6-0.3,1.1-0.6,1.6-0.7
		c0.5-0.2,1-0.2,1.5-0.2C416.2,285.3,416.7,285.3,417.1,285.5z M445.6,323.8h5.3v-16.4h-5.3V323.8z M445.5,305.1h5.6v-4h-5.6V305.1z
		 M475.4,318l-3.9-10.6h-5.5l6.4,16.3l-2.6,6.1h5.7l9.1-22.4h-5.4L475.4,318z M479.5,292.7c0.7-0.7,1.2-1.6,1.6-2.6
		c0.4-1.1,0.6-2.2,0.6-3.3v-1.6h-5.4v4.7l-4.5-3.9c1.1-0.3,1.9-0.7,2.6-1.2c0.6-0.4,1.1-0.9,1.5-1.4c0.3-0.5,0.6-1,0.7-1.5
		c0.1-0.5,0.2-1,0.2-1.5c0-0.7-0.2-1.3-0.5-1.9c-0.3-0.6-0.8-1.1-1.4-1.5c-0.6-0.4-1.4-0.8-2.3-1s-2-0.4-3.2-0.4
		c-1.4,0-2.6,0.2-3.6,0.5c-1,0.3-1.8,0.7-2.4,1.2c-0.6,0.5-1,1-1.3,1.6c-0.3,0.6-0.4,1.2-0.4,1.9c0,0.6,0.1,1.1,0.2,1.5
		c0.1,0.5,0.4,0.9,0.6,1.2c0.3,0.4,0.6,0.7,1,1.1c0.4,0.3,0.8,0.6,1.2,0.9c-0.4,0.2-0.9,0.5-1.4,0.9c-0.5,0.3-0.9,0.7-1.3,1.2
		c-0.4,0.5-0.7,1-1,1.6c-0.2,0.6-0.4,1.3-0.4,2.2c0,2,0.8,3.6,2.3,4.9c1.5,1.2,3.6,1.9,6.3,1.9c1.3,0,2.5-0.2,3.7-0.6
		c1.2-0.4,2.2-1,3.2-1.7l2,1.8h6.9v-0.3L479.5,292.7z M467.4,279.7c0.2-0.3,0.3-0.5,0.5-0.6c0.3-0.2,0.5-0.3,0.7-0.3
		c0.2,0,0.4-0.1,0.6-0.1c0.2,0,0.4,0,0.6,0.1c0.3,0,0.5,0.1,0.7,0.3c0.2,0.2,0.4,0.4,0.6,0.7c0.2,0.3,0.2,0.7,0.2,1.2
		c0,0.6-0.1,1.2-0.4,1.7c-0.3,0.5-0.7,1-1.2,1.4c-0.7-0.6-1.4-1.1-1.8-1.7c-0.5-0.5-0.7-1.1-0.7-1.7
		C467.2,280.4,467.3,280,467.4,279.7z M472,294.3c-0.5,0.1-1.1,0.2-1.8,0.2c-0.5,0-0.9-0.1-1.4-0.2c-0.5-0.2-0.9-0.4-1.3-0.7
		c-0.4-0.3-0.7-0.7-0.9-1.2c-0.3-0.5-0.4-1-0.4-1.7c0-0.6,0.1-1.2,0.4-1.7c0.3-0.5,0.5-0.8,0.7-1l6.2,5.5
		C473,293.9,472.5,294.2,472,294.3z M403.6,306.9c-2.9,0-5.2,0.8-6.8,2.4c-1.7,1.6-2.5,3.7-2.5,6.4c0,2.7,0.9,4.8,2.6,6.3
		c1.8,1.5,4.3,2.2,7.6,2.2c1.3,0,2.4-0.1,3.5-0.3c1.1-0.2,2.2-0.6,3.4-1v-4.2h-0.6c-0.6,0.5-1.4,0.9-2.5,1.3c-1,0.4-2.1,0.6-3.2,0.6
		c-1.8,0-3.1-0.3-4-1c-0.9-0.7-1.4-1.7-1.5-2.9h12v-1.8c0-2.5-0.7-4.5-2-5.8C408.2,307.6,406.2,306.9,403.6,306.9z M399.6,313.5
		c0.1-1.2,0.4-2,1.1-2.5c0.7-0.5,1.5-0.8,2.5-0.8c1.1,0,1.9,0.3,2.4,0.8c0.5,0.6,0.8,1.4,0.8,2.5H399.6z M460.7,302.8h-5.3v4.7h-2.2
		v3.6h2.2v7.7c0,2,0.5,3.4,1.5,4.2c1,0.8,2.5,1.2,4.6,1.2c0.9,0,1.7,0,2.3-0.1c0.6-0.1,1.2-0.2,1.8-0.3v-3.6h-0.4
		c-0.2,0.1-0.5,0.2-0.9,0.3c-0.4,0.1-0.8,0.2-1.1,0.2c-0.7,0-1.2-0.1-1.5-0.3c-0.3-0.2-0.6-0.5-0.7-0.8c-0.1-0.3-0.2-0.7-0.2-1.2
		c0-0.4,0-0.9,0-1.5V311h4.9v-3.6h-4.9V302.8z M337.3,319.1c-0.5,0.3-1,0.6-1.6,0.7c-0.5,0.2-1,0.2-1.5,0.2c-0.7,0-1.2-0.1-1.6-0.2
		c-0.4-0.2-0.7-0.4-0.8-0.8c-0.2-0.4-0.3-0.8-0.4-1.4c-0.1-0.5-0.1-1.2-0.1-2.1v-8.1h-5.3v10.7c0,2,0.5,3.6,1.5,4.6
		c1,1,2.4,1.6,4.2,1.6c1.1,0,2.1-0.2,2.9-0.6c0.8-0.4,1.7-0.9,2.7-1.7v1.8h5.3v-16.4h-5.3V319.1z M357.6,307c-1,0-2,0.2-2.9,0.6
		c-0.9,0.4-1.8,0.9-2.7,1.7v-1.8h-5.3v16.4h5.3v-11.6c0.6-0.3,1.1-0.6,1.6-0.7s1-0.2,1.5-0.2c0.7,0,1.2,0.1,1.6,0.2
		c0.4,0.2,0.7,0.4,0.9,0.8c0.2,0.3,0.3,0.8,0.3,1.5c0.1,0.7,0.1,1.3,0.1,2v8.1h5.3v-10.7c0-2.1-0.5-3.6-1.5-4.6
		C360.7,307.5,359.4,307,357.6,307z M400.2,296.9v-4.2h-0.6c-0.6,0.5-1.4,0.9-2.5,1.3c-1,0.4-2.1,0.6-3.2,0.6c-1.8,0-3.1-0.3-4-1
		c-0.9-0.7-1.4-1.7-1.5-2.9h12v-1.8c0-2.5-0.7-4.5-2-5.8c-1.3-1.3-3.3-2-6-2c-2.9,0-5.2,0.8-6.8,2.4c-1.7,1.6-2.5,3.7-2.5,6.4
		c0,2.7,0.9,4.8,2.6,6.3c1.7,1.5,4.3,2.2,7.6,2.2c1.3,0,2.4-0.1,3.5-0.3C397.9,297.8,399,297.4,400.2,296.9z M389.6,285
		c0.7-0.5,1.5-0.8,2.5-0.8c1.1,0,1.9,0.3,2.4,0.8c0.5,0.6,0.8,1.4,0.8,2.5h-6.8C388.6,286.4,388.9,285.5,389.6,285z M335.1,281
		c-2.9,0-5.2,0.8-6.8,2.4c-1.7,1.6-2.5,3.7-2.5,6.4c0,2.7,0.9,4.8,2.6,6.3c1.8,1.5,4.3,2.2,7.6,2.2c1.3,0,2.4-0.1,3.5-0.3
		c1-0.2,2.2-0.6,3.4-1v-4.2h-0.6c-0.6,0.5-1.4,0.9-2.5,1.3c-1,0.4-2.1,0.6-3.2,0.6c-1.8,0-3.1-0.3-4-1c-0.9-0.7-1.4-1.7-1.5-2.9h12
		v-1.8c0-2.5-0.7-4.5-2-5.8C339.7,281.6,337.7,281,335.1,281z M331,287.5c0.1-1.2,0.4-2,1.1-2.5c0.7-0.5,1.5-0.8,2.5-0.8
		c1.1,0,1.9,0.3,2.4,0.8c0.5,0.6,0.8,1.4,0.8,2.5H331z M367.3,323.8h5.3v-16.4h-5.3V323.8z M384.1,318.7l-3.8-11.3h-5.5l6.3,16.4h6
		l6.3-16.4h-5.4L384.1,318.7z M313.7,282.2c-0.6-0.4-1.3-0.7-2-0.9c-0.7-0.2-1.5-0.3-2.4-0.3c-1,0-1.9,0.2-2.9,0.6
		c-0.9,0.4-1.7,0.9-2.4,1.6c-0.7,0.7-1.2,1.6-1.6,2.6c-0.4,1-0.6,2.1-0.6,3.5c0,2.8,0.6,4.9,1.9,6.3c1.2,1.4,3,2.1,5.3,2.1
		c0.9,0,1.8-0.2,2.6-0.5c0.8-0.3,1.5-0.7,2.1-1.2v0.3c0,0.7-0.1,1.3-0.2,1.8c-0.1,0.5-0.4,0.9-0.7,1.2c-0.3,0.3-0.8,0.6-1.4,0.8
		c-0.6,0.2-1.4,0.3-2.4,0.3c-0.7,0-1.6-0.1-2.5-0.3c-0.9-0.2-1.7-0.4-2.3-0.7h-0.6v4.1c0.8,0.2,1.8,0.4,2.9,0.5
		c1.1,0.1,2.2,0.2,3.4,0.2c1.4,0,2.7-0.1,3.8-0.4c1.1-0.3,2.1-0.7,2.9-1.3c0.8-0.6,1.4-1.4,1.8-2.5c0.4-1,0.7-2.3,0.7-3.9v-14.5
		h-5.1L313.7,282.2z M313.7,292.7c-0.4,0.3-0.9,0.5-1.4,0.7c-0.5,0.2-1,0.2-1.5,0.2c-1.2,0-2-0.3-2.6-0.9c-0.6-0.6-0.9-1.7-0.9-3.3
		c0-1.4,0.3-2.5,1-3.3c0.7-0.8,1.7-1.2,3.1-1.2c0.3,0,0.7,0,1.2,0.1c0.4,0.1,0.8,0.2,1.1,0.3V292.7z M368.6,285.3
		c0.7,0,1.2,0.1,1.5,0.2c0.4,0.2,0.6,0.4,0.8,0.8c0.2,0.4,0.3,0.8,0.3,1.4c0,0.6,0.1,1.2,0.1,2v8.2h5.3v-10.7c0-2-0.5-3.5-1.4-4.6
		c-0.9-1.1-2.3-1.6-4-1.6c-1,0-1.9,0.3-2.9,0.8c-1,0.5-2,1.2-3.1,2.1c-0.5-0.9-1.1-1.6-1.9-2.1c-0.8-0.5-1.8-0.7-2.9-0.7
		c-1,0-1.9,0.2-2.7,0.6c-0.8,0.4-1.7,1-2.6,1.7v-1.8h-5.3v16.4h5.3v-11.6c0.4-0.2,0.8-0.5,1.3-0.7c0.5-0.2,1-0.3,1.5-0.3
		c0.6,0,1.1,0.1,1.5,0.2c0.4,0.2,0.6,0.4,0.8,0.8c0.2,0.4,0.3,0.8,0.3,1.4c0,0.6,0.1,1.2,0.1,2v8.2h5.3v-11.6
		c0.6-0.4,1.1-0.6,1.5-0.8C367.7,285.3,368.2,285.3,368.6,285.3z M436.8,245.3c4.9,0,9-0.8,12.5-2.5c3.5-1.7,7.4-4.1,11.6-7.3v7.9
		h22.9v-71.2h-22.9v50.5c-2.2,1.4-4.5,2.5-6.9,3.2c-2.4,0.7-4.5,1.1-6.5,1.1c-2.9,0-5.2-0.4-6.8-1.1c-1.6-0.7-2.8-1.9-3.6-3.4
		c-0.8-1.6-1.4-3.5-1.6-5.9c-0.2-2.4-0.3-5.4-0.3-9v-35.3h-22.9v46.4c0,8.8,2.1,15.5,6.4,20C422.9,243.1,428.9,245.3,436.8,245.3z
		 M387.8,238.6c6.6-4.5,9.9-10.4,9.9-17.8c0-5-1.4-9.2-4.3-12.6c-2.9-3.4-7.3-5.8-13.3-7.4c-2.7-0.7-5.4-1.2-8.1-1.7
		c-2.7-0.4-5.2-0.9-7.5-1.4c-4.2-0.9-6.9-1.8-8.1-2.7c-1.1-0.9-1.7-2.2-1.7-3.9c0-1.9,1.3-3.3,3.8-4.3c2.5-1,5.6-1.5,9.3-1.5
		c4.4,0,8.8,0.7,13.2,2.2c4.3,1.5,8.2,3.4,11.6,5.7h2v-18c-2.7-1.2-6.6-2.4-11.4-3.5c-4.9-1.1-10-1.6-15.3-1.6
		c-11.3,0-20.1,2.3-26.6,6.8c-6.5,4.5-9.7,10.2-9.7,17.1c0,5.3,1.6,9.8,4.7,13.4c3.1,3.6,7.9,6.2,14.4,7.9c2.4,0.6,5,1.2,7.9,1.6
		c2.9,0.4,5.2,0.9,6.9,1.2c3.6,0.7,6,1.5,7.2,2.3c1.3,0.8,1.9,2,1.9,3.8c0,1.9-1.1,3.4-3.2,4.4c-2.2,1-5.5,1.5-10,1.5
		c-3.4,0-6.6-0.4-9.6-1c-3-0.7-5.7-1.5-8.1-2.5c-2.7-1.1-4.9-2.1-6.4-3.1c-1.5-1-2.8-1.8-4-2.6H331v18.8c3.1,1.4,7.3,2.7,12.4,3.9
		c5.2,1.2,10.9,1.8,17.3,1.8C372.1,245.3,381.2,243.1,387.8,238.6z M221.1,192.9c1.7-1,3.6-2,5.7-2.9c2.1-0.9,4.3-1.4,6.5-1.4
		c2.8,0,5,0.4,6.5,1c1.5,0.7,2.7,1.8,3.5,3.3c0.8,1.5,1.2,3.5,1.4,5.9c0.2,2.4,0.3,5.4,0.3,8.9v35.6h22.9v-50.5
		c2.6-1.5,4.8-2.6,6.7-3.3c1.8-0.7,3.7-1,5.6-1c2.8,0,5,0.4,6.6,1c1.6,0.7,2.7,1.8,3.4,3.3c0.8,1.5,1.2,3.5,1.4,5.9
		c0.1,2.4,0.2,5.4,0.2,8.9v35.6h22.9V197c0-8.7-2-15.3-6-19.9c-4-4.6-9.8-6.9-17.5-6.9c-4.1,0-8.4,1.1-12.7,3.3
		c-4.3,2.2-8.7,5.2-13.3,9.1c-2-4.1-4.8-7.1-8.4-9.2c-3.6-2.1-7.7-3.1-12.4-3.1c-4.4,0-8.3,0.9-11.9,2.6c-3.6,1.7-7.3,4.1-11.3,7.2
		v-7.9h-22.9v71.2h22.9V192.9z"/>
	<g>
		<path class="st0" d="M198.3,259.9v5.2h285.5v-5.2H198.3z M142.3,210.9c20.4-9.9,24.9,20.4-8.1,21.3c27,7.8,41.3-7.1,37.5-21.9
			c-2.2-8.4-14.3-15.7-22.5-8.8c4.1-9.9-6.6-19.2-15.3-18.7c-15.3,0.9-25,19.1-9.3,42.4C115.2,193.5,145.3,188.5,142.3,210.9z
			 M139.8,249.7c27.3-18.7,41.4,8.4,19.1,12.5c15.7,16.4-11.6,30-22.8-1.1c1,28.1,19.5,37.1,32.4,28.8c7.4-4.7,10.5-18.5,1.4-24.1
			c10.7,0.8,16.2-12.2,13.1-20.3C177.4,231.2,157.1,227.6,139.8,249.7z M121.3,271.8c26.2,20.2,4.8,41.9-6,22V172.1H14.9v151.8
			h100.4v-18.4c2.5,10.4,16.6,11.7,23.4,6.1C150.5,301.9,147.7,281.4,121.3,271.8z"/>
		<path class="st1" d="M43,193.1c0-1.5-1.2-2.8-2.8-2.8s-2.8,1.2-2.8,2.8c0,1.5,1.2,2.8,2.8,2.8S43,194.6,43,193.1z M27,188.7
			c-2.4,0-4.4,2-4.4,4.4c0,2.4,2,4.4,4.4,4.4c2.4,0,4.4-2,4.4-4.4C31.5,190.7,29.5,188.7,27,188.7z M59.1,201.7
			c1.5,0,2.8-1.2,2.8-2.8s-1.2-2.8-2.8-2.8c-1.5,0-2.8,1.2-2.8,2.8S57.5,201.7,59.1,201.7z M50.5,198.6c1.5,0,2.8-1.2,2.8-2.8
			s-1.2-2.8-2.8-2.8c-1.5,0-2.8,1.2-2.8,2.8S49,198.6,50.5,198.6z M34.8,198.3c-1.5,0-2.8,1.2-2.8,2.8c0,1.5,1.2,2.8,2.8,2.8
			c1.5,0,2.8-1.2,2.8-2.8C37.5,199.6,36.3,198.3,34.8,198.3z M56.3,208c0-1.5-1.2-2.8-2.8-2.8c-1.5,0-2.8,1.2-2.8,2.8
			c0,1.5,1.2,2.8,2.8,2.8C55.1,210.8,56.3,209.5,56.3,208z M44.7,201.4c-1.5,0-2.8,1.2-2.8,2.8c0,1.5,1.2,2.8,2.8,2.8
			s2.8-1.2,2.8-2.8C47.5,202.6,46.2,201.4,44.7,201.4z M115.3,244.9c-13.5-15.5-28.3-26.1-40.9-33.3c2.6-2.8,7.5-3.7,14-0.6
			c-3.1-22.4,27.1-17.4,17.7,14.3c15.7-23.3,6-41.5-9.3-42.4c-8.7-0.5-19.4,8.8-15.3,18.7c-6.4-5.4-15.2-2.2-19.8,3.5
			c-11.4-5.2-19-7-19-7l-1.2,0.7c4.9,1.7,11.5,4.3,19.1,8c-0.7,1.1-1.2,2.3-1.5,3.5c-3.9,14.8,10.5,29.7,37.5,21.9
			c-20.2-0.6-26.3-12.1-23.4-18.7c13.7,8.2,28.9,20.2,42.2,37.5L115.3,244.9z M71.8,262.2c-22.3-4-8.2-31.1,19.1-12.5
			c-17.3-22.2-37.6-18.5-43.2-4.3c-3.2,8.1,2.3,21.2,13.1,20.3c-9.2,5.6-6,19.4,1.4,24.1c12.9,8.3,31.5-0.8,32.4-28.8
			C83.4,292.2,56.1,278.5,71.8,262.2z M109.4,271.8c-26.4,9.6-29.2,30-17.4,39.8c6.7,5.5,20.8,4.3,23.4-6.1v-11.6
			C104.6,313.8,83.2,292,109.4,271.8z"/>
	</g>
</g>
</svg>
