<?xml version="1.0" encoding="utf-8"?>
<!-- Generator: Adobe Illustrator 24.0.0, SVG Export Plug-In . SVG Version: 6.00 Build 0)  -->
<svg version="1.1" id="_x31_" xmlns="http://www.w3.org/2000/svg" xmlns:xlink="http://www.w3.org/1999/xlink" x="0px" y="0px"
	 viewBox="0 0 500 194" style="enable-background:new 0 0 500 194;" xml:space="preserve">
<style type="text/css">
	.st0{fill:#2962A7;}
	.st1{fill-rule:evenodd;clip-rule:evenodd;fill:#2962A7;}
	.st2{fill-rule:evenodd;clip-rule:evenodd;fill:#FBD021;}
	.st3{fill-rule:evenodd;clip-rule:evenodd;fill:#FFFFFF;}
	.st4{fill:#FFFFFF;}
	.st5{fill:#FBD021;}
</style>
<g>
	<path class="st0" d="M454.6,163.9l1.7-2.2c1.1,0.7,1.7,1.3,2.7,1.4c1.4,0.1,2.7,0.1,2.7-1c0-0.8-1.8-1.2-3.4-1.8
		c-1.6-0.7-3-1.9-2.9-3.9c0-0.7,0.5-1.6,1-2.1c1-1,2.4-1.4,3.9-1.4c1.6,0,3,0.5,4.4,1.3l-1.3,2.6c-1.1-0.9-4.7-2-4.7-0.4
		c0,1,1.7,1.2,3.3,2c1.7,0.8,3.1,1.7,3.1,3.7c0,2.7-2.6,3.7-4.9,3.7C457.9,165.8,455.9,164.8,454.6,163.9 M384.2,166.3h-3.5v-16.8
		h3.9l4.4,6.9l4.4-6.9h3.9v16.8h-3.5v-10.6h-0.3l-4.4,6.7l-4.4-6.7h-0.3v10.6H384.2z M480,162.1c0,0.9,1.1,1.5,2,1.5
		c1.7,0.1,2.8-1,2.9-2.2v-0.8c-0.5-0.3-1.5-0.5-2.5-0.5C481.1,160.1,480,160.7,480,162.1z M488.2,165.4h-3.4v-1.1
		c-1.4,1.4-2.5,1.4-4.1,1.4c-2.1,0-4.2-1.4-4.1-3.8c0.1-2.9,2.5-4.1,5.2-3.9c1.1,0.1,2.1,0.4,3.1,0.5c0.1-1.9-1.1-2.5-2.4-2.6
		s-2.9,0.3-3.6,0.8l-1.2-2.5c1.8-0.9,3.8-1.5,5.8-1.2c2.5,0.3,4.8,1.7,4.8,5.1L488.2,165.4L488.2,165.4z M472.6,151.9h-3.8v-3h3.8
		V151.9z M472.6,165.7h-3.8v-12.4h3.8V165.7z M428.4,162.1c0,0.9,1.1,1.5,2,1.5c1.7,0.1,2.8-1,2.9-2.2v-0.8
		c-0.5-0.3-1.5-0.5-2.5-0.5C429.5,160.1,428.4,160.7,428.4,162.1z M436.6,165.4h-3.4v-1.1c-1.4,1.4-2.5,1.4-4.1,1.4
		c-2.1,0-4.2-1.4-4.1-3.8c0.1-2.9,2.5-4.1,5.2-3.9c1.1,0.1,2.1,0.4,3.1,0.5c0.1-1.9-1.1-2.5-2.4-2.6s-2.9,0.3-3.6,0.8l-1.2-2.5
		c1.8-0.9,3.8-1.5,5.8-1.2c2.5,0.3,4.8,1.7,4.8,5.1L436.6,165.4L436.6,165.4z M404.9,162.1c0,0.9,1.1,1.5,2,1.5
		c1.7,0.1,2.8-1,2.9-2.2v-0.8c-0.5-0.3-1.5-0.5-2.5-0.5C406,160.1,404.9,160.7,404.9,162.1z M413.2,165.4h-3.4v-1.1
		c-1.4,1.4-2.5,1.4-4.1,1.4c-2.1,0-4.2-1.4-4.1-3.8c0.1-2.9,2.5-4.1,5.2-3.9c1.1,0.1,2.1,0.4,3.1,0.5c0.1-1.9-1.1-2.5-2.4-2.6
		s-2.9,0.3-3.6,0.8l-1.2-2.5c1.8-0.9,3.8-1.5,5.8-1.2c2.5,0.3,4.8,1.7,4.8,5.1L413.2,165.4L413.2,165.4z M452.7,153.3l-5,13.2
		c-0.4,0.9-0.7,1.8-1.4,2.5c-1.4,1.5-4.4,1.3-5.9,0l1.2-2.6c0.5,0.4,1.6,0.9,2.5,0.3c0.3-0.2,0.5-0.5,0.2-1.3l-5-12.2h4.2l2.3,7.4
		c0.1,0.5,0.3,1,0.3,1.6h0.1c0.1-0.5,0.2-1,0.4-1.6l2.3-7.5h3.8V153.3z M421.2,165.7h-3.7v-17.3h3.7V165.7z M359.2,162.1
		c0,0.9,1.1,1.5,2,1.5c1.7,0.1,2.8-1,2.9-2.2v-0.8c-0.5-0.3-1.5-0.5-2.5-0.5C360.3,160.1,359.2,160.7,359.2,162.1z M367.5,165.4
		h-3.4v-1.1c-1.4,1.4-2.5,1.4-4.1,1.4c-2.1,0-4.2-1.4-4.1-3.8c0.1-2.9,2.5-4.1,5.2-3.9c1.1,0.1,2.1,0.4,3.1,0.5
		c0.1-1.9-1.1-2.5-2.4-2.6s-2.9,0.3-3.6,0.8l-1.2-2.5c1.8-0.9,3.8-1.5,5.8-1.2c2.5,0.3,4.8,1.7,4.8,5.1L367.5,165.4L367.5,165.4z
		 M353.7,156.8c-2.9-0.1-4,1.7-4,4v4.9h-3.6v-12.4h3.6v2.3l0,0c0.6-1.7,1.6-2.5,3.1-2.5c0.4,0,0.7,0.1,0.9,0.1V156.8z M326.6,165.3
		c-0.5,0.3-1.3,0.4-2.4,0.4c-2.5,0-3.8-0.7-3.8-4.2v-5.7h-1.9V153h1.9v-3.3h3.6v3.3h2.6v2.8H324v5c0,2.1,0.8,1.9,1.4,1.9
		c0.4,0,0.8-0.1,1.2-0.4V165.3z M315,158.9c0,5-2.4,7.4-7.3,7.4c-4.7,0-7.1-2.4-7.1-7.3v-9.5h3.9v9.6c0,2.7,1.1,4,3.3,4
		c2.1,0,3.2-1.3,3.2-3.9v-9.7h3.9v9.4H315z M333.4,162.1c0,0.9,1.1,1.5,2,1.5c1.7,0.1,2.8-1,2.9-2.2v-0.8c-0.5-0.3-1.5-0.5-2.5-0.5
		C334.5,160.1,333.4,160.7,333.4,162.1z M341.6,165.4h-3.4v-1.1c-1.4,1.4-2.5,1.4-4.1,1.4c-2.1,0-4.2-1.4-4.1-3.8
		c0.1-2.9,2.5-4.1,5.2-3.9c1.1,0.1,2.1,0.4,3.1,0.5c0.1-1.9-1.1-2.5-2.4-2.6s-2.9,0.3-3.6,0.8l-1.2-2.5c1.8-0.9,3.8-1.5,5.8-1.2
		c2.5,0.3,4.8,1.7,4.8,5.1L341.6,165.4L341.6,165.4z M180.2,158.9c0,5-2.4,7.4-7.3,7.4c-4.7,0-7.1-2.4-7.1-7.3v-9.5h3.9v9.6
		c0,2.7,1.1,4,3.3,4c2.1,0,3.2-1.3,3.2-3.9v-9.7h3.9v9.4H180.2z M196.3,165.7h-3.7v-6.9c0-1.9-0.7-2.9-2-2.9c-0.6,0-1.2,0.3-1.6,0.8
		c-0.4,0.5-0.6,1.2-0.6,1.9v7.1h-3.7v-12.4h3.7v2l0,0c0.9-1.5,2.2-2.3,3.9-2.3c2.7,0,4,1.7,4,5.1L196.3,165.7L196.3,165.7z
		 M204.9,151.9h-3.8v-3h3.8V151.9z M204.9,165.7h-3.8v-12.4h3.8V165.7z M221.5,153.3l-4.6,12.4h-4.4l-4.4-12.4h4.1l2.2,7.7
		c0.2,0.9,0.4,1.6,0.4,2.2h0.1c0.1-0.6,0.2-1.3,0.4-2.1l2.2-7.7h4V153.3z M235.6,160.3h-8.8c0.1,1.8,1.1,2.9,3.3,2.9
		c1.4,0,2.4-0.4,3.1-1.2l1.9,1.8c-1.1,1.1-2.8,1.9-5.2,1.9c-2.1,0-3.7-0.6-4.8-1.7s-1.7-2.7-1.7-4.6c0-3.7,2.6-6.6,6.4-6.6
		c3.4,0,5.8,2.3,5.8,5.9V160.3z M232.3,158.5c0-1.9-1.5-2.8-2.5-2.8c-0.7,0-1.3,0.3-1.9,0.8c-0.5,0.5-0.8,1.2-1,2H232.3z
		 M247.5,156.8c-2.9-0.1-4,1.7-4,4v4.9h-3.6v-12.4h3.6v2.3l0,0c0.6-1.7,1.6-2.5,3.1-2.5c0.4,0,0.7,0.1,0.9,0.1V156.8z M249.8,163.9
		l1.7-2.2c1.1,0.7,1.7,1.3,2.7,1.4c1.4,0.1,2.7,0.1,2.7-1c0-0.8-1.8-1.2-3.4-1.8c-1.6-0.7-3-1.9-2.9-3.9c0-0.7,0.5-1.6,1-2.1
		c1-1,2.4-1.4,3.9-1.4c1.6,0,3,0.5,4.4,1.3l-1.3,2.6c-1.1-0.9-4.7-2-4.7-0.4c0,1,1.7,1.2,3.3,2c1.7,0.8,3.1,1.7,3.1,3.7
		c0,2.7-2.6,3.7-4.9,3.7C253,165.8,251.1,164.8,249.8,163.9z M267.7,151.9h-3.8v-3h3.8V151.9z M267.7,165.7h-3.8v-12.4h3.8V165.7z
		 M279.4,165.3c-0.5,0.3-1.3,0.4-2.4,0.4c-2.5,0-3.8-0.7-3.8-4.2v-5.7h-1.9V153h1.9v-3.3h3.6v3.3h2.6v2.8h-2.6v5
		c0,2.1,0.8,1.9,1.4,1.9c0.4,0,0.8-0.1,1.2-0.4L279.4,165.3L279.4,165.3z M287.5,151.9h-3.8v-3h3.8V151.9z M287.5,165.7h-3.8v-12.4
		h3.8V165.7z M165.9,133.8h322.3v3.2H165.9V133.8z M341.9,20.9h21.9v58c0,14.9-3.8,26.3-11.4,34s-18.4,11.6-32.5,11.6
		c-13.9,0-24.8-3.9-32.5-11.7c-7.7-7.8-11.6-19-11.6-33.7V20.9h22v58.8c0,7.1,2,12.8,6,17.1s9.3,6.4,15.8,6.4
		c6.8,0,12.2-2.2,16.2-6.6c4.1-4.4,6.1-10.6,6.1-18.7V20.9z M232,20.9h21.9v58c0,14.9-3.8,26.3-11.4,34
		c-7.6,7.7-18.4,11.6-32.5,11.6c-13.9,0-24.8-3.9-32.5-11.7c-7.7-7.8-11.6-19-11.6-33.7V20.9h22v58.8c0,7.1,2,12.8,6,17.1
		s9.3,6.4,15.8,6.4c6.8,0,12.2-2.2,16.2-6.6C230,92.2,232,86,232,77.9V20.9z M437.6,63.9l-26.9-43h-23.8v102.2h23.5V59.3l27.2,40.9
		l0,0l0,0l27.2-40.9v63.8h23.5V20.9h-23.8L437.6,63.9L437.6,63.9L437.6,63.9z"/>
	<g>
		<path class="st1" d="M82,9.8c38.8,0,70.3,39.1,70.3,87.2s-31.5,87.2-70.3,87.2S11.7,145.1,11.7,97S43.2,9.8,82,9.8"/>
		<path class="st2" d="M82,11.6c37.8,0,68.5,38.2,68.5,85.4s-30.7,85.4-68.5,85.4S13.5,144.2,13.5,97S44.2,11.6,82,11.6"/>
		<path class="st1" d="M82,25.8c30.4,0,55,31.9,55,71.2s-24.7,71.2-55,71.2c-30.4,0-55-31.9-55-71.2S51.6,25.8,82,25.8"/>
		<path class="st3" d="M82,27.6c29.4,0,53.2,31.1,53.2,69.4s-23.8,69.4-53.2,69.4S28.8,135.3,28.8,97S52.6,27.6,82,27.6"/>
		<path class="st1" d="M82,29.3c28.3,0,51.2,30.3,51.2,67.7s-22.9,67.7-51.2,67.7S30.8,134.4,30.8,97S53.8,29.3,82,29.3"/>
		<path class="st3" d="M82,30.6c27.5,0,49.9,29.7,49.9,66.4s-22.3,66.4-49.9,66.4c-27.5,0-49.9-29.7-49.9-66.4
			C32.2,60.3,54.5,30.6,82,30.6"/>
		<path class="st2" d="M122.3,61.1L122.3,61.1c-14.4-3.2-30-8.8-40.3-20.5l0,0l0,0l0,0l0,0l0,0l0,0C71.7,52.3,56.1,57.9,41.7,61.1
			l0,0l0,0V115c0,8.9,2.7,18.7,8.2,25.9c7.3,9.8,19.3,14.6,32.1,14.5l0,0l0,0c12.8,0.1,24.8-4.7,32.1-14.5c5.4-7.2,8.2-17,8.2-25.9
			L122.3,61.1L122.3,61.1z"/>
		<path class="st1" d="M119.7,63L119.7,63c-13.5-3.1-28.1-8.3-37.7-19.5l0,0l0,0l0,0l0,0l0,0l0,0C72.4,54.6,57.8,59.9,44.3,63l0,0
			l0,0v51.2c0,8.5,2.6,17.7,7.6,24.6c6.9,9.3,18.1,13.9,30,13.8l0,0l0,0c12,0.1,23.2-4.5,30-13.8c5.1-6.9,7.6-16.2,7.6-24.6V63
			H119.7z"/>
		<path class="st4" d="M79.3,53.1v44.8h5.4V53.1l-2.7-3L79.3,53.1z M93.8,57.2v27.5c0,3.7,0.4,6.7,2.7,9.7c1.9,2.6,4.4,4.1,7.8,4.4
			c2.7,0.2,5.6-0.1,8.5-1.1l2.4,5.4c-13,4.7-27.2-0.1-27.2-17.6V54.1L93.8,57.2z M108.4,108.6h-5.3v7.5c0,5.3-0.8,10-2.8,13.8
			c-7.4,14.2-29.2,14.2-36.6,0c-2-3.8-2.8-8.4-2.8-13.8v-7.5h-5.3v9.1c0,8.5,2.1,14.6,5.6,18.9c10.5,12.8,31,12.8,41.4,0
			c3.6-4.3,5.6-10.4,5.6-18.9v-9.1H108.4z M82,132.1L82,132.1c-13.7-0.3-12.9-11.9-12.8-19.9v-6.1l-5.4,2.5v7.9
			c0,11,3.7,21,18.2,21.5c14.5-0.5,18.2-10.5,18.2-21.5v-7.9l-5.4-2.5v6.1C94.9,120.2,95.8,131.8,82,132.1z M70.3,57.2v27.5
			c0,3.7-0.4,6.7-2.7,9.7c-1.9,2.6-4.4,4.1-7.8,4.4c-2.7,0.2-5.6-0.1-8.5-1.1l-2.4,5.4c13,4.7,27.2-0.1,27.2-17.6V54.1L70.3,57.2z"
			/>
		<path class="st5" d="M90.1,119.6c0,0,0.1,9-7.4,7.4c0.2-0.8-0.7-3.7,1.4-5.6C85.2,120.4,86.6,119.4,90.1,119.6 M90.1,111.2
			c0,0,0.1,9-7.4,7.4c0.2-0.8-0.7-3.7,1.4-5.6C85.2,112.1,86.6,111.1,90.1,111.2z M73.9,111.2c0,0-0.1,9,7.4,7.4
			c-0.2-0.8,0.7-3.7-1.4-5.6C78.9,112.1,77.5,111.1,73.9,111.2z M73.9,102.9c0,0-0.1,9,7.4,7.4c-0.2-0.8,0.7-3.7-1.4-5.6
			C78.9,103.7,77.5,102.7,73.9,102.9z M90.1,102.9c0,0,0.1,9-7.4,7.4c0.2-0.8-0.7-3.7,1.4-5.6C85.2,103.7,86.6,102.7,90.1,102.9z
			 M73.9,119.6c0,0-0.1,9,7.4,7.4c-0.2-0.8,0.7-3.7-1.4-5.6C78.9,120.4,77.5,119.4,73.9,119.6z"/>
		<path class="st0" d="M129.7,153.5l0.2,0.1l-2.5,3.1l-0.2-0.1l0.2-0.2c0.1-0.2,0.2-0.3,0.2-0.5c0-0.1,0-0.2-0.1-0.3
			c0-0.1-0.2-0.3-0.5-0.5l-3.8-3.1c-0.3-0.2-0.5-0.4-0.6-0.4s-0.2,0-0.4,0c-0.1,0.1-0.3,0.2-0.4,0.3l-0.2,0.2l-0.2-0.1l2.5-3.1
			l0.2,0.1l-0.2,0.2c-0.1,0.2-0.2,0.3-0.2,0.5c0,0.1,0,0.2,0.1,0.3c0,0.1,0.2,0.2,0.5,0.5l3.8,3.1c0.3,0.2,0.5,0.4,0.6,0.4
			s0.2,0,0.4,0c0.1,0,0.3-0.2,0.4-0.3L129.7,153.5z M121.3,152l1.5,1.4l-0.1,0.1c-0.4-0.2-0.8-0.4-1-0.4s-0.5,0-0.8,0.1
			c-0.1,0.1-0.3,0.2-0.6,0.5l-0.4,0.4l4.3,3.9c0.3,0.3,0.5,0.4,0.6,0.4s0.2,0,0.4,0c0.1,0,0.3-0.1,0.4-0.3l0.2-0.2l0.2,0.1l-2.6,2.9
			l-0.2-0.1l0.2-0.2c0.1-0.2,0.2-0.3,0.3-0.5c0-0.1,0-0.2,0-0.3c0-0.1-0.2-0.3-0.5-0.5l-4.3-3.9l-0.4,0.4c-0.3,0.4-0.5,0.7-0.5,1
			c0,0.4,0.2,0.9,0.5,1.3l-0.1,0.2l-1.5-1.4L121.3,152z M116,161.5l4.2,0.8c0.6,0.1,1,0.2,1.3,0.1c0.2,0,0.4-0.1,0.6-0.3l0.1,0.2
			l-3,2.5l-0.1-0.2c0.2-0.2,0.3-0.3,0.3-0.4s0-0.2,0-0.2c-0.1-0.1-0.4-0.2-1-0.3l-2.7-0.6l-0.1,0.4l1.3,1.6c0.3,0.3,0.4,0.5,0.5,0.5
			s0.2,0.1,0.4,0c0.1,0,0.3-0.1,0.5-0.3l0.1,0.2l-2.9,2.4l-0.1-0.2l0.2-0.2c0.2-0.1,0.3-0.3,0.3-0.4s0-0.2,0-0.3
			c0-0.1-0.2-0.3-0.4-0.6l-3.2-3.8c-0.2-0.3-0.4-0.5-0.5-0.5s-0.2-0.1-0.4,0c-0.1,0-0.3,0.1-0.5,0.2l-0.2,0.2l-0.1-0.2l2.9-2.4
			l0.1,0.2c-0.2,0.2-0.3,0.3-0.4,0.5c0,0.1,0,0.2,0,0.3c0,0.1,0.2,0.3,0.4,0.6l1.5,1.8l0.7-3.5c0.1-0.5,0.1-0.8,0-1
			c-0.1-0.1-0.2-0.1-0.4-0.1c-0.1,0-0.3,0.1-0.5,0.3l-0.1-0.2l2.2-1.9l0.1,0.2c-0.2,0.2-0.3,0.4-0.4,0.5c-0.1,0.2-0.2,0.6-0.3,1.3
			L116,161.5z M110.8,167.9l-2.3-1.6l0.4,2.8L110.8,167.9z M111.2,168.1l-2.2,1.4l0.1,0.8c0,0.3,0.1,0.5,0.2,0.6
			c0.1,0.2,0.3,0.3,0.5,0.3c0.1,0,0.3-0.1,0.7-0.3l0.1,0.2l-2.1,1.4l-0.1-0.2c0.2-0.2,0.3-0.4,0.4-0.6c0-0.2,0-0.7-0.1-1.3l-1-6.5
			l0.1-0.1l5.6,3.7c0.5,0.4,0.9,0.5,1.1,0.6c0.2,0,0.4,0,0.6-0.1l0.1,0.2l-3.1,2L112,170l0.1-0.1c0.2-0.2,0.4-0.3,0.4-0.4
			s0-0.2,0-0.3c0-0.1-0.1-0.1-0.1-0.2c0,0-0.1-0.1-0.4-0.3L111.2,168.1z M102.6,171.1l1.1,2.1l0.1,0.2c0.1,0.2,0.2,0.3,0.3,0.3
			c0.1,0,0.3,0,0.5-0.1c0.3-0.1,0.5-0.3,0.6-0.5c0.2-0.2,0.2-0.5,0.3-0.8c0-0.3-0.1-0.6-0.2-0.8c-0.2-0.3-0.4-0.6-0.6-0.7
			c-0.3-0.2-0.6-0.2-0.9-0.2C103.5,170.7,103.1,170.9,102.6,171.1z M102.4,170.7c0.5-0.2,0.8-0.5,1-0.7s0.3-0.5,0.3-0.7
			c0-0.3,0-0.5-0.2-0.8c-0.1-0.3-0.3-0.5-0.5-0.6s-0.5-0.2-0.7-0.2c-0.3,0-0.6,0.1-1.1,0.4L102.4,170.7z M104.3,169.9
			c0.7-0.2,1.2-0.2,1.6-0.1c0.5,0.1,0.9,0.4,1.1,0.9c0.3,0.5,0.3,1,0,1.6c-0.3,0.7-0.9,1.2-1.9,1.7l-3.4,1.7l-0.1-0.2
			c0.3-0.2,0.5-0.3,0.6-0.4s0.1-0.2,0.1-0.3c0-0.1-0.1-0.4-0.3-0.7l-2.2-4.3c-0.2-0.4-0.3-0.6-0.4-0.7s-0.2-0.1-0.3-0.1
			c-0.1,0-0.4,0.1-0.7,0.2l-0.1-0.2l3.2-1.6c0.8-0.4,1.3-0.6,1.7-0.6c0.4,0,0.7,0,1.1,0.2c0.3,0.2,0.6,0.4,0.7,0.7
			c0.2,0.3,0.2,0.7,0.1,1C105.1,169.1,104.8,169.5,104.3,169.9z M93.1,177.9v0.2l-3.9,0.7v-0.2h0.2c0.2,0,0.4-0.1,0.5-0.2
			s0.1-0.2,0.2-0.3c0-0.1,0-0.3-0.1-0.7l-0.9-4.9c-0.1-0.4-0.1-0.6-0.2-0.7s-0.2-0.2-0.3-0.2c-0.1,0-0.3-0.1-0.5,0h-0.2v-0.2
			l3.9-0.7v0.2h-0.2c-0.2,0-0.4,0.1-0.5,0.2s-0.1,0.2-0.2,0.3c0,0.1,0,0.3,0.1,0.7l0.9,4.9c0.1,0.4,0.1,0.6,0.2,0.7s0.2,0.2,0.3,0.2
			c0.1,0.1,0.3,0.1,0.5,0H93.1z M83.6,172.1l0.2,5.9c0,0.3,0,0.5,0.1,0.6c0,0.1,0.1,0.1,0.2,0.2s0.2,0.1,0.4,0.1
			c0.6,0,1.1-0.2,1.4-0.7c0.4-0.6,0.6-1.5,0.6-2.7c0-1-0.2-1.7-0.5-2.3c-0.3-0.4-0.6-0.7-1-0.9C84.6,172.1,84.2,172.1,83.6,172.1z
			 M81,179.3v-0.2h0.2c0.2,0,0.4,0,0.5-0.1s0.2-0.2,0.2-0.3c0-0.1,0-0.3,0-0.7l-0.2-4.9c0-0.4,0-0.6-0.1-0.7c0-0.1-0.1-0.2-0.3-0.2
			c-0.1-0.1-0.3-0.1-0.5-0.1h-0.2v-0.2l3.4-0.1c0.9,0,1.6,0.1,2.2,0.3c0.7,0.3,1.2,0.7,1.6,1.3c0.4,0.6,0.6,1.3,0.6,2
			c0,0.5,0,1-0.2,1.5s-0.4,0.8-0.6,1.1c-0.3,0.3-0.6,0.5-0.9,0.7s-0.8,0.3-1.3,0.5c-0.2,0.1-0.6,0.1-1.1,0.1L81,179.3z M73.1,171
			l3.9,0.4v0.2h-0.2c-0.3,0-0.5,0-0.6,0s-0.2,0.1-0.3,0.2c-0.1,0.1-0.1,0.4-0.2,0.8l-0.4,3.7c-0.1,0.7-0.1,1.1,0,1.3
			c0.1,0.2,0.2,0.4,0.4,0.6c0.2,0.2,0.5,0.3,0.9,0.3s0.8,0,1.1-0.2c0.3-0.2,0.5-0.4,0.7-0.7c0.2-0.3,0.3-0.9,0.4-1.6l0.3-3.1
			c0-0.3,0-0.6,0-0.7c-0.1-0.2-0.1-0.3-0.2-0.3c-0.2-0.1-0.4-0.2-0.7-0.2v-0.2l2.6,0.3v0.2h-0.2c-0.2,0-0.4,0-0.5,0.1
			s-0.3,0.2-0.3,0.3c-0.1,0.1-0.1,0.3-0.1,0.6l-0.3,2.8c-0.1,0.9-0.2,1.5-0.4,1.9c-0.2,0.4-0.5,0.7-1,1s-1.1,0.4-1.9,0.3
			c-0.6-0.1-1.1-0.2-1.5-0.4c-0.5-0.3-0.8-0.6-0.9-1c-0.2-0.4-0.2-0.9-0.1-1.5l0.4-3.7c0-0.4,0.1-0.7,0-0.8c0-0.1-0.1-0.2-0.2-0.3
			c-0.1-0.1-0.3-0.1-0.6-0.2L73.1,171z M68.8,173.7l-0.7,2.3l-0.1,0.3c-0.1,0.2-0.1,0.3,0,0.5c0.1,0.1,0.2,0.2,0.4,0.3
			c0.3,0.1,0.6,0.1,0.8,0.1c0.3-0.1,0.5-0.2,0.7-0.4c0.2-0.2,0.3-0.4,0.4-0.7c0.1-0.3,0.1-0.7,0-1s-0.2-0.6-0.5-0.8
			C69.7,174,69.3,173.9,68.8,173.7z M68.9,173.3c0.5,0.2,0.9,0.2,1.2,0.2c0.3,0,0.5-0.1,0.7-0.3c0.2-0.2,0.3-0.4,0.4-0.7
			c0.1-0.3,0.1-0.6,0.1-0.8c-0.1-0.2-0.2-0.4-0.4-0.6c-0.2-0.2-0.6-0.3-1.1-0.5L68.9,173.3z M70.8,174c0.6,0.4,1.1,0.7,1.3,1
			c0.3,0.4,0.4,0.9,0.2,1.4c-0.2,0.5-0.5,0.9-1.1,1.1c-0.7,0.3-1.5,0.2-2.5-0.1l-3.7-1.1l0.1-0.2c0.3,0.1,0.6,0.1,0.7,0.1
			s0.2-0.1,0.3-0.2c0.1-0.1,0.2-0.3,0.3-0.7l1.4-4.7c0.1-0.4,0.2-0.6,0.2-0.8c0-0.1-0.1-0.2-0.2-0.3c-0.1-0.1-0.3-0.2-0.6-0.3
			l0.1-0.2l3.4,1.1c0.8,0.3,1.4,0.5,1.7,0.8c0.3,0.3,0.5,0.6,0.6,0.9c0.1,0.4,0.1,0.7,0,1s-0.3,0.6-0.7,0.8
			C72,174,71.5,174.1,70.8,174z M53.8,162.6l3.4,1.9l-0.1,0.2l-0.2-0.1c-0.3-0.1-0.4-0.2-0.6-0.2c-0.1,0-0.2,0-0.3,0.1
			s-0.2,0.3-0.5,0.7l-1.8,3.2c-0.3,0.6-0.5,1-0.5,1.2s0,0.5,0.2,0.7c0.1,0.2,0.3,0.5,0.7,0.6c0.4,0.2,0.7,0.3,1,0.3s0.7-0.1,0.9-0.3
			c0.3-0.2,0.6-0.7,1-1.3l1.5-2.7c0.2-0.3,0.3-0.5,0.3-0.7s0-0.3-0.1-0.4c-0.1-0.2-0.3-0.3-0.5-0.5l0.1-0.2l2.3,1.3l-0.1,0.2
			l-0.1-0.1c-0.2-0.1-0.4-0.2-0.5-0.2c-0.2,0-0.3,0.1-0.5,0.2c-0.1,0.1-0.2,0.3-0.4,0.5l-1.4,2.5c-0.4,0.8-0.8,1.3-1.1,1.6
			c-0.3,0.3-0.7,0.5-1.3,0.5c-0.6,0.1-1.2-0.1-1.8-0.5c-0.6-0.3-1-0.7-1.2-1c-0.3-0.4-0.4-0.9-0.4-1.3s0.2-0.9,0.5-1.4l1.8-3.2
			c0.2-0.4,0.3-0.6,0.3-0.7s0-0.2-0.1-0.3c-0.1-0.1-0.2-0.2-0.5-0.4L53.8,162.6z M47.4,163.6l4.8-2.5l2.3,2l-0.1,0.2l-0.2-0.2
			c-0.2-0.1-0.3-0.2-0.5-0.3c-0.1,0-0.2,0-0.3,0.1c-0.1,0-0.3,0.2-0.5,0.5l-3.2,3.8c-0.2,0.3-0.4,0.5-0.4,0.6s0,0.2,0,0.4
			c0.1,0.1,0.2,0.3,0.3,0.4l0.2,0.2l-0.1,0.2l-3-2.5l0.1-0.2l0.2,0.2c0.2,0.1,0.3,0.2,0.5,0.3c0.1,0,0.2,0,0.3-0.1
			c0.1,0,0.3-0.2,0.5-0.5l3.6-4.3l-6.6,3.4l-0.1-0.1l2.1-7.1l-3.4,4.1c-0.2,0.3-0.4,0.5-0.4,0.5c-0.1,0.2-0.1,0.4,0,0.5
			c0,0.2,0.2,0.4,0.5,0.6l-0.1,0.2l-2-1.7l0.1-0.2h0.1c0.1,0.1,0.3,0.2,0.4,0.2c0.1,0,0.3,0.1,0.4,0c0.1,0,0.2-0.1,0.4-0.2
			c0,0,0.2-0.2,0.4-0.4l3.1-3.6c0.2-0.3,0.4-0.5,0.4-0.6s0-0.2,0-0.4c-0.1-0.1-0.2-0.3-0.3-0.4l-0.2-0.2l0.1-0.2l2.4,2L47.4,163.6z
			 M43.2,159.9l-2.2,1.6l-4.5-5l0.2-0.1l0.2,0.2c0.1,0.2,0.3,0.3,0.4,0.3c0.1,0,0.2,0,0.3,0s0.3-0.2,0.6-0.4l3.7-3.3
			c0.3-0.3,0.5-0.4,0.5-0.5s0.1-0.2,0-0.4c0-0.1-0.1-0.3-0.3-0.4l-0.2-0.2l0.2-0.1l2.7,3l-0.2,0.1l-0.2-0.2
			c-0.1-0.2-0.3-0.3-0.4-0.3c-0.1,0-0.2,0-0.4,0c-0.1,0-0.3,0.2-0.6,0.4l-3.6,3.2c-0.3,0.3-0.5,0.4-0.5,0.5s-0.1,0.2,0,0.4
			c0,0.1,0.2,0.3,0.4,0.5l0.4,0.5c0.3,0.3,0.5,0.5,0.8,0.6s0.6,0.1,1,0.1c0.4-0.1,0.8-0.2,1.4-0.5L43.2,159.9z M140.5,115.4l3-0.7
			l-2.6-1.8L140.5,115.4z M140,115.6l0.5-2.9l-0.7-0.5c-0.2-0.2-0.5-0.3-0.6-0.3c-0.2,0-0.4,0-0.6,0.2c-0.1,0.1-0.2,0.4-0.3,0.8
			h-0.2l0.5-2.7h0.2c0,0.3,0.1,0.6,0.2,0.8c0.2,0.2,0.5,0.5,1.1,0.9l6,4.1v0.1l-7.3,1.8c-0.7,0.2-1.1,0.3-1.3,0.5
			c-0.2,0.1-0.3,0.3-0.3,0.5H137l0.7-4h0.2v0.2c-0.1,0.3-0.1,0.6,0,0.7c0,0.1,0.1,0.2,0.3,0.2c0.1,0,0.1,0,0.2,0c0,0,0.2,0,0.5-0.1
			L140,115.6z M139.2,107.7H139l0.4-4.4h0.2v0.3c0,0.2,0,0.4,0.1,0.6c0,0.1,0.1,0.2,0.3,0.3c0.1,0.1,0.3,0.1,0.8,0.1l5.5,0.5
			c0.4,0,0.7,0,0.8,0s0.2-0.1,0.3-0.2s0.1-0.3,0.2-0.5v-0.3h0.2l-0.4,4.4h-0.2v-0.3c0-0.2,0-0.4-0.1-0.6c0-0.1-0.1-0.2-0.3-0.3
			c-0.1-0.1-0.4-0.1-0.8-0.1l-5.5-0.5c-0.4,0-0.7,0-0.8,0s-0.2,0.1-0.3,0.3c-0.1,0.1-0.2,0.3-0.2,0.5V107.7z M148,99.9h-2.8v-0.3
			c0.7-0.1,1.3-0.4,1.7-0.8c0.4-0.5,0.7-1,0.7-1.5c0-0.4-0.1-0.8-0.3-1c-0.2-0.3-0.5-0.4-0.8-0.4c-0.2,0-0.4,0-0.5,0.1
			c-0.2,0.1-0.4,0.3-0.6,0.6c-0.1,0.2-0.4,0.6-0.7,1.3c-0.5,1-1,1.6-1.4,2c-0.4,0.3-0.9,0.5-1.5,0.5c-0.7,0-1.3-0.3-1.8-0.8
			c-0.5-0.6-0.7-1.3-0.7-2.1c0-0.3,0-0.5,0.1-0.7s0.2-0.5,0.3-0.9c0.1-0.2,0.1-0.4,0.1-0.5s0-0.2-0.1-0.3s-0.2-0.2-0.4-0.3v-0.2
			l3.2,0.1v0.2c-0.9,0.2-1.6,0.5-2,1c-0.5,0.5-0.7,1.1-0.7,1.7c0,0.5,0.1,0.8,0.4,1.1c0.2,0.3,0.5,0.4,0.9,0.4c0.2,0,0.4,0,0.6-0.1
			c0.2-0.1,0.4-0.3,0.5-0.5c0.2-0.2,0.4-0.6,0.7-1.1c0.4-0.8,0.7-1.3,1-1.6s0.6-0.6,0.9-0.8c0.3-0.2,0.7-0.3,1.1-0.3
			c0.7,0,1.2,0.3,1.7,0.8s0.7,1.1,0.7,1.9c0,0.3,0,0.5-0.1,0.8c-0.1,0.2-0.1,0.4-0.3,0.7c-0.1,0.3-0.2,0.5-0.2,0.6s0,0.2,0.1,0.3
			s0.2,0.1,0.5,0.2L148,99.9z M147.7,90.8h-0.2c-0.1-0.3-0.2-0.5-0.3-0.6c-0.2-0.2-0.7-0.5-1.5-0.8l-3.2-1.5l-2,0.2
			c-0.4,0-0.7,0.1-0.8,0.2c-0.1,0.1-0.2,0.2-0.2,0.3c-0.1,0.1-0.1,0.3-0.1,0.5v0.5h-0.2l-0.5-4.7h0.2v0.4c0,0.2,0.1,0.4,0.2,0.6
			c0.1,0.1,0.2,0.2,0.3,0.2s0.4,0,0.8,0l1.7-0.2l3.4-2.3c0.7-0.5,1-0.8,1.2-1c0.1-0.2,0.1-0.4,0.1-0.7h0.2l0.4,4H147v-0.2
			c0-0.2-0.1-0.4-0.2-0.5c-0.1-0.1-0.2-0.1-0.2-0.1c-0.1,0-0.5,0.2-1.1,0.6l-2.6,1.8l2.7,1.2c0.7,0.3,1.1,0.4,1.3,0.4
			c0.1,0,0.2-0.1,0.3-0.2c0.1-0.1,0.1-0.4,0.1-0.8h0.2L147.7,90.8z M140.2,77.1l2.5-1.9l-3.1-0.6L140.2,77.1z M139.8,77.4l-0.7-2.9
			l-0.9-0.2c-0.3-0.1-0.5-0.1-0.7,0s-0.4,0.2-0.4,0.4c0,0.1,0,0.4,0,0.8l-0.2,0.1l-0.6-2.7l0.2-0.1c0.1,0.3,0.3,0.5,0.5,0.6
			s0.7,0.3,1.4,0.4l7.2,1.4v0.1l-6,4.5c-0.6,0.4-0.9,0.7-1,1c-0.1,0.2-0.1,0.4-0.1,0.6l-0.2,0.1l-0.9-3.9l0.2-0.1v0.2
			c0.1,0.3,0.2,0.5,0.3,0.6s0.2,0.1,0.3,0.1s0.1,0,0.2-0.1c0,0,0.2-0.1,0.4-0.3L139.8,77.4z M138.4,69.4l-2.9,0.7l-2.5-7l0.2-0.1
			l0.1,0.3c0.1,0.2,0.2,0.4,0.3,0.5s0.2,0.1,0.4,0.1c0.1,0,0.4-0.1,0.8-0.2l5.2-1.9c0.4-0.1,0.6-0.3,0.7-0.3
			c0.1-0.1,0.1-0.2,0.2-0.4c0-0.2,0-0.3-0.1-0.6l-0.1-0.3l0.2-0.1l1.5,4.2l-0.2,0.1l-0.1-0.3c-0.1-0.2-0.2-0.4-0.3-0.5
			s-0.2-0.1-0.4-0.1c-0.1,0-0.4,0.1-0.8,0.2l-5,1.8c-0.4,0.1-0.6,0.3-0.7,0.3c-0.1,0.1-0.1,0.2-0.1,0.4c0,0.1,0.1,0.3,0.2,0.7
			l0.2,0.7c0.2,0.4,0.4,0.7,0.6,1c0.2,0.2,0.6,0.4,1,0.5s0.9,0.1,1.6,0.1L138.4,69.4z M133,55.9l2-2.4l-3.1,0.2L133,55.9z
			 M132.7,56.3l-1.3-2.6l-0.9,0.1c-0.3,0-0.5,0.1-0.7,0.2c-0.2,0.1-0.3,0.3-0.3,0.5c0,0.1,0.1,0.4,0.2,0.8l-0.2,0.1l-1.3-2.5
			l0.2-0.1c0.2,0.2,0.4,0.4,0.7,0.5s0.8,0.1,1.4,0.1l7.3-0.4l0.1,0.1l-4.7,5.8c-0.4,0.6-0.7,0.9-0.8,1.2c-0.1,0.2,0,0.4,0.1,0.6
			l-0.2,0.1l-1.8-3.6l0.2-0.1l0.1,0.1c0.1,0.3,0.3,0.5,0.4,0.5c0.1,0.1,0.2,0,0.3,0s0.1-0.1,0.2-0.1c0,0,0.1-0.1,0.3-0.4L132.7,56.3
			z M125.9,44.3l5.7-1.6l2.1,2.7l-0.2,0.1l-0.2-0.2c-0.2-0.2-0.3-0.3-0.5-0.4c-0.1,0-0.2-0.1-0.4,0c-0.1,0-0.3,0.2-0.6,0.4l-4.3,3.4
			c-0.3,0.3-0.5,0.4-0.6,0.5s-0.1,0.2,0,0.4c0,0.2,0.1,0.3,0.2,0.5l0.2,0.2l-0.2,0.1l-2.7-3.4l0.2-0.1l0.2,0.2
			c0.2,0.2,0.3,0.3,0.5,0.4c0.1,0,0.2,0.1,0.4,0c0.1,0,0.3-0.2,0.7-0.4l4.9-3.8l-8,2.2l-0.1-0.1l4-7.2l-4.6,3.6
			c-0.3,0.3-0.5,0.4-0.6,0.5c-0.1,0.2-0.2,0.4-0.2,0.6c0,0.2,0.1,0.5,0.4,0.8l-0.2,0.1l-1.8-2.3l0.2-0.1l0.1,0.1
			c0.1,0.1,0.2,0.3,0.4,0.4c0.1,0.1,0.3,0.1,0.4,0.1s0.3,0,0.5-0.1c0,0,0.2-0.1,0.5-0.4l4.2-3.3c0.3-0.3,0.5-0.4,0.6-0.5
			s0.1-0.2,0-0.4c0-0.2-0.1-0.3-0.3-0.5l-0.2-0.2l0.2-0.1l2.1,2.7L125.9,44.3z M110.2,29.2l0.5-3.1l-2.6,1.7L110.2,29.2z
			 M110.2,29.7l-2.5-1.6l-0.7,0.5c-0.2,0.2-0.4,0.3-0.5,0.5s-0.1,0.4,0,0.6c0.1,0.1,0.3,0.3,0.6,0.6l-0.1,0.2l-2.3-1.5l0.1-0.2
			c0.3,0.1,0.6,0.2,0.8,0.1c0.3-0.1,0.7-0.3,1.3-0.7l6.1-4l0.1,0.1l-1.2,7.4c-0.1,0.7-0.1,1.2-0.1,1.4s0.2,0.4,0.4,0.5l-0.1,0.2
			l-3.4-2.2l0.1-0.2l0.1,0.1c0.3,0.2,0.5,0.3,0.6,0.3s0.2-0.1,0.3-0.2c0-0.1,0.1-0.1,0.1-0.2c0,0,0-0.2,0.1-0.5L110.2,29.7z
			 M99.7,18.3l-1.2,3.5l0.3,0.1c0.5,0.2,1,0.3,1.3,0.3s0.6-0.1,0.8-0.3c0.2-0.2,0.4-0.5,0.6-0.9c0.2-0.6,0.2-1.1,0-1.5
			s-0.6-0.7-1.2-0.9L99.7,18.3z M98.4,22.1l-0.8,2.2c-0.1,0.4-0.2,0.7-0.2,0.8s0.1,0.3,0.2,0.4c0.1,0.1,0.3,0.2,0.7,0.4l-0.1,0.2
			l-4-1.4l0.1-0.2c0.4,0.1,0.6,0.2,0.8,0.2c0.2,0,0.3-0.1,0.4-0.2c0.1-0.1,0.2-0.3,0.4-0.8l1.8-5.1c0.1-0.4,0.2-0.7,0.2-0.8
			s-0.1-0.2-0.2-0.4c-0.1-0.1-0.3-0.2-0.7-0.4l0.1-0.2l3.7,1.3c1,0.3,1.6,0.6,2,0.9c0.4,0.3,0.7,0.7,0.8,1.1c0.2,0.5,0.2,0.9,0,1.4
			c-0.2,0.6-0.6,1-1.1,1.2c-0.4,0.1-0.8,0.2-1.3,0.2l1,3.3c0.1,0.4,0.2,0.7,0.3,0.8c0.1,0.2,0.3,0.3,0.5,0.4l-0.1,0.2l-2.5-0.9
			l-1.3-4.5L98.4,22.1z M88.2,20.6l-1-3l-1.5,2.8L88.2,20.6z M88.3,21.1l-2.9-0.3L85,21.6c-0.1,0.3-0.2,0.5-0.2,0.7s0.1,0.4,0.2,0.5
			s0.4,0.1,0.8,0.2v0.2L83,23v-0.2c0.3,0,0.6-0.1,0.8-0.3c0.2-0.2,0.5-0.6,0.8-1.2l3.6-6.4h0.1l2.4,7.1c0.2,0.7,0.4,1.1,0.6,1.3
			c0.1,0.1,0.3,0.2,0.6,0.3v0.2l-4-0.4v-0.2h0.2c0.3,0,0.6,0,0.7-0.1S89,23,89,22.8c0-0.1,0-0.2,0-0.2s-0.1-0.2-0.1-0.5L88.3,21.1z
			 M80.5,14.6l0.2,2.3h-0.2c-0.2-0.5-0.4-0.9-0.5-1.1c-0.2-0.2-0.4-0.4-0.7-0.5c-0.2-0.1-0.4-0.1-0.8,0l-0.6,0.1l0.6,6.4
			c0,0.4,0.1,0.7,0.1,0.8c0.1,0.1,0.2,0.2,0.3,0.3C79,23,79.2,23,79.5,23h0.3v0.2l-4.4,0.4v-0.2h0.3c0.2,0,0.4-0.1,0.6-0.2
			c0.1-0.1,0.2-0.2,0.2-0.3s0-0.4,0-0.8l-0.6-6.4l-0.6,0.1c-0.6,0-1,0.2-1.2,0.5c-0.3,0.4-0.5,0.9-0.6,1.5h-0.2l-0.2-2.3L80.5,14.6z
			 M60.1,19.2l4.1-1.4l0.1,0.2l-0.2,0.1c-0.3,0.1-0.5,0.2-0.6,0.3s-0.1,0.2-0.2,0.3c0,0.1,0.1,0.4,0.2,0.9l1.3,3.9
			c0.2,0.7,0.5,1.2,0.6,1.4c0.2,0.2,0.4,0.3,0.7,0.4c0.3,0.1,0.6,0,1-0.1s0.8-0.4,1-0.7s0.4-0.6,0.4-1s-0.1-1-0.4-1.8L67,18.5
			c-0.1-0.4-0.2-0.6-0.4-0.7c-0.1-0.1-0.3-0.2-0.4-0.2c-0.2,0-0.5,0-0.8,0.1l-0.1-0.2l2.7-0.9l0.1,0.2l-0.2,0.1
			c-0.2,0.1-0.4,0.2-0.5,0.3s-0.2,0.3-0.2,0.5c0,0.1,0,0.4,0.2,0.7l1,3c0.3,0.9,0.5,1.6,0.5,2.1s-0.1,0.9-0.5,1.4s-0.9,0.9-1.8,1.2
			c-0.7,0.2-1.2,0.3-1.7,0.3c-0.6-0.1-1.1-0.3-1.4-0.6c-0.3-0.3-0.6-0.8-0.9-1.5l-1.3-3.9c-0.2-0.5-0.3-0.7-0.4-0.8
			c-0.1-0.1-0.2-0.2-0.4-0.2c-0.1,0-0.4,0-0.7,0.1L60.1,19.2z M52.5,33.5l0.1,0.2l-3.4,2.7l-0.1-0.2l0.2-0.2
			c0.2-0.1,0.3-0.3,0.4-0.5c0-0.1,0.1-0.2,0-0.4c0-0.1-0.2-0.3-0.4-0.7l-3.4-4.3c-0.3-0.3-0.4-0.5-0.5-0.6s-0.2-0.1-0.4-0.1
			s-0.3,0.1-0.5,0.2l-0.2,0.2l-0.1-0.2l3.4-2.7l0.1,0.2l-0.2,0.2c-0.2,0.1-0.3,0.3-0.4,0.5c0,0.1-0.1,0.2,0,0.4
			c0,0.1,0.2,0.3,0.4,0.7l3.4,4.3c0.3,0.3,0.4,0.5,0.5,0.6s0.2,0.1,0.4,0.1s0.3-0.1,0.5-0.2L52.5,33.5z M41,32.6l1.7,1.5l-0.2,0.2
			c-0.5-0.3-0.8-0.4-1.1-0.4s-0.6,0-0.8,0.1s-0.4,0.2-0.6,0.5L39.6,35l4.7,4.4c0.3,0.3,0.5,0.5,0.6,0.5s0.2,0,0.4,0s0.3-0.2,0.5-0.3
			l0.2-0.2l0.2,0.2l-3,3.2L43,42.6l0.2-0.2c0.2-0.2,0.3-0.3,0.3-0.5c0-0.1,0-0.2,0-0.4c0-0.1-0.2-0.3-0.5-0.6l-4.7-4.4l-0.4,0.4
			c-0.4,0.4-0.6,0.8-0.6,1.1c0,0.5,0.2,1,0.6,1.5l-0.2,0.2L36,38.2L41,32.6z M40.2,46.1l0.2,0.1l-2.5,3.6l-0.2-0.1l0.2-0.2
			c0.1-0.2,0.2-0.4,0.2-0.6c0-0.1,0-0.2-0.1-0.4c-0.1-0.1-0.3-0.3-0.6-0.5l-4.5-3.2c-0.3-0.2-0.6-0.4-0.7-0.4c-0.1,0-0.2,0-0.4,0.1
			c-0.1,0.1-0.3,0.2-0.4,0.4l-0.2,0.2L31,45l2.5-3.6l0.2,0.1l-0.2,0.2c-0.1,0.2-0.2,0.4-0.2,0.6c0,0.1,0,0.2,0.1,0.4
			c0.1,0.1,0.3,0.3,0.6,0.5l4.5,3.2c0.4,0.2,0.6,0.4,0.7,0.4c0.1,0,0.2,0,0.4-0.1c0.1-0.1,0.3-0.2,0.4-0.4L40.2,46.1z M28.7,48.4
			l2.4,1.3L31,50c-0.7-0.2-1.3-0.3-1.9-0.1s-1,0.5-1.3,1c-0.2,0.4-0.3,0.7-0.2,1c0.1,0.3,0.2,0.6,0.5,0.7c0.2,0.1,0.3,0.1,0.5,0.1
			s0.5-0.1,0.8-0.2c0.2-0.1,0.6-0.4,1.3-0.8c0.9-0.6,1.6-0.9,2.2-1c0.5-0.1,1,0,1.5,0.3c0.6,0.3,1,0.9,1.2,1.6
			c0.2,0.7,0,1.4-0.4,2.2c-0.1,0.2-0.3,0.4-0.4,0.6c-0.2,0.2-0.4,0.4-0.7,0.6c-0.2,0.1-0.3,0.3-0.3,0.4c-0.1,0.1-0.1,0.2-0.1,0.4
			c0,0.1,0.1,0.3,0.2,0.4l-0.1,0.2l-2.7-1.6l0.1-0.2c0.9,0.3,1.6,0.3,2.3,0.1s1.1-0.6,1.4-1.1c0.2-0.4,0.3-0.8,0.2-1.1
			c-0.1-0.4-0.3-0.6-0.6-0.8c-0.2-0.1-0.4-0.1-0.6-0.2c-0.2,0-0.4,0-0.7,0.2c-0.3,0.1-0.6,0.3-1.1,0.7c-0.7,0.5-1.3,0.8-1.6,0.9
			c-0.4,0.2-0.8,0.2-1.1,0.2c-0.4,0-0.7-0.1-1.1-0.3c-0.6-0.3-0.9-0.8-1.1-1.5s-0.1-1.3,0.3-2c0.1-0.2,0.3-0.4,0.5-0.6
			c0.1-0.1,0.3-0.3,0.6-0.5c0.3-0.2,0.4-0.3,0.5-0.4c0.1-0.1,0.1-0.2,0-0.3c0-0.1-0.1-0.2-0.3-0.4L28.7,48.4z M22.9,62.1l3.4,1.4
			l0.1-0.3c0.2-0.5,0.3-0.9,0.4-1.2c0-0.3-0.1-0.6-0.3-0.8c-0.2-0.3-0.5-0.5-0.9-0.6c-0.6-0.2-1.1-0.3-1.5-0.1s-0.7,0.5-1,1.1
			L22.9,62.1z M26.6,63.8l2.2,0.9c0.4,0.2,0.7,0.3,0.8,0.3c0.1,0,0.3-0.1,0.4-0.2c0.1-0.1,0.3-0.3,0.4-0.7l0.2,0.1l-1.7,3.9L28.7,68
			c0.2-0.4,0.2-0.6,0.2-0.8s-0.1-0.3-0.1-0.4c-0.1-0.1-0.3-0.2-0.8-0.4l-5-2.1c-0.4-0.2-0.7-0.3-0.8-0.3c-0.1,0-0.3,0.1-0.4,0.2
			c-0.1,0.1-0.3,0.3-0.4,0.7l-0.2-0.1l1.5-3.6c0.4-0.9,0.7-1.6,1.1-2c0.3-0.4,0.7-0.6,1.2-0.8c0.5-0.1,0.9-0.1,1.4,0.1
			c0.6,0.2,0.9,0.6,1.1,1.2c0.1,0.4,0.1,0.8,0.1,1.3l3.4-0.7c0.4-0.1,0.7-0.2,0.8-0.2c0.2-0.1,0.3-0.3,0.4-0.5l0.2,0.1l-1,2.4
			l-4.6,1L26.6,63.8z M19.5,73.2l3.3,0.9v-0.2c0.1-0.5,0.1-0.9-0.2-1.2c-0.3-0.3-0.7-0.6-1.3-0.8l0.1-0.2l4.2,1.1L25.5,73
			c-0.5-0.1-0.9-0.1-1.2,0c-0.3,0.1-0.6,0.2-0.7,0.4c-0.2,0.2-0.3,0.5-0.4,0.8l2.3,0.6c0.4,0.1,0.7,0.2,0.8,0.2
			c0.1,0,0.2-0.1,0.3-0.1c0.1-0.1,0.2-0.2,0.2-0.5l0.1-0.5c0.2-0.8,0.2-1.4,0-2c-0.2-0.5-0.7-1-1.3-1.4l0.1-0.2l2.5,1l-1.9,7
			l-0.2-0.1l0.1-0.3c0.1-0.2,0.1-0.4,0-0.6c0-0.1-0.1-0.2-0.2-0.3s-0.3-0.2-0.7-0.3L20,75.3c-0.4-0.1-0.6-0.1-0.7-0.1
			s-0.3,0-0.4,0.1c-0.2,0.1-0.3,0.3-0.3,0.6l-0.1,0.3l-0.2-0.1l1.8-6.8l2.4,0.6l-0.1,0.2c-0.6,0-1.1,0-1.4,0.1s-0.6,0.4-0.8,0.7
			c-0.1,0.2-0.3,0.6-0.4,1.2L19.5,73.2z M17.8,79.5H18c0,0.3,0.1,0.6,0.4,0.9c0.2,0.2,0.6,0.5,1.3,1l5.9,3.8v0.2l-7,1.8
			c-0.8,0.2-1.3,0.4-1.5,0.5s-0.3,0.3-0.4,0.6h-0.2l0.6-4h0.2v0.1c-0.1,0.4-0.1,0.6,0,0.8c0,0.1,0.1,0.2,0.2,0.2s0.2,0,0.3,0
			c0.1,0,0.4-0.1,0.9-0.2l4.4-1.1l-3.4-2.2c-0.4-0.3-0.7-0.4-0.8-0.5c-0.1-0.1-0.3-0.1-0.4-0.1s-0.2,0-0.3,0
			c-0.1,0.1-0.2,0.1-0.3,0.3c-0.1,0.2-0.2,0.4-0.2,0.7h-0.2L17.8,79.5z M24.6,92.1h0.2l-0.2,4.4h-0.2v-0.3c0-0.2,0-0.4-0.1-0.6
			c-0.1-0.1-0.1-0.2-0.3-0.3c-0.1-0.1-0.4-0.1-0.8-0.1L17.7,95c-0.4,0-0.7,0-0.8,0c-0.1,0-0.2,0.1-0.3,0.3c-0.1,0.1-0.1,0.3-0.1,0.6
			v0.3h-0.2l0.2-4.4h0.2v0.3c0,0.2,0,0.4,0.1,0.6c0.1,0.1,0.1,0.2,0.3,0.3c0.1,0,0.4,0.1,0.8,0.1l5.5,0.2c0.4,0,0.7,0,0.8,0
			c0.1,0,0.2-0.1,0.3-0.3c0.1-0.1,0.1-0.3,0.1-0.6V92.1z M16.6,105.3l5-4.4l-3.6,0.2c-0.5,0-0.8,0.1-1,0.3s-0.3,0.5-0.3,1h-0.2
			l-0.1-2.8h0.2c0.1,0.4,0.1,0.6,0.2,0.7c0.1,0.1,0.2,0.2,0.4,0.3c0.2,0.1,0.4,0.1,0.8,0.1l6.9-0.4v0.2l-6.7,6l5.3-0.3
			c0.5,0,0.8-0.2,1-0.4c0.2-0.2,0.2-0.5,0.2-0.8v-0.2h0.2l0.2,3h-0.2c0-0.5-0.1-0.8-0.3-0.9c-0.2-0.2-0.5-0.2-1-0.2l-5.9,0.3
			l-0.2,0.2c-0.2,0.2-0.3,0.4-0.4,0.5S17,108,17,108.3h-0.2L16.6,105.3z M18.8,120.1l-0.7-4.2h0.2v0.2c0.1,0.3,0.1,0.5,0.2,0.6
			s0.2,0.2,0.3,0.2c0.1,0,0.4,0,0.9-0.1l4-0.7c0.7-0.1,1.2-0.3,1.4-0.4c0.2-0.2,0.4-0.4,0.5-0.7c0.1-0.3,0.1-0.6,0.1-1
			c-0.1-0.4-0.2-0.8-0.5-1.1c-0.3-0.3-0.6-0.5-1-0.6s-1-0.1-1.9,0.1L19,113c-0.4,0.1-0.6,0.2-0.8,0.3c-0.1,0.1-0.2,0.2-0.3,0.3
			c-0.1,0.2-0.1,0.5,0,0.8h-0.2l-0.5-2.8h0.2v0.2c0,0.2,0.1,0.4,0.2,0.6c0.1,0.1,0.3,0.2,0.5,0.3c0.1,0,0.4,0,0.7,0l3.1-0.6
			c1-0.2,1.7-0.2,2.1-0.2c0.5,0.1,0.9,0.3,1.3,0.7c0.4,0.4,0.7,1.1,0.9,1.9c0.1,0.7,0.1,1.3,0,1.7c-0.2,0.6-0.4,1-0.8,1.3
			s-0.9,0.5-1.6,0.6l-4,0.7c-0.5,0.1-0.8,0.2-0.9,0.2c-0.1,0.1-0.2,0.2-0.2,0.3c0,0.1,0,0.4,0,0.7L18.8,120.1z M135.8,130
			c1.5,0,2.7,1.2,2.7,2.7s-1.2,2.7-2.7,2.7s-2.7-1.2-2.7-2.7S134.3,130,135.8,130z M28.3,130c1.5,0,2.7,1.2,2.7,2.7
			s-1.2,2.7-2.7,2.7s-2.7-1.2-2.7-2.7C25.6,131.2,26.8,130,28.3,130z M35.8,155.2l-0.2,0.1l-2.3-3.2l0.2-0.1l0.1,0.2
			c0.1,0.2,0.3,0.3,0.4,0.4c0.1,0,0.2,0.1,0.3,0c0.1,0,0.3-0.1,0.6-0.4l4-2.9c0.3-0.2,0.5-0.4,0.5-0.5c0.1-0.1,0.1-0.2,0.1-0.3
			c0-0.1-0.1-0.3-0.2-0.5l-0.1-0.2l0.2-0.1l2.3,3.2l-0.2,0.1l-0.1-0.2c-0.1-0.2-0.3-0.3-0.4-0.4c-0.1,0-0.2-0.1-0.3,0
			c-0.1,0-0.3,0.1-0.6,0.4l-4,2.9c-0.3,0.2-0.5,0.4-0.5,0.5c-0.1,0.1-0.1,0.2-0.1,0.4c0,0.1,0.1,0.3,0.2,0.5L35.8,155.2z"/>
	</g>
</g>
</svg>
