<?xml version="1.0" encoding="utf-8"?>
<!-- Generator: Adobe Illustrator 24.0.0, SVG Export Plug-In . SVG Version: 6.00 Build 0)  -->
<svg version="1.1" id="Layer_1" xmlns="http://www.w3.org/2000/svg" xmlns:xlink="http://www.w3.org/1999/xlink" x="0px" y="0px"
	 viewBox="0 0 20 20" style="enable-background:new 0 0 20 20;" xml:space="preserve">
<style type="text/css">
	.st0{fill-rule:evenodd;clip-rule:evenodd;}
</style>
<path class="st0" d="M16.9,3c-1.8-1.8-4.3-2.9-6.9-2.9c-5.4,0-9.7,4.4-9.7,9.7c0,1.7,0.4,3.4,1.3,4.9l-1.4,5l5.2-1.4
	c1.4,0.8,3,1.2,4.7,1.2h0c5.4,0,9.7-4.4,9.7-9.7C19.8,7.3,18.8,4.9,16.9,3z M10,18L10,18c-1.5,0-2.9-0.4-4.1-1.1l-0.3-0.2l-3.1,0.8
	l0.8-3l-0.2-0.3c-0.8-1.3-1.2-2.8-1.2-4.3c0-4.5,3.6-8.1,8.1-8.1c2.2,0,4.2,0.8,5.7,2.4s2.4,3.6,2.4,5.7C18.1,14.4,14.5,18,10,18z
	 M14.5,12c-0.2-0.1-1.4-0.7-1.7-0.8c-0.2-0.1-0.4-0.1-0.5,0.1c-0.2,0.2-0.6,0.8-0.8,1c-0.1,0.2-0.3,0.2-0.5,0.1
	c-0.2-0.1-1-0.4-2-1.2c-0.7-0.6-1.2-1.4-1.4-1.7C7.5,9.2,7.7,9,7.8,8.9C8,8.6,8.3,8.2,8.4,8.1c0.1-0.2,0-0.3,0-0.4
	C8.3,7.5,7.8,6.3,7.6,5.8C7.4,5.4,7.2,5.4,7.1,5.4c-0.1,0-0.3,0-0.5,0c-0.2,0-0.4,0.1-0.6,0.3C5.7,6,5.1,6.5,5.1,7.7s0.9,2.4,1,2.5
	c0.1,0.2,1.7,2.6,4.2,3.7c0.6,0.3,1,0.4,1.4,0.5c0.6,0.2,1.1,0.2,1.5,0.1c0.5-0.1,1.4-0.6,1.6-1.2c0.2-0.6,0.2-1.1,0.1-1.2
	C14.9,12.1,14.7,12.1,14.5,12z"/>
</svg>
