<?xml version="1.0" encoding="utf-8"?>
<!-- Generator: Adobe Illustrator 24.0.0, SVG Export Plug-In . SVG Version: 6.00 Build 0)  -->
<svg version="1.1" id="_x31_" xmlns="http://www.w3.org/2000/svg" xmlns:xlink="http://www.w3.org/1999/xlink" x="0px" y="0px"
	 viewBox="0 0 500 358" style="enable-background:new 0 0 500 358;" xml:space="preserve">
<style type="text/css">
	.st0{fill:#8DC63F;}
	.st1{fill:#006543;}
</style>
<g>
	<path class="st0" d="M406.3,38.1c-15-16.8-40-30.7-87.5-27.6c-47.5,3.1-89.3,23.7-115.2,40.3c-14.6,9.3-53.9,41.1-53.9,41.1h18.8
		c0,0,34.4-28.1,80.9-42.6c25.4-7.9,44-11.6,71.2-12.1c44-0.8,81.2,14.3,81.2,54.7h14.9C416.6,91.8,421.3,54.8,406.3,38.1z
		 M241.9,250.1c-25.4,7.9-44,11.6-71.2,12.1c-44,0.8-65.1-2.9-81.2-48.5H72.4c0,0-4.1,33.7,16.7,52.8c16.6,15.2,35.9,24.5,83.4,21.4
		s91.4-27.9,114-41.2c20.1-11.8,64.3-46.4,64.3-46.4h-17.7C333.1,200.3,288.4,235.7,241.9,250.1z"/>
	<path d="M33.1,311.6h-0.8l-8.4,9.4v1.2h2.9v8.6c0,2.5,0.7,4.3,2,5.6c1.4,1.3,3.3,1.9,5.7,1.9c1.9,0,3.8-0.4,5.8-1.3v-4.6
		c-1.5,0.8-2.9,1.2-4.2,1.2c-1,0-1.7-0.3-2.3-0.9c-0.5-0.6-0.8-1.4-0.8-2.4V322h7.3v-4.3H33L33.1,311.6L33.1,311.6z M56.5,317.5
		c-2.5,0-4.6,1.1-6.4,3.4H50v-12.6h-6.3V338H50v-12.8c1.4-2,2.8-3,4.2-3c2.2,0,3.3,1.5,3.3,4.4V338h6.3v-12.8c0-2.4-0.7-4.3-2.1-5.6
		C60.4,318.2,58.6,317.5,56.5,317.5z M86.2,320.6c-2-2.1-4.5-3.1-7.6-3.1s-5.6,1-7.6,3s-3,4.5-3,7.5c0,3.1,1.1,5.6,3.2,7.5
		s4.9,2.8,8.5,2.8s6.5-0.9,8.9-2.6v-4c-2.6,1.9-5.1,2.9-7.4,2.9c-2,0-3.5-0.5-4.7-1.5s-1.8-2.4-1.9-4.2H89
		C89.1,325.5,88.2,322.7,86.2,320.6z M74.7,325.7c0.3-2.9,1.8-4.4,4.4-4.4s4,1.5,4.4,4.4H74.7z M117.1,317.5c-2.1,0-4.1,0.7-5.7,2.2
		V318H105v30h6.3v-11c1.6,0.9,3.3,1.4,5.2,1.4c3,0,5.4-1,7.2-2.9c1.8-1.9,2.7-4.5,2.7-7.7c0-2.9-0.9-5.3-2.7-7.3
		S119.7,317.5,117.1,317.5z M118.6,332.5c-0.9,1.1-2.1,1.6-3.6,1.6c-1.2,0-2.5-0.4-3.7-1.3v-9.2c1.3-1.1,2.6-1.6,3.9-1.6
		c1.5,0,2.7,0.5,3.5,1.6s1.2,2.6,1.2,4.5C120,329.9,119.5,331.4,118.6,332.5z M147.7,320.6c-2-2.1-4.5-3.1-7.6-3.1s-5.6,1-7.6,3
		s-3,4.5-3,7.5c0,3.1,1.1,5.6,3.2,7.5c2.1,1.9,4.9,2.8,8.5,2.8s6.5-0.9,8.9-2.6v-4c-2.6,1.9-5.1,2.9-7.4,2.9c-2,0-3.5-0.5-4.7-1.5
		s-1.8-2.4-1.9-4.2h14.4C150.6,325.5,149.7,322.7,147.7,320.6z M136.2,325.7c0.3-2.9,1.8-4.4,4.4-4.4c2.6,0,4,1.5,4.4,4.4H136.2z
		 M164.9,317.5c-3.2,0-5.9,0.9-8.1,2.8c-2.2,1.9-3.2,4.4-3.2,7.6c0,3.1,1.1,5.6,3.2,7.5c2.1,1.9,4.8,2.9,8.2,2.9
		c3.1,0,5.7-0.9,7.9-2.7c2.2-1.8,3.3-4.4,3.3-7.7c0-3.3-1.1-5.9-3.3-7.7C170.7,318.4,168,317.5,164.9,317.5z M164.9,334.6
		c-3.1,0-4.6-2.2-4.6-6.7c0-2.1,0.4-3.8,1.2-4.9c0.8-1.2,1.9-1.7,3.4-1.7c3,0,4.5,2.2,4.5,6.5C169.4,332.4,167.9,334.6,164.9,334.6z
		 M192.3,317.5c-2.1,0-4.1,0.7-5.7,2.2V318h-6.3v30h6.3v-11c1.6,0.9,3.3,1.4,5.2,1.4c3,0,5.4-1,7.2-2.9s2.7-4.5,2.7-7.7
		c0-2.9-0.9-5.3-2.7-7.3C197.1,318.5,194.9,317.5,192.3,317.5z M193.9,332.5c-0.9,1.1-2.1,1.6-3.6,1.6c-1.2,0-2.5-0.4-3.7-1.3v-9.2
		c1.3-1.1,2.6-1.6,3.9-1.6c1.5,0,2.7,0.5,3.5,1.6s1.2,2.6,1.2,4.5C195.2,329.9,194.8,331.4,193.9,332.5z M205.9,338h6.3v-29.7h-6.3
		V338z M234.7,320.6c-2-2.1-4.5-3.1-7.6-3.1s-5.6,1-7.6,3s-3,4.5-3,7.5c0,3.1,1.1,5.6,3.2,7.5c2.1,1.9,4.9,2.8,8.5,2.8
		s6.5-0.9,8.9-2.6v-4c-2.6,1.9-5.1,2.9-7.4,2.9c-2,0-3.5-0.5-4.7-1.5s-1.8-2.4-1.9-4.2h14.4C237.6,325.5,236.7,322.7,234.7,320.6z
		 M223.2,325.7c0.3-2.9,1.8-4.4,4.4-4.4c2.6,0,4,1.5,4.4,4.4H223.2z M244.5,307.9c-1,0-1.9,0.3-2.5,1c-0.7,0.7-1,1.5-1,2.5
		c0,1.5,0.7,2.6,2.2,3.2c0,0.2,0,0.5,0,0.7c0,2-0.7,3.6-2,4.9v1.4c2.2-0.3,4.1-1.2,5.5-2.9c1.4-1.7,2.2-3.6,2.2-5.7
		c0-1.5-0.4-2.7-1.2-3.6C246.8,308.4,245.7,307.9,244.5,307.9z M258.9,325.3c-2.1-0.8-3.3-1.4-3.7-1.7c-0.3-0.3-0.5-0.5-0.5-0.8
		c0-1,0.8-1.6,2.3-1.6c2.1,0,4.3,0.7,6.7,2.2V319c-1.9-1-4.1-1.5-6.5-1.5c-2.5,0-4.5,0.6-6,1.7s-2.3,2.6-2.3,4.5
		c0,1.2,0.4,2.4,1.2,3.4s2.3,1.9,4.4,2.8c2.2,0.8,3.4,1.4,3.8,1.8c0.4,0.3,0.6,0.7,0.6,1.1c0,1-1,1.5-3.1,1.5
		c-1.7,0-3.9-0.6-6.5-1.7v4.4c2.1,1,4.5,1.5,7.2,1.5c2.6,0,4.6-0.6,6.1-1.7c1.4-1.1,2.1-2.7,2.1-4.8c0-1.3-0.4-2.5-1.3-3.6
		C262.5,327.1,261,326.1,258.9,325.3z M294.4,330.7c0,0.4-0.4,1.1-1.3,2c-0.8,0.9-1.9,1.4-3.1,1.4c-2.1,0-3.2-1.3-3.2-3.8v-12.4
		h-6.3v12.8c0,2.4,0.7,4.2,2,5.6c1.4,1.3,3.1,2,5.3,2c2.5,0,4.6-1.1,6.5-3.2v2.9h6.3v-20.1h-6.4v12.8H294.4z M318.8,317.5
		c-2.5,0-4.7,1.1-6.5,3.3V318H306v20h6.3v-12.9c1.4-2.2,2.9-3.3,4.4-3.3c2.1,0,3.1,1.3,3.1,4V338h6.3v-12.8c0-2.5-0.7-4.4-2.1-5.7
		C322.6,318.2,320.9,317.5,318.8,317.5z M331.4,338h6.3v-20.1h-6.3V338z M334.6,307.9c-0.9,0-1.8,0.3-2.4,1c-0.7,0.7-1,1.5-1,2.5
		c0,0.9,0.3,1.8,1,2.5s1.5,1,2.4,1c1,0,1.8-0.3,2.5-1s1-1.5,1-2.5s-0.3-1.8-1-2.5C336.4,308.3,335.5,307.9,334.6,307.9z M351.6,329
		l-4.3-11.1h-6.8l9.3,20.4h3.5l9.2-20.4h-6.7L351.6,329z M381.6,320.6c-2-2.1-4.5-3.1-7.6-3.1s-5.6,1-7.6,3s-3,4.5-3,7.5
		c0,3.1,1.1,5.6,3.2,7.5s4.9,2.8,8.5,2.8s6.5-0.9,8.9-2.6v-4c-2.6,1.9-5.1,2.9-7.4,2.9c-2,0-3.5-0.5-4.7-1.5s-1.8-2.4-1.9-4.2h14.4
		C384.5,325.5,383.6,322.7,381.6,320.6z M370.1,325.7c0.3-2.9,1.8-4.4,4.4-4.4s4,1.5,4.4,4.4H370.1z M395,323.7L395,323.7l-0.1-5.7
		h-6.3v20h6.3v-8.7c0-0.3,0.5-1.3,1.5-3.2c1-1.8,2.2-2.7,3.7-2.7c0.9,0,2.2,0.5,3.7,1.5l1.7-5.6c-1.6-1.2-3-1.8-4.2-1.8
		C399,317.5,396.8,319.6,395,323.7z M416.9,325.3c-2.1-0.8-3.3-1.4-3.7-1.7c-0.3-0.3-0.5-0.5-0.5-0.8c0-1,0.8-1.6,2.3-1.6
		c2.1,0,4.3,0.7,6.7,2.2V319c-1.9-1-4.1-1.5-6.5-1.5c-2.5,0-4.5,0.6-6,1.7s-2.3,2.6-2.3,4.5c0,1.2,0.4,2.4,1.2,3.4
		c0.8,1,2.3,1.9,4.4,2.8c2.2,0.8,3.4,1.4,3.8,1.8c0.4,0.3,0.6,0.7,0.6,1.1c0,1-1,1.5-3.1,1.5c-1.7,0-3.9-0.6-6.5-1.7v4.4
		c2.1,1,4.5,1.5,7.2,1.5c2.6,0,4.6-0.6,6.1-1.7c1.4-1.1,2.1-2.7,2.1-4.8c0-1.3-0.4-2.5-1.3-3.6C420.5,327.1,419,326.1,416.9,325.3z
		 M429.8,307.9c-0.9,0-1.8,0.3-2.4,1c-0.7,0.7-1,1.5-1,2.5c0,0.9,0.3,1.8,1,2.5s1.5,1,2.4,1c1,0,1.8-0.3,2.5-1s1-1.5,1-2.5
		s-0.3-1.8-1-2.5C431.6,308.3,430.7,307.9,429.8,307.9z M426.7,338h6.3v-20.1h-6.3V338z M445.4,311.6h-0.8l-8.4,9.4v1.2h2.9v8.6
		c0,2.5,0.7,4.3,2,5.6c1.4,1.3,3.3,1.9,5.7,1.9c1.9,0,3.8-0.4,5.8-1.3v-4.6c-1.5,0.8-2.9,1.2-4.2,1.2c-1,0-1.7-0.3-2.3-0.9
		c-0.5-0.6-0.8-1.4-0.8-2.4V322h7.3v-4.3h-7.3L445.4,311.6L445.4,311.6z M468.9,317.9l-4.5,10.3l-4.2-10.3h-6.7l7.8,16.8l-5.9,12.9
		h6.7l13.4-29.7L468.9,317.9L468.9,317.9z"/>
	<path class="st1" d="M230.3,179.8c0,0.8,0,1.4-0.1,1.9c-0.2,1.8-0.8,2.9-2,3.3c-1,0.4-2.7,0.5-5.3,0.5c-1.9,0-3.2-0.1-4-0.2
		c-1.5-0.3-2.4-0.8-2.9-1.6c-0.4-0.7-0.6-1.9-0.6-3.7v-22.3h-6.3V180c0,2.6,0.2,4.5,0.7,5.8c0.7,1.9,2,3.2,4,4.1
		c1,0.4,2.1,0.7,3.5,0.9c1.3,0.2,3.3,0.2,6,0.2c3.4,0,5.8-0.2,7.2-0.6c2.5-0.7,4.2-2.1,5.1-4.2c0.6-1.3,0.9-3.5,0.9-6.6v-21.9h-6.3
		v22.1H230.3z M266.6,176.7c0,2.1,0,4.2,0.1,6.4l0.1,2.1h-0.2l-1.3-2.7c-1.7-3.6-3-6.3-3.9-8.1l-8.6-16.7h-10.5v32.9h6.2v-18.9
		c0-2.1,0-4.3-0.1-6.5l-0.1-2.2h0.2l1,2.4c1.7,3.7,2.7,6.1,3.3,7.1l9.4,18.1h10.6v-32.9h-6.3L266.6,176.7L266.6,176.7z M278.7,190.7
		h6.3v-32.9h-6.3V190.7z M305.8,176.4c-0.6,1.9-1.5,4.9-2.6,8.9H303c-1.2-4.3-2-7.3-2.6-9l-6.2-18.6h-6.5l10.5,32.9h9.6l10.6-32.9
		h-6.6L305.8,176.4z M326.9,176.1h15.4v-4.6h-15.4V163h16.2v-5.3h-22.5v32.9h22.7v-5.3H327v-9.2H326.9z M371,176.3
		c1.6-0.6,2.7-1.8,3.3-3.5c0.4-1.2,0.6-2.9,0.6-5.3c0-1.9-0.2-3.4-0.5-4.5c-0.6-1.8-1.6-3.2-3.3-4.1c-1.5-0.8-3.8-1.2-7-1.2h-16.2
		v32.9h6.3v-11h8.8c1.6,0,2.9,0.3,3.7,1.1c0.8,0.8,1.2,2.1,1.2,4v5.9h6.4v-7.2c0.1-4-1.8-6.2-5.6-6.4v-0.2
		C369.7,176.7,370.5,176.5,371,176.3z M368.2,171.1c-0.2,0.9-0.5,1.7-1.1,2.2c-0.8,0.7-2.1,1-4,1h-8.8v-11.1h9.3
		c0.8,0,1.4,0,1.9,0.1c1.4,0.2,2.3,0.9,2.7,2c0.2,0.6,0.3,1.8,0.3,3.4C368.3,169.9,368.3,170.7,368.2,171.1z M399.2,172
		c-1.1-0.2-3.1-0.4-5.9-0.6c-2.6-0.1-4.2-0.2-4.7-0.3c-1.7-0.2-2.7-0.6-3.2-1.4c-0.4-0.6-0.6-1.6-0.6-2.9c0-1.8,0.5-3,1.4-3.6
		c0.5-0.3,1.2-0.5,2-0.6s2.1-0.2,3.9-0.2c1.4,0,2.4,0.1,3.1,0.2c1.1,0.2,1.8,0.6,2.2,1.2c0.4,0.6,0.6,1.8,0.6,3.5h6.1v-1.1
		c0-1.8-0.2-3.2-0.6-4.3c-0.8-2-2.4-3.4-4.8-4c-1.4-0.4-3.7-0.5-7-0.5c-2,0-3.8,0.1-5.4,0.2c-2.2,0.2-3.9,0.8-5.2,1.7
		c-1.7,1.3-2.6,3.8-2.6,7.6c0,2.8,0.4,4.9,1.3,6.2c1,1.5,2.8,2.5,5.4,2.9c0.8,0.1,2.6,0.3,5.4,0.5c3.6,0.2,5.7,0.4,6.3,0.6
		c1.2,0.4,1.8,1.7,1.8,3.7c0,1.9-0.3,3.2-0.8,3.8c-0.4,0.5-1,0.8-1.8,1s-2,0.3-3.7,0.3c-2.4,0-3.9,0-4.4-0.1
		c-1.4-0.1-2.3-0.6-2.8-1.3c-0.3-0.5-0.5-1-0.6-1.5s-0.2-1.5-0.2-2.8h-6.1c0,2.9,0.2,4.9,0.7,6c0.7,2,2.2,3.3,4.3,4
		c1.5,0.5,4.3,0.7,8.4,0.7c2.2,0,4.1-0.1,5.6-0.2c2.4-0.2,4.2-1,5.5-2.2c0.7-0.7,1.2-1.7,1.6-2.8c0.3-1.2,0.5-2.8,0.5-4.9
		c0-2.5-0.3-4.3-0.9-5.4C403.2,173.6,401.6,172.5,399.2,172z M409.3,190.7h6.3v-32.9h-6.3V190.7z M418.8,163.3h9.5v27.4h6.3v-27.3
		h9.8v-5.6h-25.6L418.8,163.3L418.8,163.3z M468.8,157.7l-5,8.7c-0.4,0.7-1.1,2-2.1,4l-0.7,1.3h-0.2l-0.7-1.3
		c-1.1-2.1-1.8-3.4-2.1-4l-5-8.7h-7.2l11.9,20.4v12.6h6.3v-12.6l12.2-20.4L468.8,157.7L468.8,157.7z M442.3,117.9
		c0-1.8,0.4-3.1,1.3-3.9c0.9-0.8,1.9-1.2,3.1-1.2c2.7,0,4,1.8,4,5.3v28.4h22.1V116c0-3-0.4-5.6-1.2-7.8c-0.8-2.1-1.9-3.9-3.3-5.2
		s-3.1-2.3-5-2.9c-2-0.6-4.1-0.9-6.4-0.9c-2.6,0-5.2,0.6-7.8,1.7c-2.6,1.1-4.8,3.3-6.7,6.6h-0.2l-0.5-7h-21.6v45.9h22.1v-28.5H442.3
		z M359,138.4c0.9-2,1.4-4.3,1.4-6.8c0-2.3-0.3-4.2-1-5.8s-1.9-3-3.6-4.1c-1.7-1.2-4-2.1-6.9-2.9c-2.9-0.8-6.6-1.5-11.1-2.1
		c-1.5-0.2-2.6-0.4-3.5-0.6c-0.9-0.2-1.6-0.5-2.1-0.8s-0.8-0.7-1-1.1c-0.2-0.4-0.2-0.8-0.2-1.3c0-1,0.3-1.9,1-2.5s1.9-0.9,3.7-0.9
		c1.5,0,2.6,0.3,3.3,1c0.7,0.7,1.1,2.2,1.1,4.3H359c-0.1-3-0.8-5.5-2-7.5s-2.9-3.6-5-4.8s-4.7-2-7.6-2.5c-3-0.5-6.2-0.7-9.7-0.7
		c-4.1,0-7.6,0.4-10.5,1.2s-5.3,1.9-7.2,3.3c-1.9,1.4-3.2,3-4.1,4.9s-1.3,3.9-1.3,5.9c0,2.1,0.3,3.9,0.9,5.4s1.5,2.8,2.7,3.8
		s2.9,1.9,4.8,2.7c2,0.7,4.4,1.4,7.2,1.9c1.6,0.3,3,0.6,4.1,0.8s2,0.4,2.7,0.5c0.7,0.2,1.3,0.3,1.7,0.4c0.4,0.1,0.8,0.2,1.2,0.2
		c1.4,0.3,2.3,0.8,2.7,1.4c0.4,0.6,0.6,1.3,0.6,2c0,1.1-0.3,2-0.9,2.8s-1.8,1.1-3.6,1.1c-1.6,0-2.8-0.5-3.7-1.4
		c-0.9-0.9-1.3-2.6-1.4-5H311c0.1,3,0.7,5.6,1.8,7.8c1.1,2.1,2.7,3.9,4.8,5.2c2.1,1.3,4.6,2.3,7.6,2.8c3,0.6,6.3,0.9,10.1,0.9
		c4.6,0,8.5-0.4,11.7-1.1c3.2-0.8,5.8-1.8,7.8-3.2C356.6,142.1,358.1,140.4,359,138.4z M390.6,117.9c-8.6,0-15.1,1.2-19.6,3.7
		s-6.7,6.6-6.7,12.3c0,2.3,0.4,4.3,1.2,6c0.8,1.7,1.9,3.2,3.3,4.4s3.1,2.1,5,2.7c1.9,0.6,4.1,0.9,6.4,0.9c2.6,0,5-0.4,7.3-1.3
		c2.3-0.9,4.2-2.3,5.8-4.5l0.5,4.4h19.4v-31c0-2.7-0.4-5-1.1-7c-0.8-2-2.1-3.7-3.9-5.1c-1.8-1.4-4.2-2.4-7.2-3.1
		c-3-0.7-6.7-1.1-11.1-1.1c-2.9,0-5.8,0.2-8.5,0.6c-2.7,0.4-5.2,1.1-7.4,2.2c-2.2,1.1-4,2.6-5.4,4.6s-2.2,4.5-2.4,7.6h18.3
		c0.1-1.9,0.6-3.2,1.3-3.8c0.7-0.6,1.8-0.9,3.2-0.9c1.6,0,2.7,0.3,3.3,1c0.6,0.6,1,1.5,1,2.7v4.8L390.6,117.9L390.6,117.9z
		 M393.2,130.3c0,1.9-0.4,3.4-1.1,4.5s-2,1.7-4,1.7c-1.7,0-3-0.4-3.8-1.3c-0.9-0.9-1.3-2-1.3-3.5c0-0.6,0.1-1.2,0.3-1.9
		c0.2-0.6,0.5-1.2,1.1-1.7s1.3-0.9,2.2-1.2c0.9-0.3,2.1-0.5,3.6-0.5h3L393.2,130.3L393.2,130.3z M64.5,146.5l5.5-29.3h0.2l5.5,29.3
		h27.1l11.3-45.9H92.8L88,130.4h-0.2l-5.1-29.8H58.3l-5.5,29.8h-0.2l-3.7-29.8H27.7l9.7,45.9H64.5z M210.6,117.2l5.5,29.3h27.1
		l11.3-45.9h-21.2l-4.8,29.8h-0.2l-5.1-29.8h-24.5l-5.5,29.8H193l-3.7-29.8h-21.2l9.7,45.9h27.1l5.5-29.3H210.6z M125,147
		c2,0.6,4.1,0.9,6.4,0.9c2.6,0,5-0.4,7.3-1.3c2.3-0.9,4.2-2.3,5.8-4.5l0.5,4.4h19.4v-31c0-2.7-0.4-5-1.1-7c-0.8-2-2.1-3.7-3.9-5.1
		c-1.8-1.4-4.2-2.4-7.2-3.1c-3-0.7-6.7-1.1-11.1-1.1c-2.9,0-5.8,0.2-8.5,0.6c-2.7,0.4-5.2,1.1-7.4,2.2c-2.2,1.1-4,2.6-5.4,4.6
		s-2.2,4.5-2.4,7.6h18.3c0.1-1.9,0.5-3.2,1.3-3.8c0.7-0.6,1.8-0.9,3.2-0.9c1.6,0,2.7,0.3,3.3,1s1,1.5,1,2.7v4.8h-2.7
		c-8.6,0-15.1,1.2-19.6,3.7s-6.7,6.6-6.7,12.3c0,2.3,0.4,4.3,1.2,6c0.8,1.7,1.9,3.2,3.3,4.4C121.4,145.5,123.1,146.4,125,147z
		 M134.6,129.9c0.2-0.6,0.5-1.2,1.1-1.7c0.5-0.5,1.3-0.9,2.2-1.2s2.1-0.5,3.6-0.5h3v3.8c0,1.9-0.4,3.4-1.1,4.5c-0.7,1.1-2,1.7-4,1.7
		c-1.7,0-3-0.4-3.8-1.3c-0.9-0.9-1.3-2-1.3-3.5C134.3,131.2,134.4,130.5,134.6,129.9z M304.9,115.5c0-2.7-0.4-5-1.1-7
		c-0.8-2-2.1-3.7-3.9-5.1c-1.8-1.4-4.2-2.4-7.2-3.1c-3-0.7-6.7-1.1-11.1-1.1c-2.9,0-5.8,0.2-8.5,0.6c-2.7,0.4-5.2,1.1-7.4,2.2
		c-2.2,1.1-4,2.6-5.4,4.6s-2.2,4.5-2.4,7.6h18.3c0.1-1.9,0.5-3.2,1.3-3.8c0.7-0.6,1.8-0.9,3.2-0.9c1.6,0,2.7,0.3,3.3,1
		c0.6,0.6,1,1.5,1,2.7v4.8h-2.7c-8.6,0-15.1,1.2-19.6,3.7s-6.7,6.6-6.7,12.3c0,2.3,0.4,4.3,1.2,6s1.9,3.2,3.3,4.4s3.1,2.1,5,2.7
		c1.9,0.6,4.1,0.9,6.4,0.9c2.6,0,5-0.4,7.3-1.3c2.3-0.9,4.2-2.3,5.8-4.5l0.6,4.4H305L304.9,115.5L304.9,115.5z M284.9,130.3
		c0,1.9-0.4,3.4-1.1,4.5s-2,1.7-4,1.7c-1.7,0-3-0.4-3.8-1.3c-0.9-0.9-1.3-2-1.3-3.5c0-0.6,0.1-1.2,0.3-1.9c0.2-0.6,0.5-1.2,1.1-1.7
		c0.5-0.5,1.3-0.9,2.2-1.2c0.9-0.3,2.1-0.5,3.6-0.5h3L284.9,130.3L284.9,130.3z M65.9,161.3c-1.7-1.5-3.8-2.7-6.3-3.5
		s-5.5-1.2-8.8-1.2c-3.4,0-6.3,0.4-8.8,1.2s-4.6,2-6.3,3.5s-2.9,3.4-3.8,5.5c-0.8,2.1-1.3,4.5-1.3,7.1s0.4,5,1.3,7.1
		c0.9,2.1,2.1,4,3.8,5.5s3.7,2.7,6.3,3.5c2.5,0.8,5.4,1.2,8.8,1.2c3.3,0,6.2-0.4,8.8-1.2c2.5-0.8,4.6-2,6.3-3.5s2.9-3.4,3.8-5.5
		s1.3-4.5,1.3-7.1s-0.4-5-1.3-7.1C68.9,164.7,67.6,162.9,65.9,161.3z M53.7,180.7c-0.6,1.2-1.5,1.8-2.8,1.8s-2.2-0.6-2.8-1.8
		s-0.9-3.4-0.9-6.7s0.3-5.5,0.9-6.7c0.6-1.2,1.6-1.8,2.8-1.8c1.3,0,2.2,0.6,2.8,1.8s0.9,3.4,0.9,6.7
		C54.6,177.3,54.3,179.5,53.7,180.7z M110.8,161.1c-1.2-1.5-2.7-2.6-4.3-3.4c-1.7-0.8-3.5-1.1-5.5-1.1c-1.8,0-3.6,0.3-5.4,1
		s-3.4,1.9-4.8,3.8l-0.3-3.8h-15V203h15.9v-15.6c1.3,1.5,2.8,2.5,4.5,3.1s3.4,0.9,5.3,0.9c1.8,0,3.5-0.3,5.1-0.9s3-1.6,4.3-2.9
		c1.2-1.4,2.2-3.1,3-5.3c0.7-2.2,1.1-4.8,1.1-7.9c0-2.9-0.3-5.5-1-7.7C112.9,164.5,112,162.6,110.8,161.1z M98.1,180
		c-0.4,1.4-1.5,2.1-3.1,2.1c-1.8,0-3-1-3.4-3c-0.1-0.7-0.2-1.4-0.2-2s0-1.7,0-3.1c0-3.3,0.2-5.4,0.7-6.4c0.2-0.5,0.5-0.9,1-1.2
		c0.4-0.3,1.1-0.5,2-0.5c0.8,0,1.5,0.2,2,0.7c0.5,0.4,0.9,1,1.1,1.7c0.3,0.7,0.4,1.6,0.5,2.6s0.1,2.1,0.1,3.1
		C98.8,176.6,98.5,178.6,98.1,180z M137.5,156.6c-3,0-5.6,0.4-8,1.1c-2.4,0.7-4.4,1.8-6.1,3.3c-1.7,1.4-3,3.2-3.9,5.4
		c-0.9,2.1-1.4,4.6-1.4,7.5c0,3.3,0.5,6.1,1.5,8.4c1,2.3,2.3,4.1,4,5.4c1.7,1.4,3.6,2.4,5.8,3s4.5,0.9,6.9,0.9c6.2,0,10.7-1,13.8-3
		c3-2,4.8-4.8,5.4-8.6h-13.9c-0.2,1.2-0.7,2-1.5,2.6c-0.8,0.5-1.6,0.8-2.5,0.8c-1.6,0-2.7-0.4-3.4-1.3c-0.7-0.9-1-2.2-1-4.2v-1h22.7
		v-2.2c0-5.9-1.5-10.4-4.5-13.5S143.7,156.6,137.5,156.6z M141.6,169.9h-8.4v-0.5c0-1.6,0.4-2.8,1.2-3.6s1.8-1.2,3.1-1.2
		s2.3,0.4,3,1.2s1.1,2,1.1,3.6L141.6,169.9L141.6,169.9z M194.5,159.3c-1-0.9-2.2-1.6-3.6-2.1c-1.4-0.4-2.9-0.7-4.6-0.7
		c-1.9,0-3.7,0.4-5.6,1.2c-1.8,0.8-3.4,2.4-4.8,4.7h-0.1l-0.4-5h-15.5v32.9h15.9v-20.5c0-1.3,0.3-2.2,0.9-2.8
		c0.6-0.6,1.4-0.9,2.2-0.9c1.9,0,2.9,1.3,2.9,3.8v20.4h15.9v-21.9c0-2.2-0.3-4-0.9-5.6C196.3,161.4,195.5,160.2,194.5,159.3z"/>
</g>
</svg>
